<?xml version="1.0" encoding="UTF-8"?>
<svg id="Capa_1" data-name="Capa 1" xmlns="http://www.w3.org/2000/svg" viewBox="0 0 330.27 617.64">
  <defs>
    <style>
      .cls-1 {
        fill: #1d1d1b;
      }
    </style>
  </defs>
  <path class="cls-1" d="M280.03,255.72V111.65c0-3.45-2.8-6.25-6.25-6.25h-59.55c-2.98,0-5.55,2.11-6.13,5.03l-30.71,155.17c-1.21,6.06,1.53,12.23,6.84,15.4h0c5.31,3.17,8.05,9.33,6.84,15.4l-6.75,33.21c-.25,1.23-2.01,1.23-2.25,0l-7.69-36.02c-.94-4.75-4.17-8.72-8.61-10.62l-9.69-4.15c-4.45-1.9-7.67-5.88-8.61-10.62l-30.82-157.76c-.58-2.93-3.15-5.03-6.13-5.03h-58.2c-3.45,0-6.25,2.8-6.25,6.25v166.58c0,5.55,3.14,10.63,8.1,13.11l4.63,2.32c4.97,2.48,8.1,7.56,8.1,13.11v55.33c0,5.55-3.14,10.63-8.1,13.11l-4.63,2.32c-4.97,2.48-8.1,7.56-8.1,13.11v119.15c0,3.45,2.8,6.25,6.25,6.25h34.99c3.45,0,6.25-2.8,6.25-6.25v-117.15c0-5.55,3.14-10.63,8.1-13.11l4.63-2.32c4.97-2.48,8.1-7.56,8.1-13.11v-60.33c0-5.55-3.14-10.63-8.1-13.11l-4.63-2.32c-4.97-2.48-8.1-7.56-8.1-13.11l-2.32-77.58s-.07-1.18,1.17-1.38c1.41-.22,1.64,1.24,1.64,1.24l10.17,73.17c.81,4.89,4.04,9.05,8.59,11.04l8.83,3.87c4.54,1.99,7.77,6.14,8.58,11.03l15.73,67.93c1,6.03-1.84,12.04-7.13,15.09l-.65.38c-5.29,3.05-8.13,9.07-7.13,15.09l19.16,115.71c.5,3.02,3.11,5.23,6.17,5.23h12.01c3.06,0,5.67-2.21,6.17-5.23l19.07-115.14c.81-4.88,4.03-9.03,8.55-11.02l8.89-3.92c4.53-1.99,7.75-6.14,8.55-11.02l16.67-76.26c1-6.01-1.83-12.01-7.1-15.07l-.72-.42c-5.27-3.06-8.1-9.06-7.1-15.07l9.51-65.46s.21-1.34,1.49-1.2c1.28.14,1.32,1.35,1.32,1.35l-2.49,61.23c0,5.55,3.14,10.63,8.1,13.11l4.63,2.32c4.97,2.48,8.1,7.56,8.1,13.11v82.54c0,5.55-3.14,10.63-8.1,13.11l-4.63,2.32c-4.97,2.48-8.1,7.56-8.1,13.11v111.35c0,3.45,2.8,6.25,6.25,6.25h36.34c3.45,0,6.25-2.8,6.25-6.25v-109.3c0-5.55,3.14-10.63,8.1-13.11l4.63-2.32c4.97-2.48,8.1-7.56,8.1-13.11v-87.69c0-5.55-3.14-10.63-8.1-13.11l-4.63-2.32c-4.97-2.48-8.1-7.56-8.1-13.11Z"/>
  <path class="cls-1" d="M330.27,555.89H2.96V66.25h327.31v489.64ZM11.93,546.92h309.37V75.22H11.93v471.7Z"/>
  <g>
    <path class="cls-1" d="M1.73,3.37V0h11.89v3.37H1.73Z"/>
    <path class="cls-1" d="M22.91,21.83h4.97l-5.3,16.66h-5.3l-3.33-10.56-3.3,10.56h-5.3L0,21.83h4.94l3.3,11.99,3.38-11.99h5.24l3.24,11.8,2.81-11.8Z"/>
    <path class="cls-1" d="M49.69,21.79v3.08h-6.86v3.58h6.05v3.09h-6.05v3.87h6.86v3.08h-11.49v-16.71h11.49Z"/>
  </g>
  <g>
    <path class="cls-1" d="M282.93,43.09c-1.88-1.83-2.82-4.15-2.82-6.96s.94-5.13,2.82-6.96c1.88-1.83,4.18-2.74,6.91-2.74,2.11,0,3.98.56,5.62,1.68,1.64,1.12,2.78,2.67,3.43,4.65h-5.51c-.72-1.39-1.87-2.08-3.46-2.08s-2.83.49-3.74,1.49c-.91.99-1.36,2.32-1.36,3.97s.46,2.98,1.36,3.97c.91.99,2.13,1.49,3.66,1.49,1.1,0,1.99-.27,2.69-.82.69-.55,1.16-1.28,1.39-2.2h-5.35v-3.51h10.32v3.51c-.34,1.73-1.29,3.34-2.84,4.84-.74.72-1.65,1.31-2.74,1.76-1.09.45-2.25.68-3.47.68-2.72,0-5.02-.91-6.91-2.74Z"/>
    <path class="cls-1" d="M311.68,43.1c-1.88-1.84-2.82-4.16-2.82-6.97s.94-5.13,2.82-6.96c1.88-1.83,4.19-2.74,6.92-2.74s5.03.91,6.89,2.74c1.87,1.83,2.8,4.15,2.8,6.96s-.94,5.13-2.81,6.97c-1.87,1.84-4.17,2.76-6.89,2.76s-5.02-.92-6.91-2.76ZM322.22,40.1c.91-.99,1.37-2.32,1.37-3.97s-.46-2.98-1.37-3.97c-.91-.99-2.13-1.49-3.65-1.49s-2.74.49-3.65,1.49c-.91.99-1.36,2.32-1.36,3.97s.46,2.98,1.36,3.97c.91.99,2.13,1.49,3.65,1.49s2.74-.49,3.65-1.49Z"/>
  </g>
  <g>
    <path class="cls-1" d="M177.85,573.81h8.24c1.93,0,3.46.47,4.61,1.41,1.14.94,1.72,2.13,1.72,3.57,0,2.14-1.25,3.59-3.76,4.35,1.28.18,2.3.71,3.05,1.59s1.14,1.92,1.14,3.11c0,1.51-.55,2.72-1.66,3.61-1.11.89-2.65,1.34-4.64,1.34h-8.7v-18.97ZM182.48,577.32v4.11h3.02c.67,0,1.2-.17,1.61-.51.41-.34.61-.85.61-1.53s-.2-1.19-.61-1.54c-.41-.35-.94-.53-1.61-.53h-3.02ZM182.48,589.27h3.49c.63,0,1.15-.19,1.56-.57s.62-.9.62-1.57-.2-1.2-.59-1.59c-.4-.4-.91-.59-1.54-.59h-3.54v4.32Z"/>
    <path class="cls-1" d="M215.66,573.76v3.51h-6.86v4.08h6.05v3.51h-6.05v4.41h6.86v3.51h-11.49v-19.02h11.49Z"/>
    <path class="cls-1" d="M237.3,592.78h-4.62v-6.11l-6.57-12.86h5.24l3.65,8.57,3.62-8.57h5.24l-6.57,12.86v6.11Z"/>
    <path class="cls-1" d="M256.12,590.21c-1.88-1.84-2.82-4.16-2.82-6.97s.94-5.13,2.82-6.96c1.88-1.83,4.19-2.74,6.92-2.74s5.03.91,6.89,2.74c1.87,1.83,2.8,4.15,2.8,6.96s-.94,5.13-2.81,6.97c-1.87,1.84-4.17,2.76-6.89,2.76s-5.02-.92-6.91-2.76ZM266.66,587.21c.91-.99,1.37-2.32,1.37-3.97s-.46-2.98-1.37-3.97c-.91-.99-2.13-1.49-3.65-1.49s-2.74.49-3.65,1.49c-.91.99-1.36,2.32-1.36,3.97s.46,2.98,1.36,3.97c.91.99,2.13,1.49,3.65,1.49s2.74-.49,3.65-1.49Z"/>
    <path class="cls-1" d="M296.16,573.76h4.62v19.02h-4.62l-7.73-11.97v11.97h-4.62v-19.02h4.62l7.73,11.97v-11.97Z"/>
    <path class="cls-1" d="M319.61,573.81c3.03,0,5.51.88,7.46,2.64,1.94,1.76,2.92,4.04,2.92,6.84s-.97,5.08-2.92,6.85c-1.95,1.77-4.43,2.65-7.46,2.65h-6.67v-18.97h6.67ZM317.56,589.27h2.05c1.77,0,3.15-.54,4.16-1.62,1.01-1.08,1.52-2.53,1.52-4.35s-.51-3.27-1.52-4.35c-1.01-1.08-2.39-1.62-4.16-1.62h-2.05v11.94Z"/>
    <path class="cls-1" d="M317.1,617.64v-3.84h11.89v3.84h-11.89Z"/>
  </g>
  <g>
    <path class="cls-1" d="M10.68,575.94c-.36,0-.65.09-.88.29s-.34.47-.34.82.11.65.32.87.49.39.84.51.72.23,1.14.34c.42.11.84.24,1.26.39s.79.34,1.14.56c.34.22.62.54.83.95.21.41.32.9.32,1.47,0,1-.41,1.86-1.22,2.57-.81.71-1.89,1.07-3.22,1.07s-2.41-.32-3.22-.96c-.81-.64-1.22-1.55-1.22-2.73h3.07c.08.94.56,1.41,1.45,1.41.42,0,.74-.11.98-.33s.35-.5.35-.83-.11-.61-.32-.83c-.21-.21-.49-.38-.84-.51-.34-.12-.72-.24-1.14-.34-.42-.11-.84-.24-1.26-.4-.41-.16-.79-.34-1.14-.56-.34-.22-.62-.53-.83-.94-.21-.41-.32-.9-.32-1.46,0-1.1.41-1.98,1.23-2.64.82-.66,1.87-.99,3.14-.99s2.31.29,3.09.87,1.2,1.49,1.23,2.74h-3.13c-.04-.43-.18-.75-.41-.99-.23-.23-.53-.34-.88-.34Z"/>
    <path class="cls-1" d="M17.57,585.66v-11.83h2.88v11.83h-2.88Z"/>
    <path class="cls-1" d="M30.68,573.8h2.88v11.86h-2.88l-4.82-7.46v7.46h-2.88v-11.86h2.88l4.82,7.46v-7.46Z"/>
    <path class="cls-1" d="M37.16,584.05c-1.17-1.14-1.76-2.59-1.76-4.34s.59-3.2,1.76-4.34,2.61-1.71,4.3-1.71c1.31,0,2.48.35,3.5,1.04s1.74,1.66,2.14,2.9h-3.44c-.45-.86-1.17-1.3-2.15-1.3s-1.77.31-2.34.93c-.57.62-.85,1.44-.85,2.48s.28,1.86.85,2.48c.57.62,1.35.93,2.34.93s1.71-.43,2.15-1.3h3.44c-.4,1.24-1.12,2.2-2.14,2.9s-2.19,1.04-3.5,1.04c-1.7,0-3.13-.57-4.3-1.71Z"/>
    <path class="cls-1" d="M56.12,573.8v2.19h-4.28v2.54h3.78v2.19h-3.78v2.75h4.28v2.19h-7.16v-11.86h7.16Z"/>
    <path class="cls-1" d="M62.87,573.2l-.44,2.22,1.75-1.47.94,1.72-2.07.72,2.07.71-1.01,1.79-1.68-1.48.42,2.19h-1.97l.41-2.19-1.67,1.5-1.05-1.82,2.07-.72-2.06-.67.96-1.74,1.75,1.47-.44-2.22h2Z"/>
    <path class="cls-1" d="M66.98,585.49v-2.14c.3-.27.73-.64,1.28-1.11.55-.47.98-.84,1.28-1.1.3-.26.66-.6,1.06-.99.4-.4.71-.74.91-1.02.53-.73.79-1.36.79-1.9,0-.95-.42-1.43-1.26-1.43-.41,0-.73.14-.96.43-.24.29-.36.7-.36,1.24h-2.78c0-1.35.39-2.37,1.17-3.06.78-.69,1.81-1.04,3.07-1.04s2.26.36,2.97,1.09c.71.73,1.06,1.6,1.06,2.62,0,.78-.17,1.45-.51,2.04-.2.34-.38.62-.52.86-.15.24-.39.53-.72.88-.34.35-.58.6-.74.76-.16.16-.45.43-.87.81-.42.38-.69.63-.8.74h4.38v2.34h-8.46Z"/>
    <path class="cls-1" d="M79.22,573.9c.62-.3,1.36-.45,2.22-.45s1.59.15,2.22.45c.62.3,1.11.74,1.47,1.3.36.56.62,1.2.79,1.91.17.71.25,1.52.25,2.42s-.08,1.7-.25,2.42c-.17.71-.43,1.35-.79,1.91-.36.56-.85.99-1.47,1.3-.62.3-1.36.45-2.22.45s-1.59-.15-2.22-.45c-.62-.3-1.12-.74-1.47-1.3-.36-.56-.62-1.2-.79-1.91-.17-.71-.25-1.52-.25-2.42s.08-1.71.25-2.42c.17-.71.43-1.35.79-1.91s.85-.99,1.47-1.3ZM82.29,576.34c-.24-.13-.53-.19-.85-.19s-.61.07-.85.19c-.24.13-.43.29-.56.48s-.23.44-.31.76c-.08.32-.13.62-.15.91-.02.29-.03.64-.03,1.05s.01.75.03,1.04c.02.29.07.6.15.91.08.32.18.57.31.76.13.19.32.35.56.48.24.13.52.19.85.19s.61-.06.85-.19c.24-.13.43-.29.56-.48.13-.19.23-.44.31-.76.08-.31.13-.62.15-.91.02-.29.04-.64.04-1.04s-.01-.75-.04-1.05c-.02-.29-.07-.59-.15-.91-.08-.31-.18-.57-.31-.76-.13-.19-.32-.35-.56-.48Z"/>
    <path class="cls-1" d="M90.2,573.9c.62-.3,1.36-.45,2.22-.45s1.59.15,2.22.45c.62.3,1.11.74,1.47,1.3.36.56.62,1.2.79,1.91.17.71.25,1.52.25,2.42s-.08,1.7-.25,2.42c-.17.71-.43,1.35-.79,1.91-.36.56-.85.99-1.47,1.3-.62.3-1.36.45-2.22.45s-1.59-.15-2.22-.45c-.62-.3-1.12-.74-1.47-1.3-.36-.56-.62-1.2-.79-1.91-.17-.71-.25-1.52-.25-2.42s.08-1.71.25-2.42c.17-.71.43-1.35.79-1.91s.85-.99,1.47-1.3ZM93.27,576.34c-.24-.13-.53-.19-.85-.19s-.61.07-.85.19c-.24.13-.43.29-.56.48s-.23.44-.31.76c-.08.32-.13.62-.15.91-.02.29-.03.64-.03,1.05s.01.75.03,1.04c.02.29.07.6.15.91.08.32.18.57.31.76.13.19.32.35.56.48.24.13.52.19.85.19s.61-.06.85-.19c.24-.13.43-.29.56-.48.13-.19.23-.44.31-.76.08-.31.13-.62.15-.91.02-.29.04-.64.04-1.04s-.01-.75-.04-1.05c-.02-.29-.07-.59-.15-.91-.08-.31-.18-.57-.31-.76-.13-.19-.32-.35-.56-.48Z"/>
    <path class="cls-1" d="M103.5,583.3c.57,0,.99-.23,1.25-.68.26-.45.39-1.2.39-2.25-.21.2-.53.38-.94.52s-.85.22-1.31.22c-1.18,0-2.12-.32-2.83-.96-.71-.64-1.06-1.6-1.06-2.89s.38-2.3,1.13-3.04c.75-.74,1.78-1.11,3.08-1.11,1.75,0,2.95.57,3.6,1.72.32.57.54,1.22.67,1.95s.2,1.56.2,2.49-.04,1.72-.11,2.33-.21,1.19-.41,1.73c-.2.53-.46.96-.78,1.29-.67.7-1.69,1.04-3.06,1.04s-2.37-.36-3.02-1.08c-.65-.72-.99-1.62-1.01-2.69h2.68c.13.94.65,1.41,1.53,1.41ZM101.75,577.11c0,.45.13.84.39,1.16s.65.48,1.16.48.91-.14,1.18-.43c.27-.29.41-.69.41-1.21s-.14-.93-.42-1.21-.67-.43-1.16-.43-.88.16-1.15.48c-.27.32-.41.71-.41,1.16Z"/>
  </g>
</svg>