<?xml version="1.0" encoding="UTF-8"?>
<svg id="Layer_1" xmlns="http://www.w3.org/2000/svg" version="1.1" viewBox="0 0 311 323">
  <!-- Generator: Adobe Illustrator 29.8.2, SVG Export Plug-In . SVG Version: 2.1.1 Build 3)  -->
  <defs>
    <style>
      .st0 {
        fill: #f7aec4;
      }

      .st1 {
        fill: #ed2224;
      }

      .st2 {
        fill: #3e3c98;
      }

      .st3 {
        isolation: isolate;
      }
    </style>
  </defs>
  <rect class="st0" y="80" width="311" height="243" rx="19.9" ry="19.9"/>
  <circle class="st0" cx="155.5" cy="77.5" r="77.5"/>
  <g class="st3">
    <g class="st3">
      <path class="st2" d="M105.7,55.2l-8.6-.9,6.9,5.1-1.1,2.9-12.7-1c-.1,0-.2,0-.3,0-.1,0-.2.1-.3.2l-.7,1-1.3-.5,2.5-6.2,1.3.5-.3,1.6,9.9,1.2-6.7-5.1h-1.2c-.1,0-.2,0-.3,0s-.2.1-.3.2l-.6.7-1.3-.5,2.4-6,1.3.5-.4,1.8,9.7,1.2-7.9-5.8-.9,1.3-1.3-.5,1.9-4.7,1.3.5-.2,1.3c0,.1,0,.2,0,.3,0,0,.1.2.2.3l10,7.6-1.1,2.9Z"/>
    </g>
  </g>
  <g class="st3">
    <g class="st3">
      <path class="st2" d="M107.9,33.1l-1,1.3-1.6-.7c-.1,0-.3,0-.4,0-.1,0-.3,0-.4.1-.1,0-.3.2-.5.4-.2.2-.4.4-.6.6l-1,1.2,3.7,3,2.3-3.2,1.5,1.2-2.5,3,3.8,3.1,1.2-1.5c.2-.2.4-.5.5-.8.2-.3.3-.5.3-.6,0-.1,0-.3,0-.4,0-.1,0-.2-.2-.4l-1.3-2,1.2-1.1c.6.5,1.1.9,1.6,1.4.5.5,1,1,1.5,1.5l-7.1,8.9-1-.8.7-1.3c0-.1,0-.2,0-.4,0-.1,0-.2-.2-.3l-7.8-6.2c-.1,0-.2-.1-.3-.1-.1,0-.2,0-.3.1l-1.1.9-1.1-.9,6.8-8.6c.5.3,1.1.7,1.6,1.1.5.4,1,.8,1.5,1.3Z"/>
    </g>
  </g>
  <g class="st3">
    <g class="st3">
      <path class="st2" d="M129.8,29.3h-2.2c-.1.4-.3,1-.7,1.6-.4.6-.9,1.1-1.7,1.6-.8.5-1.6.8-2.4,1-.8.1-1.6,0-2.3-.2-.8-.2-1.5-.7-2.2-1.3-.7-.6-1.4-1.4-2-2.3-1.4-2.1-1.9-4.1-1.6-5.8.4-1.7,1.5-3.2,3.4-4.5.7-.5,1.4-.8,2.2-1.2.8-.3,1.5-.5,2.1-.7.4.5.7,1,1,1.5.3.6.6,1.1.9,1.7l-1.7,1.2-1.6-1.5c-.1-.1-.3-.2-.4-.3-.1,0-.2,0-.4,0-.2,0-.4,0-.7,0-.3,0-.5.2-.8.4-.9.6-1.2,1.4-1.1,2.5.1,1.1.8,2.6,2,4.4,1,1.5,1.9,2.5,2.7,3,.9.5,1.8.5,2.7-.1.3-.2.6-.5.8-.7.2-.3.4-.5.5-.8l-2-3.1-1.5.8-.8-1.2,4.9-3.3.8,1.2-.7.6,3.1,4.6-.3.7Z"/>
    </g>
  </g>
  <g class="st3">
    <g class="st3">
      <path class="st2" d="M137.4,26.4c-1,.4-1.9.5-2.8.4-.8,0-1.6-.3-2.3-.7-.7-.4-1.3-1-1.8-1.8-.5-.8-1-1.7-1.3-2.7-.4-1.1-.6-2.2-.7-3.2,0-1,0-1.9.4-2.7.3-.8.8-1.5,1.5-2.1.7-.6,1.5-1.1,2.5-1.4,1-.4,1.9-.5,2.8-.4.8,0,1.6.3,2.3.7.7.4,1.3,1,1.8,1.8s1,1.7,1.3,2.7c.4,1.1.6,2.2.7,3.2,0,1,0,1.9-.4,2.7-.3.8-.8,1.5-1.5,2.1-.7.6-1.5,1.1-2.5,1.4ZM133.3,13.7c-.8.3-1.3,1-1.4,2-.1,1,.2,2.6.9,4.6.7,2,1.4,3.3,2.1,4.1.7.7,1.5.9,2.3.7.8-.3,1.3-1,1.4-2,.1-1.1-.2-2.6-.9-4.6-.7-2-1.4-3.3-2.1-4-.7-.7-1.5-.9-2.3-.6Z"/>
    </g>
  </g>
  <g class="st3">
    <g class="st3">
      <path class="st2" d="M155.5,23.1c-.3,0-.6,0-.9,0-.3,0-.5,0-.8,0-.2,0-.5,0-.7,0-.2,0-.5,0-.8,0h-3.6s0-1.3,0-1.3l1.5-.3c.1,0,.2,0,.3-.2,0,0,0-.2,0-.3v-10.1c0-.1,0-.2-.2-.3,0,0-.2-.1-.3-.2l-1.5-.3v-1.4s3.5,0,3.5,0c.6,0,1.1,0,1.6,0,.5,0,1.1,0,1.7,0,1,0,1.8,0,2.5.2.7.1,1.2.3,1.6.6.4.3.7.6.8,1,.2.4.2.9.2,1.5,0,.9-.2,1.7-.7,2.3s-1.1,1-1.8,1.2c.5,0,1,.1,1.4.3.4.2.8.4,1.1.6.3.3.6.6.7,1,.2.4.3.9.3,1.4,0,.6,0,1.2-.3,1.7-.2.5-.5,1-1,1.4-.5.4-1.1.7-1.9.9-.8.2-1.8.3-2.9.3ZM155.3,15c.7,0,1.1-.2,1.5-.7.3-.5.4-1.1.4-2,0-.8-.2-1.4-.5-1.8-.3-.4-.9-.5-1.6-.5,0,0-.1,0-.2,0-.1,0-.2,0-.3,0-.1,0-.2,0-.4,0-.1,0-.2,0-.2,0v4.9c.3,0,.6,0,.8,0,.2,0,.4,0,.6,0ZM155.3,21.8c.9,0,1.5-.3,1.9-.8.4-.5.6-1.2.6-2.1,0-.9-.2-1.6-.6-1.9-.4-.4-1-.5-1.7-.5-.2,0-.4,0-.7,0-.3,0-.5,0-.8,0v5.2c.2,0,.4,0,.7,0,.3,0,.5,0,.7,0Z"/>
    </g>
  </g>
  <g class="st3">
    <g class="st3">
      <path class="st2" d="M175.2,15.5l-1.6-.4v-1.7c-.1-.2-.1-.3-.2-.4,0-.1-.2-.2-.3-.3-.1,0-.3-.2-.6-.3-.3,0-.5-.2-.8-.2l-1.5-.3-1.1,4.7,3.8.7-.4,1.8-3.8-1-1.1,4.8,1.9.4c.3,0,.6.1.9.2.3,0,.6,0,.7,0,.1,0,.3,0,.3-.1,0,0,.2-.2.3-.3l1.3-2,1.5.6c-.2.7-.4,1.4-.6,2.1-.2.7-.5,1.3-.7,2l-11.1-2.6.3-1.3h1.4c.1,0,.3,0,.3,0,0,0,.1-.2.2-.3l2.2-9.7c0-.1,0-.3,0-.4,0-.1-.1-.2-.3-.2l-1.3-.6.3-1.3,10.6,2.5c0,.6-.2,1.3-.3,1.9-.1.6-.3,1.3-.5,1.9Z"/>
    </g>
  </g>
  <g class="st3">
    <g class="st3">
      <path class="st2" d="M183.2,30.4l-7.1-3.5.6-1.2,1.7.5c.1,0,.3,0,.4,0,.1,0,.2-.1.2-.2l1.5-3.1-.4-7.6c0-.1,0-.2,0-.3,0,0-.1-.2-.2-.2l-.9-.8.6-1.2,6.2,3.1-.6,1.2-1.4-.3v5.5c0,0,4.4-3.4,4.4-3.4l-1.3-1,.6-1.2,4.5,2.2-.6,1.2-1.1-.2c-.1,0-.2,0-.3,0s-.2,0-.3.1l-6,4.5-1.5,3.1c0,.1,0,.2,0,.3,0,.1.1.2.2.3l1.4,1.1-.6,1.2Z"/>
    </g>
  </g>
  <g class="st3">
    <g class="st3">
      <path class="st2" d="M189.9,35.6c-.8-.7-1.4-1.4-1.8-2.2s-.6-1.5-.6-2.3c0-.8.2-1.6.6-2.4.4-.8.9-1.7,1.6-2.5.8-.9,1.6-1.7,2.4-2.2s1.7-.9,2.5-1c.8-.1,1.7,0,2.6.2.9.3,1.7.7,2.5,1.4.8.7,1.4,1.4,1.8,2.2.4.8.6,1.5.6,2.3,0,.8-.2,1.6-.6,2.4s-.9,1.7-1.6,2.5c-.8.9-1.6,1.7-2.4,2.2-.8.6-1.7.9-2.5,1-.8.1-1.7,0-2.6-.2-.9-.3-1.7-.7-2.5-1.4ZM198.6,25.5c-.7-.6-1.5-.6-2.4-.2-.9.4-2.1,1.5-3.5,3.2-1.3,1.6-2.1,2.9-2.4,3.9-.3,1,0,1.7.6,2.3.7.6,1.5.6,2.4.2,1-.4,2.1-1.5,3.5-3.2,1.3-1.6,2.1-2.9,2.4-3.9s0-1.7-.6-2.3Z"/>
    </g>
  </g>
  <g class="st3">
    <g class="st3">
      <path class="st2" d="M200.1,43.9l-1.1.8-3.4-4.7,1.1-.8,1,1c.1,0,.2.2.3.2s.2,0,.3-.1l8.1-5.8c.1,0,.2-.2.2-.3s0-.2,0-.4l-.6-1.3,1.1-.8,3.1,4.4-4.4,10.5,6.1-4.4c.1,0,.2-.2.2-.3,0-.1,0-.2,0-.4l-.7-1.4,1.1-.8,3.2,4.5-1.1.8-1-.9c-.1,0-.2-.1-.3-.2-.1,0-.2,0-.3.1l-9.8,7-1.8-2.5,4.8-11.3-6.8,4.9c-.1,0-.2.2-.2.3,0,.1,0,.2,0,.4l.7,1.5Z"/>
    </g>
  </g>
  <g class="st3">
    <g class="st3">
      <path class="st2" d="M219,51.1c.2.6.4,1.1.6,1.6.2.5.4,1,.6,1.5.8,2.2.9,4,.2,5.4-.6,1.5-2,2.6-4.2,3.4-1.2.4-2.3.7-3.3.7-1,0-1.9-.1-2.8-.5-.8-.4-1.5-.9-2.2-1.6-.6-.7-1.1-1.6-1.5-2.7,0-.2-.1-.4-.2-.7s-.2-.5-.2-.8c0-.3-.2-.5-.2-.8,0-.2-.1-.5-.2-.6l-1.2-3.3,1.2-.4.8,1.3c0,.1.1.2.2.2.1,0,.2,0,.3,0l9.5-3.4c.1,0,.2-.1.2-.2,0,0,0-.2,0-.3l-.2-1.5,1.3-.5,1.2,3.3ZM207.6,57.1c0,.2,0,.4,0,.6,0,.2.1.5.2.7.2.5.4.9.8,1.2.3.3.7.5,1.3.7.5.1,1.1.1,1.9,0,.8-.1,1.6-.3,2.7-.7,1.7-.6,3-1.4,3.8-2.2s1-1.8.6-3c-.1-.3-.2-.5-.3-.7-.1-.2-.2-.3-.2-.4l-10.7,3.8Z"/>
    </g>
  </g>
  <g>
    <path class="st2" d="M50.6,161.1c1.3-4.1,1.9-6.1,3.2-10.1,2.3-.1,3.5-.2,5.8-.3,0,2.4-.2,4.9-.3,7.5-.2,2.6-.6,5.4-1.2,8.2-12.7,3.6-25.2,7.8-37.4,12.8v-5.2c1.8-1.1,2.8-1.6,4.6-2.7.5-.2.8-.6,1-1,.2-.4.4-.9.4-1.4,0-12.7.1-25.3.1-38,0-.5-.1-1-.4-1.3-.2-.3-.6-.5-1-.6-1.9-.3-2.9-.5-4.8-.8v-5.5c10.3,0,15.4-.1,25.7-.2,0,1.8,0,2.8,0,4.6-2.5.5-3.8.8-6.3,1.3-.5.1-.8.3-1.1.6s-.4.7-.4,1.2c-.1,12.4-.3,24.8-.4,37.1,2.1-.6,3.1-1,5.2-1.6,1.2-.4,2.3-.8,3.3-1.2.9-.4,1.7-.8,2.2-1.1.5-.3.8-.6,1.1-1s.5-.8.7-1.4h0Z"/>
    <path class="st2" d="M78.1,157.8c0,1.4,0,2.2,0,3.6-7.2,1.6-10.8,2.5-17.9,4.4,0-1.6,0-2.4,0-4,1.7-.8,2.5-1.2,4.2-1.9.4-.2.8-.4,1-.7s.5-.6.6-1c4.6-12.1,9.6-24.2,14.8-36,4.4,0,6.6,0,10.9,0,4.3,9.9,8.7,19.8,13.4,29.4.1.3.3.5.6.6.3.1.6.2,1,.2,1.6.1,2.3.1,3.9.3,0,1.2,0,1.9,0,3.1-9.4,1.2-14.1,1.9-23.3,3.7,0-1.4,0-2.1,0-3.4,2.4-.7,3.6-1.1,5.9-1.7-1-2.4-1.5-3.7-2.5-6.2-6.3.8-9.5,1.3-15.7,2.3-1.1,3-1.7,4.6-2.8,7.7,2.3-.2,3.5-.3,5.9-.4h0ZM89.3,144.4c-2.4-5.9-3.6-9-5.9-15.3-2.6,6.5-3.9,9.9-6.6,16.9,5-.7,7.5-1,12.5-1.6Z"/>
    <path class="st2" d="M146.6,153.3c-9.8.2-19.8.8-29.6,1.9,0-1.2,0-1.8,0-3,2.9-.6,4.4-.9,7.3-1.4.5,0,.8-.2,1.1-.4.3-.2.4-.5.4-.8.2-9.6.2-14.4.4-24.1-1.1,0-1.6,0-2.6,0-.8,0-1.6,0-2.4.1-.8,0-1.4.2-1.9.3-.4.1-.8.3-1,.4s-.4.4-.5.7c-1.1,2.9-1.7,4.4-2.8,7.4-2.3.1-3.4.1-5.7.3-.3-2.2-.5-4.3-.5-6.2,0-1.9.2-4,.5-6.2,15.1,0,30.3,0,45.4,0,.3,2,.5,3.9.4,5.7s-.3,3.7-.6,5.6c-2.3,0-3.4,0-5.8,0-1.1-2.7-1.6-4.1-2.7-6.9-.1-.2-.3-.5-.5-.6-.2-.2-.6-.3-1-.4-.5-.1-1.1-.2-1.9-.3-.8,0-1.6,0-2.4,0s-1.5,0-2.5,0c0,9.4-.1,14.1-.2,23.5,0,.3.1.6.4.7.3.2.6.3,1.1.3,2.9.2,4.4.3,7.3.6,0,1.1,0,1.7,0,2.8h0Z"/>
    <path class="st2" d="M183.9,122.2c0,1.2,0,1.9,0,3.1-1.9.2-2.9.3-4.8.6-.5,0-.8.2-1.1.4-.2.2-.4.4-.4.8.1,8.9.2,13.3.3,22.2,0,.3.1.6.4.8.2.2.6.4,1.1.4,2,.4,2.9.6,4.9,1,0,1.2,0,1.8,0,3-9.8-.8-14.8-1.1-24.6-1.2v-2.9c2-.2,2.9-.3,4.9-.5.5,0,.8-.1,1.1-.3s.4-.4.4-.7c0-8.7,0-13.1-.1-21.8,0-.3-.1-.6-.4-.8s-.6-.3-1.1-.4c-1.9-.2-2.9-.4-4.8-.6v-3c9.7,0,14.5,0,24.2,0h0Z"/>
    <path class="st2" d="M209.9,154.3c0,1.3,0,1.9,0,3.2-8-1.3-12-1.8-20-2.6,0-1.2,0-1.8,0-3,1.9,0,2.9,0,4.9-.1.5,0,.8-.1,1.1-.3.2-.2.4-.4.3-.8-.2-9.4-.3-14.1-.5-23.4,0-.3-.1-.6-.4-.8-.2-.2-.6-.3-1.1-.4-1.9-.3-2.9-.4-4.8-.7,0-1.3,0-1.9,0-3.2,7.3,0,11,0,18.3,0,7.3,8.6,14.1,17.3,20.9,26.4-.2-8.2-.3-12.3-.5-20.5,0-.4-.1-.7-.4-.9s-.6-.4-1.1-.5c-2.1-.3-3.1-.5-5.1-.9,0-1.4,0-2.2,0-3.6,7.6,0,11.3,0,18.9,0,0,1.6,0,2.4,0,4-1.8.3-2.7.4-4.4.7-.5,0-.8.2-1.1.5s-.3.6-.3.9c.3,11.3.6,22.6.8,34-4.2-1-6.3-1.4-10.6-2.3-7-10-14.5-19.7-22.4-28.9.2,8.1.3,12.1.5,20.2,0,.3.1.6.4.9.2.2.6.4,1.1.5,2.3.5,3.4.8,5.7,1.4h0Z"/>
    <path class="st2" d="M266.1,172.2c-3.5-1.2-6.6-2.7-9.2-4.6s-4.8-3.9-6.5-6.2-3-4.9-3.9-7.7c-.9-2.8-1.4-5.9-1.4-9.1,0-3.6.3-6.8,1.2-9.6s2.3-5.2,4.1-7.1,4.2-3.5,7-4.6,6-1.7,9.7-1.7,6.8.6,9.4,1.8c2.7,1.3,4.8,3.1,6.5,5.6,1.7,2.4,3,5.5,3.8,9.1.8,3.6,1.2,7.6,1.2,12s-.5,9-1.4,12.4c-.9,3.5-2.3,6.2-4.1,8.1-1.8,1.9-4.1,2.9-6.8,3.2s-5.9-.3-9.5-1.5h0ZM266.5,126.5c-3,0-5.2,1.4-6.7,4.5s-2.1,8-2,15c.1,6.8.9,11.8,2.4,15.2,1.5,3.4,3.7,5.6,6.5,6.5,2.9.9,5.1,0,6.6-3.1,1.5-3,2.2-8.5,2.1-16.4,0-7.6-.8-13.2-2.3-16.6-1.5-3.3-3.7-5-6.6-5.1h0Z"/>
  </g>
  <g class="st3">
    <g class="st3">
      <path class="st1" d="M33.7,189.9v2.4l-2.5.5c-.2,0-.4.2-.6.3-.1.2-.2.4-.2.6v17.5c0,.2,0,.4.2.6.1.2.3.3.6.3l2.5.5v2.3h-12.5v-2.3l2.5-.5c.2,0,.4-.1.6-.3.1-.2.2-.4.2-.6v-17.5c0-.2,0-.4-.2-.6-.1-.2-.3-.3-.6-.3l-2.5-.5v-2.4h12.5Z"/>
    </g>
    <g class="st3">
      <path class="st1" d="M46.8,212.6v2.3h-10.2v-2.3l2.5-.4c.2,0,.4-.1.6-.3.1-.2.2-.4.2-.6v-17.5c0-.2,0-.4-.2-.6-.1-.2-.3-.3-.6-.3l-2.5-.5v-2.4h9.5l10.5,17v-13.2c0-.2,0-.4-.2-.6s-.3-.3-.5-.3l-2.7-.5v-2.4h9.8v2.4l-2.3.5c-.2,0-.4.2-.6.3-.1.2-.2.4-.2.6v21.2h-5.5l-11.2-18.4v14.8c0,.2,0,.4.2.6.1.2.3.3.5.3l2.9.5Z"/>
    </g>
    <g class="st3">
      <path class="st1" d="M71.1,212.2c0,.9-.3,1.6-.9,2.1-.6.5-1.4.8-2.3.8s-1.7-.3-2.3-.8c-.6-.5-.9-1.2-.9-2.1s.3-1.6.9-2.1c.6-.5,1.4-.8,2.3-.8s1.7.3,2.3.8c.6.5.9,1.2.9,2.1Z"/>
    </g>
    <g class="st3">
      <path class="st1" d="M88.8,189.9c1.1,0,2.1,0,3,0,.9,0,1.8,0,2.8,0,4.1,0,7.1,1,9.1,2.9s3.1,4.9,3.1,9-.3,4.2-.9,5.9c-.6,1.7-1.4,3.1-2.5,4.3-1.1,1.2-2.4,2-4,2.6-1.6.6-3.3.9-5.3.8-.4,0-.8,0-1.3,0-.5,0-1,0-1.4,0-.5,0-1,0-1.4,0s-.8,0-1.2,0h-6.2v-2.3l2.6-.5c.2,0,.4-.1.5-.3.1-.1.2-.3.2-.5v-17.7c0-.2,0-.4-.2-.5-.1-.1-.3-.2-.5-.3l-2.6-.5v-2.4h6.2ZM91.9,212.4c.3.1.6.2,1.1.3.4,0,.8,0,1.2,0,.9,0,1.7-.2,2.5-.5.7-.3,1.3-.9,1.8-1.7.5-.8.9-1.8,1.2-3.1s.4-2.9.4-4.8c0-3.2-.5-5.8-1.4-7.6-.9-1.8-2.5-2.8-4.6-2.8s-1,0-1.4.1c-.4,0-.6.1-.7.1v20Z"/>
    </g>
    <g class="st3">
      <path class="st1" d="M116.6,212.6v2.3h-9.3v-2.3l2.2-.5c.2,0,.4-.1.5-.3.1-.1.2-.3.3-.5l7.3-21.5h5.7l7.3,21.5c0,.2.2.4.3.5.1.1.3.2.5.3l2,.5v2.3h-12v-2.3l3.1-.5-1.4-4.5h-8.1l-1.4,4.5,3.1.5ZM122.2,204.9l-3.3-10.5-3.2,10.5h6.5Z"/>
      <path class="st1" d="M141.4,212.2c0,.9-.3,1.6-.9,2.1-.6.5-1.4.8-2.3.8s-1.8-.3-2.3-.8c-.6-.5-.9-1.2-.9-2.1s.3-1.6.9-2.1c.6-.5,1.4-.8,2.3-.8s1.7.3,2.3.8c.6.5.9,1.2.9,2.1Z"/>
    </g>
    <g class="st3">
      <path class="st1" d="M180.3,189.9v2.4l-2.5.5c-.2,0-.4.2-.5.3-.1.2-.2.4-.2.6v17.5c0,.2,0,.4.2.6.1.1.3.3.6.3l2.5.5v2.3h-11.8v-2.3l1.8-.5c.2,0,.4-.2.5-.3.1-.1.2-.3.2-.6v-7.6h-8.8v7.6c0,.2,0,.4.2.6.1.1.3.3.5.3l2,.5v2.3h-12v-2.3l2.5-.5c.2,0,.4-.2.6-.3.1-.1.2-.3.2-.6v-17.5c0-.3,0-.5-.2-.6-.1-.1-.3-.3-.5-.3l-2.5-.5v-2.4h12v2.4l-2,.5c-.2,0-.4.2-.5.3-.1.1-.2.4-.2.6v7h8.8v-7c0-.2,0-.4-.2-.6-.1-.2-.3-.3-.5-.3l-1.8-.5v-2.4h11.8Z"/>
    </g>
    <g class="st3">
      <path class="st1" d="M193.7,215.5c-1.9,0-3.5-.3-4.9-.9-1.4-.6-2.5-1.4-3.4-2.5-.9-1.1-1.5-2.4-2-4-.4-1.6-.6-3.3-.6-5.2s.3-4,.8-5.7c.5-1.7,1.2-3.1,2.2-4.2,1-1.2,2.2-2,3.7-2.6,1.5-.6,3.1-.9,5-.9s3.5.3,4.9.9,2.5,1.4,3.4,2.5c.9,1.1,1.5,2.4,2,4,.4,1.6.6,3.3.6,5.2s-.3,4-.8,5.7c-.5,1.7-1.2,3.1-2.2,4.2s-2.2,2-3.7,2.6c-1.5.6-3.2.9-5.1.9ZM194.2,191.9c-1.6,0-2.7.8-3.5,2.5-.8,1.7-1.2,4.4-1.2,8.2s.4,6.3,1.1,8c.8,1.6,1.9,2.4,3.4,2.4s2.7-.8,3.5-2.5,1.2-4.4,1.2-8.2-.4-6.3-1.1-7.9c-.8-1.6-1.9-2.4-3.4-2.4Z"/>
    </g>
    <g class="st3">
      <path class="st1" d="M223.5,189.9h9.6v2.4l-1.8.4c-.2,0-.4.2-.5.3s-.2.4-.2.6v12c0,1.8-.2,3.2-.7,4.5-.5,1.2-1.1,2.2-2,3s-1.9,1.3-3.1,1.7-2.6.5-4.1.5c-3.5,0-6.1-.8-7.8-2.3-1.7-1.5-2.6-4.1-2.6-7.5v-11.7c0-.2,0-.4-.2-.6-.1-.2-.3-.3-.5-.3l-1.6-.4v-2.4h11.9v2.4l-2.5.5c-.2,0-.4.1-.5.3-.1.2-.2.4-.2.6v12.2c0,2.2.4,3.9,1.1,5.1.7,1.2,2.1,1.9,3.9,1.9s1.8-.2,2.5-.5c.7-.3,1.2-.8,1.6-1.4s.7-1.3.9-2.2c.2-.9.3-1.8.3-2.8v-12.3c0-.2,0-.4-.2-.6-.1-.2-.3-.3-.5-.3l-2.7-.5v-2.4Z"/>
    </g>
    <g class="st3">
      <path class="st1" d="M254,207.9c0,.9-.2,1.8-.5,2.7-.3.9-.9,1.7-1.6,2.4s-1.7,1.3-3,1.8c-1.2.5-2.7.7-4.4.7s-3.2-.2-4.7-.6-2.7-.8-3.8-1.3c0-.6,0-1.2,0-1.8,0-.6,0-1.3,0-1.9,0-.6,0-1.2.2-1.8,0-.6.1-1.1.2-1.6h3.4l.6,4.1c0,.2.1.5.2.7,0,.2.3.4.5.6.3.3.8.6,1.4.8.6.3,1.3.4,2,.4,1.1,0,1.9-.3,2.5-.9.6-.6.9-1.4.9-2.3s-.1-1.3-.4-1.8-.7-1-1.2-1.4c-.5-.4-1.1-.8-1.7-1.2-.7-.4-1.3-.8-2.1-1.1-.8-.4-1.6-.9-2.4-1.3-.8-.5-1.5-1-2-1.5-.6-.6-1.1-1.2-1.4-2-.4-.8-.5-1.7-.5-2.7s.2-2,.6-2.9c.4-.9.9-1.7,1.7-2.3s1.7-1.2,2.8-1.5c1.1-.4,2.5-.6,4-.6s2.6.1,3.9.4c1.3.2,2.4.6,3.4,1,0,1.1,0,2.2,0,3.3,0,1.2-.2,2.2-.4,3.3h-3.3l-.7-3.6c0-.3-.1-.6-.2-.8-.1-.2-.2-.4-.4-.5-.3-.2-.7-.4-1.1-.5-.5-.1-.9-.2-1.4-.2-1,0-1.7.3-2.2.8-.5.5-.8,1.2-.8,2.1s.1,1.1.4,1.6c.2.5.6.9,1,1.3.5.4,1,.8,1.7,1.1s1.4.8,2.2,1.2c.9.5,1.8,1,2.6,1.5s1.5,1.1,2.2,1.7c.6.6,1.1,1.3,1.5,2.1.4.8.5,1.7.5,2.7Z"/>
      <path class="st1" d="M276.2,196.8h-2.8l-.9-3c0-.3-.2-.5-.4-.7-.2-.2-.4-.3-.6-.4-.3-.1-.6-.2-1.1-.3s-1,0-1.5,0h-2.7v8.4l6.9-.3v3.3l-6.9-.2v8.7h3.4c.5,0,1.1,0,1.6,0,.6,0,1-.1,1.3-.3.2,0,.4-.2.5-.4s.2-.4.3-.7l1.4-4,2.8.4c0,1.3,0,2.5-.1,3.7,0,1.2-.2,2.5-.4,3.8h-20.1v-2.3l2.5-.5c.2,0,.4-.1.6-.3.1-.2.2-.4.2-.6v-17.5c0-.2,0-.4-.2-.6-.1-.2-.3-.3-.6-.3l-2.5-.5v-2.4h19.2c.1,1.1.2,2.2.2,3.4,0,1.1,0,2.3-.1,3.4Z"/>
      <path class="st1" d="M286.8,212.2c0,.9-.3,1.6-.9,2.1-.6.5-1.4.8-2.3.8s-1.7-.3-2.3-.8c-.6-.5-.9-1.2-.9-2.1s.3-1.6.9-2.1c.6-.5,1.4-.8,2.3-.8s1.8.3,2.3.8c.6.5.9,1.2.9,2.1Z"/>
    </g>
  </g>
  <g class="st3">
    <g class="st3">
      <path class="st1" d="M46,107.4c0,.6-.1,1.1-.3,1.7s-.6,1.1-1,1.6c-.5.5-1.1.8-1.9,1.1-.8.3-1.7.4-2.8.4s-2-.1-3-.4c-.9-.2-1.7-.5-2.4-.8,0-.4,0-.8,0-1.2,0-.4,0-.8,0-1.2,0-.4,0-.8.1-1.1,0-.4,0-.7.1-1h2.2l.4,2.6c0,.2,0,.3.1.4s.2.2.3.4c.2.2.5.4.9.5.4.2.8.3,1.3.3.7,0,1.2-.2,1.6-.6.4-.4.6-.9.6-1.5s0-.8-.3-1.1c-.2-.3-.4-.6-.7-.9-.3-.3-.7-.5-1.1-.8-.4-.2-.9-.5-1.3-.7-.5-.3-1-.6-1.5-.8-.5-.3-.9-.6-1.3-1-.4-.4-.7-.8-.9-1.3-.2-.5-.3-1.1-.3-1.7s.1-1.3.4-1.9c.2-.6.6-1.1,1.1-1.5s1.1-.7,1.8-1c.7-.2,1.6-.4,2.5-.4s1.6,0,2.5.2,1.5.4,2.2.6c0,.7,0,1.4,0,2.1,0,.7-.1,1.4-.2,2.1h-2.1l-.4-2.3c0-.2,0-.4-.2-.5s-.2-.2-.3-.3c-.2-.1-.4-.2-.7-.3s-.6-.1-.9-.1c-.6,0-1.1.2-1.4.5s-.5.8-.5,1.3,0,.7.2,1c.2.3.4.6.7.8.3.2.6.5,1.1.7s.9.5,1.4.8c.6.3,1.1.6,1.7.9.5.3,1,.7,1.4,1.1.4.4.7.8.9,1.3.2.5.3,1.1.3,1.7Z"/>
    </g>
    <g class="st3">
      <path class="st1" d="M55.6,112.3c-1.2,0-2.2-.2-3.1-.6-.9-.4-1.6-.9-2.2-1.6-.6-.7-1-1.5-1.3-2.5s-.4-2.1-.4-3.3.2-2.6.5-3.6.8-2,1.4-2.7c.6-.7,1.4-1.3,2.3-1.7.9-.4,2-.6,3.2-.6s2.2.2,3.1.6c.9.4,1.6.9,2.2,1.6.6.7,1,1.5,1.3,2.5.3,1,.4,2.1.4,3.3s-.2,2.5-.5,3.6c-.3,1.1-.8,2-1.4,2.7-.6.7-1.4,1.3-2.3,1.7-.9.4-2,.6-3.2.6ZM55.9,97.3c-1,0-1.7.5-2.2,1.6-.5,1.1-.8,2.8-.8,5.2s.2,4,.7,5.1,1.2,1.5,2.2,1.5,1.7-.5,2.2-1.6c.5-1.1.8-2.8.8-5.2s-.2-4-.7-5c-.5-1-1.2-1.5-2.2-1.5Z"/>
    </g>
    <g class="st3">
      <path class="st1" d="M71.3,110.5v1.5h-6.3v-1.5l1.6-.3c.1,0,.3,0,.3-.2,0,0,.1-.2.1-.4l1.3-11.1c0-.2,0-.3,0-.4,0-.1-.2-.2-.4-.2l-1.7-.3v-1.5h7.4l2.7,10.6,2.5-10.6h7.4v1.5l-1.8.3c-.2,0-.3,0-.4.2s0,.2,0,.4l1.6,11.1c0,.1,0,.3.2.4,0,0,.2.2.3.2l1.5.3v1.5h-7.7v-1.5l1.8-.3-1.6-11.7-3,12.9h-3.1l-3.7-12.8-1.3,11.6,2.2.3Z"/>
    </g>
    <g class="st3">
      <path class="st1" d="M96.4,112.3c-1.2,0-2.2-.2-3.1-.6-.9-.4-1.6-.9-2.2-1.6-.6-.7-1-1.5-1.3-2.5s-.4-2.1-.4-3.3.2-2.6.5-3.6.8-2,1.4-2.7c.6-.7,1.4-1.3,2.3-1.7.9-.4,2-.6,3.2-.6s2.2.2,3.1.6c.9.4,1.6.9,2.2,1.6.6.7,1,1.5,1.3,2.5.3,1,.4,2.1.4,3.3s-.2,2.5-.5,3.6c-.3,1.1-.8,2-1.4,2.7-.6.7-1.4,1.3-2.3,1.7-.9.4-2,.6-3.2.6ZM96.7,97.3c-1,0-1.7.5-2.2,1.6-.5,1.1-.8,2.8-.8,5.2s.2,4,.7,5.1,1.2,1.5,2.2,1.5,1.7-.5,2.2-1.6c.5-1.1.8-2.8.8-5.2s-.2-4-.7-5c-.5-1-1.2-1.5-2.2-1.5Z"/>
      <path class="st1" d="M118.2,107.4c0,.6-.1,1.1-.3,1.7s-.6,1.1-1,1.6c-.5.5-1.1.8-1.9,1.1-.8.3-1.7.4-2.8.4s-2-.1-3-.4c-.9-.2-1.7-.5-2.4-.8,0-.4,0-.8,0-1.2,0-.4,0-.8,0-1.2,0-.4,0-.8.1-1.1,0-.4,0-.7.1-1h2.2l.4,2.6c0,.2,0,.3.1.4s.2.2.3.4c.2.2.5.4.9.5.4.2.8.3,1.3.3.7,0,1.2-.2,1.6-.6.4-.4.6-.9.6-1.5s0-.8-.3-1.1c-.2-.3-.4-.6-.7-.9-.3-.3-.7-.5-1.1-.8-.4-.2-.9-.5-1.3-.7-.5-.3-1-.6-1.5-.8-.5-.3-.9-.6-1.3-1-.4-.4-.7-.8-.9-1.3-.2-.5-.3-1.1-.3-1.7s.1-1.3.4-1.9c.2-.6.6-1.1,1.1-1.5s1.1-.7,1.8-1c.7-.2,1.6-.4,2.5-.4s1.6,0,2.5.2,1.5.4,2.2.6c0,.7,0,1.4,0,2.1,0,.7-.1,1.4-.2,2.1h-2.1l-.4-2.3c0-.2,0-.4-.2-.5s-.2-.2-.3-.3c-.2-.1-.4-.2-.7-.3s-.6-.1-.9-.1c-.6,0-1.1.2-1.4.5s-.5.8-.5,1.3,0,.7.2,1c.2.3.4.6.7.8.3.2.6.5,1.1.7s.9.5,1.4.8c.6.3,1.1.6,1.7.9.5.3,1,.7,1.4,1.1.4.4.7.8.9,1.3.2.5.3,1.1.3,1.7Z"/>
    </g>
    <g class="st3">
      <path class="st1" d="M138.6,107.4c0,.6-.1,1.1-.3,1.7s-.6,1.1-1,1.6c-.5.5-1.1.8-1.9,1.1-.8.3-1.7.4-2.8.4s-2-.1-3-.4c-.9-.2-1.7-.5-2.4-.8,0-.4,0-.8,0-1.2,0-.4,0-.8,0-1.2,0-.4,0-.8.1-1.1,0-.4,0-.7.1-1h2.2l.4,2.6c0,.2,0,.3.1.4s.2.2.3.4c.2.2.5.4.9.5.4.2.8.3,1.3.3.7,0,1.2-.2,1.6-.6.4-.4.6-.9.6-1.5s0-.8-.3-1.1c-.2-.3-.4-.6-.7-.9-.3-.3-.7-.5-1.1-.8-.4-.2-.9-.5-1.3-.7-.5-.3-1-.6-1.5-.8-.5-.3-.9-.6-1.3-1-.4-.4-.7-.8-.9-1.3-.2-.5-.3-1.1-.3-1.7s.1-1.3.4-1.9c.2-.6.6-1.1,1.1-1.5s1.1-.7,1.8-1c.7-.2,1.6-.4,2.5-.4s1.6,0,2.5.2,1.5.4,2.2.6c0,.7,0,1.4,0,2.1,0,.7-.1,1.4-.2,2.1h-2.1l-.4-2.3c0-.2,0-.4-.2-.5s-.2-.2-.3-.3c-.2-.1-.4-.2-.7-.3s-.6-.1-.9-.1c-.6,0-1.1.2-1.4.5s-.5.8-.5,1.3,0,.7.2,1c.2.3.4.6.7.8.3.2.6.5,1.1.7s.9.5,1.4.8c.6.3,1.1.6,1.7.9.5.3,1,.7,1.4,1.1.4.4.7.8.9,1.3.2.5.3,1.1.3,1.7Z"/>
    </g>
    <g class="st3">
      <path class="st1" d="M145.8,110.5v1.5h-5.9v-1.5l1.4-.3c.1,0,.2,0,.3-.2,0,0,.2-.2.2-.3l4.6-13.6h3.6l4.7,13.6c0,.1.1.2.2.3,0,0,.2.1.3.2l1.3.3v1.5h-7.6v-1.5l1.9-.3-.9-2.9h-5.2l-.9,2.9,1.9.3ZM149.4,105.5l-2.1-6.7-2,6.7h4.1Z"/>
    </g>
    <g class="st3">
      <path class="st1" d="M165.8,112.1c-.4,0-.7,0-1,0s-.6,0-.9,0c-.3,0-.5,0-.8,0-.3,0-.6,0-.9,0h-4v-1.5l1.6-.3c.1,0,.2,0,.3-.2,0,0,.1-.2.1-.3v-11.3c0-.1,0-.2-.1-.3,0,0-.2-.1-.3-.2l-1.6-.3v-1.5h4c.7,0,1.3,0,1.8,0,.6,0,1.2,0,1.9,0,1.1,0,2,0,2.8.2.7.2,1.3.4,1.7.7.4.3.7.7.9,1.2s.3,1,.3,1.6c0,1-.3,1.9-.8,2.5-.5.6-1.2,1.1-2.1,1.3.6,0,1.1.1,1.6.3s.9.4,1.2.7c.3.3.6.7.8,1.1.2.5.3,1,.3,1.6s-.1,1.3-.3,1.9c-.2.6-.6,1.1-1.1,1.5s-1.2.8-2.1,1c-.9.2-2,.4-3.3.4ZM165.6,102.9c.7,0,1.3-.3,1.6-.8.3-.5.5-1.2.5-2.2s-.2-1.6-.6-2c-.4-.4-1-.6-1.8-.6s-.1,0-.3,0c-.1,0-.3,0-.4,0-.1,0-.3,0-.4,0-.1,0-.2,0-.3,0v5.5c.3,0,.6,0,.9,0,.3,0,.5,0,.7,0ZM165.6,110.6c1,0,1.7-.3,2.1-.9.4-.6.6-1.4.6-2.4s-.2-1.7-.7-2.1c-.4-.4-1.1-.6-1.9-.6s-.5,0-.8,0c-.3,0-.6,0-.9,0v5.8c.2,0,.4,0,.7,0,.3,0,.6,0,.8,0Z"/>
    </g>
    <g class="st3">
      <path class="st1" d="M183,110.5v1.5h-8v-1.5l1.6-.3c.1,0,.3,0,.4-.2,0,0,.1-.2.1-.4v-11.2c0-.2,0-.3-.1-.4s-.2-.2-.3-.2l-1.6-.3v-1.5h3.9c.6,0,1.2,0,1.7,0,.5,0,1.2,0,1.9,0,2.3,0,3.9.3,4.9,1,1,.7,1.5,1.7,1.5,3.3s0,1.4-.3,1.9c-.2.5-.5.9-.8,1.3-.3.3-.7.6-1.1.8-.4.2-.8.3-1.2.5.5.2,1,.5,1.4.9.4.4.7.9,1,1.6l1.1,2.5c.1.2.2.4.3.5s.2.2.4.2l1,.3v1.5h-4.4c-.3,0-.6-.2-.8-.6-.2-.4-.5-.9-.7-1.5l-1-2.7c-.2-.5-.4-.9-.5-1.2s-.4-.6-.6-.8h-1.8v4.5c0,.2,0,.3.1.4s.2.2.4.2l1.6.3ZM180.9,97.5v6.3c.3,0,.6,0,.9,0h.7c.7,0,1.2-.3,1.7-.8.5-.5.7-1.4.7-2.6s-.2-1.9-.7-2.3c-.4-.5-1.1-.7-2-.7s-.5,0-.7,0c-.2,0-.4,0-.6,0Z"/>
    </g>
    <g class="st3">
      <path class="st1" d="M199.5,112.3c-1.2,0-2.2-.2-3.1-.6-.9-.4-1.6-.9-2.2-1.6-.6-.7-1-1.5-1.3-2.5-.3-1-.4-2.1-.4-3.3s.2-2.6.5-3.6c.3-1.1.8-2,1.4-2.7.6-.7,1.4-1.3,2.3-1.7s2-.6,3.2-.6,2.2.2,3.1.6c.9.4,1.6.9,2.2,1.6.6.7,1,1.5,1.3,2.5.3,1,.4,2.1.4,3.3s-.2,2.5-.5,3.6c-.3,1.1-.8,2-1.4,2.7-.6.7-1.4,1.3-2.3,1.7-.9.4-2,.6-3.2.6ZM199.8,97.3c-1,0-1.7.5-2.2,1.6s-.8,2.8-.8,5.2.2,4,.7,5.1c.5,1,1.2,1.5,2.2,1.5s1.7-.5,2.2-1.6.8-2.8.8-5.2-.2-4-.7-5c-.5-1-1.2-1.5-2.2-1.5Z"/>
      <path class="st1" d="M221.3,107.4c0,.6-.1,1.1-.3,1.7s-.6,1.1-1,1.6c-.5.5-1.1.8-1.9,1.1-.8.3-1.7.4-2.8.4s-2-.1-3-.4c-.9-.2-1.7-.5-2.4-.8,0-.4,0-.8,0-1.2s0-.8,0-1.2c0-.4,0-.8.1-1.1,0-.4,0-.7.1-1h2.2l.4,2.6c0,.2,0,.3.1.4,0,.1.2.2.3.4.2.2.5.4.9.5.4.2.8.3,1.3.3.7,0,1.2-.2,1.6-.6.4-.4.6-.9.6-1.5s0-.8-.3-1.1c-.2-.3-.4-.6-.7-.9-.3-.3-.7-.5-1.1-.8-.4-.2-.9-.5-1.3-.7-.5-.3-1-.6-1.5-.8s-.9-.6-1.3-1c-.4-.4-.7-.8-.9-1.3-.2-.5-.3-1.1-.3-1.7s.1-1.3.4-1.9c.2-.6.6-1.1,1.1-1.5.5-.4,1.1-.7,1.8-1,.7-.2,1.6-.4,2.5-.4s1.6,0,2.5.2,1.5.4,2.2.6c0,.7,0,1.4,0,2.1,0,.7-.1,1.4-.2,2.1h-2.1l-.4-2.3c0-.2,0-.4-.2-.5s-.2-.2-.3-.3c-.2-.1-.4-.2-.7-.3s-.6-.1-.9-.1c-.6,0-1.1.2-1.4.5-.3.3-.5.8-.5,1.3s0,.7.2,1c.2.3.4.6.7.8.3.2.6.5,1.1.7.4.2.9.5,1.4.8.6.3,1.1.6,1.7.9s1,.7,1.4,1.1c.4.4.7.8.9,1.3.2.5.3,1.1.3,1.7Z"/>
      <path class="st1" d="M233.6,96h6.1v1.5l-1.1.3c-.1,0-.3.1-.3.2s-.1.2-.1.4v7.6c0,1.1-.1,2.1-.4,2.8s-.7,1.4-1.3,1.9c-.5.5-1.2.8-2,1.1-.8.2-1.6.3-2.6.3-2.2,0-3.9-.5-4.9-1.5-1.1-1-1.6-2.6-1.6-4.8v-7.5c0-.1,0-.3-.1-.4,0,0-.2-.2-.3-.2l-1-.3v-1.5h7.5v1.5l-1.6.3c-.1,0-.3,0-.3.2,0,.1-.1.2-.1.4v7.8c0,1.4.2,2.5.7,3.3.5.8,1.3,1.2,2.5,1.2s1.1-.1,1.6-.3c.4-.2.8-.5,1-.9.3-.4.4-.9.5-1.4.1-.5.2-1.1.2-1.8v-7.8c0-.2,0-.3-.1-.4s-.2-.2-.3-.2l-1.7-.3v-1.5Z"/>
      <path class="st1" d="M250.2,110.5v1.5h-8v-1.5l1.6-.3c.1,0,.3,0,.4-.2,0,0,.1-.2.1-.4v-11.2c0-.2,0-.3-.1-.4,0,0-.2-.2-.3-.2l-1.6-.3v-1.5h3.9c.6,0,1.2,0,1.7,0,.5,0,1.2,0,1.9,0,2.3,0,3.9.3,4.9,1s1.5,1.7,1.5,3.3-.1,1.4-.3,1.9c-.2.5-.5.9-.8,1.3-.3.3-.7.6-1.1.8-.4.2-.8.3-1.2.5.5.2,1,.5,1.4.9.4.4.7.9,1,1.6l1.1,2.5c.1.2.2.4.3.5.1,0,.2.2.4.2l1,.3v1.5h-4.4c-.3,0-.6-.2-.8-.6-.2-.4-.5-.9-.7-1.5l-1-2.7c-.2-.5-.4-.9-.5-1.2s-.4-.6-.6-.8h-1.8v4.5c0,.2,0,.3.1.4,0,0,.2.2.4.2l1.6.3ZM248.2,97.5v6.3c.3,0,.6,0,.9,0h.7c.7,0,1.2-.3,1.7-.8.5-.5.7-1.4.7-2.6s-.2-1.9-.7-2.3-1.1-.7-2-.7-.5,0-.7,0c-.2,0-.4,0-.6,0Z"/>
    </g>
    <g class="st3">
      <path class="st1" d="M264.9,110.5v1.5h-5.9v-1.5l1.4-.3c.1,0,.2,0,.3-.2s.2-.2.2-.3l4.6-13.6h3.6l4.7,13.6c0,.1.1.2.2.3,0,0,.2.1.3.2l1.3.3v1.5h-7.6v-1.5l1.9-.3-.9-2.9h-5.2l-.9,2.9,1.9.3ZM268.5,105.5l-2.1-6.7-2,6.7h4.1Z"/>
    </g>
  </g>
  <g>
    <path class="st2" d="M155.8,232.1c2.8,0,4.2,0,6.9,0v2.5c-.5.2-.8.3-1.3.5-.2,0-.3.2-.4.4,0,.2-.1.4-.1.6,0,5.1,0,7.6,0,12.7,0,1.9-.2,3.5-.5,4.8-.3,1.4-.8,2.5-1.4,3.5s-1.4,1.7-2.2,2.3-1.9,1-2.9,1.2c-2.5.6-4.4.2-5.6-1.4s-1.9-4.4-1.9-8.6v-14c0-.3,0-.5-.1-.7,0-.2-.2-.3-.4-.4-.5-.2-.7-.3-1.2-.5v-2.9c3.4,0,5.2,0,8.6,0v2.7c-.7.3-1.1.4-1.8.7-.2,0-.3.2-.4.4s-.1.4-.1.7c0,5.6,0,8.4,0,14,0,2.5.3,4.4.8,5.7.5,1.3,1.5,1.8,2.8,1.5.7-.1,1.3-.5,1.8-.9s.9-1.1,1.1-1.8.5-1.6.6-2.5c.1-.9.2-2,.2-3.1,0-5.3,0-8,0-13.3,0-.3,0-.5-.1-.6,0-.2-.2-.3-.4-.3-.8-.2-1.1-.3-1.9-.5v-2.7h0Z"/>
    <path class="st2" d="M172.1,254.4v2.3c-3,.5-4.4.7-7.4,1.3v-2.4c.7-.3,1.1-.5,1.8-.8.2,0,.3-.2.4-.4s.1-.4.1-.6c0-7.1,0-10.7,0-17.8,0-.2,0-.4-.1-.6,0-.2-.2-.3-.4-.3-.7-.2-1.1-.3-1.8-.4v-2.5c2.8,0,4.1,0,6.9,0,3,6.7,4.5,9.9,7.6,16.1,0-5,0-7.5,0-12.5,0-.2,0-.4-.1-.6,0-.1-.2-.2-.4-.3-.8-.2-1.2-.2-1.9-.4v-2.3c2.9,0,4.3,0,7.1,0v2.2c-.7.2-1,.3-1.7.5-.2,0-.3.1-.4.3,0,.1-.1.3-.1.6,0,7.9,0,11.8,0,19.7-1.6.2-2.4.3-4,.5-3.2-6.6-4.9-10-8.1-17.2,0,5.9,0,8.9,0,14.8,0,.2,0,.4.1.6s.2.2.4.2c.8,0,1.3,0,2.1.1h0Z"/>
    <path class="st2" d="M201.8,251.5v2c-4.1.2-6.1.4-10.1.7v-2.1c.7-.2,1.1-.3,1.9-.6.1,0,.3-.1.4-.3s.1-.3.1-.5c0-6.2,0-9.4,0-15.6,0-.2,0-.3-.1-.4,0-.1-.2-.2-.3-.2-.8-.2-1.1-.3-1.9-.4v-2.1h4.6c.5,0,1.1,0,1.7,0s1.4,0,2.3,0c1.3,0,2.4.1,3.3.4s1.6.7,2.1,1.2c.5.5.9,1.2,1.1,2,.2.8.3,1.7.3,2.7,0,2.4-.6,4.2-1.8,5.6s-3,2.1-5.4,2.2c-.3,0-.5,0-.8,0-.3,0-.5,0-.7,0,0,1.9,0,2.8,0,4.6,0,.2,0,.3.1.4.1.1.2.2.4.2,1.1.1,1.7.2,2.9.3h0ZM199.8,244c.4,0,.8-.1,1.1-.3s.6-.5.9-.9c.2-.4.4-1,.6-1.7.1-.7.2-1.6.2-2.7,0-1.6-.2-2.7-.7-3.4-.5-.7-1.2-1.1-2.1-1.1s-.7,0-.9,0c-.2,0-.3,0-.5.1,0,4,0,5.9,0,9.9.2,0,.4,0,.6,0,.2,0,.5,0,.8,0h0Z"/>
    <path class="st2" d="M216.6,253.6c-1.4,0-2.6-.2-3.5-.7-1-.5-1.8-1.2-2.5-2.1-.6-.9-1.1-2-1.4-3.3s-.5-2.8-.5-4.4.2-3.4.6-4.9c.4-1.4.9-2.6,1.6-3.6.7-1,1.6-1.7,2.7-2.2,1.1-.5,2.3-.8,3.7-.8s2.5.2,3.5.8,1.8,1.2,2.5,2.1,1.1,2.1,1.4,3.4c.3,1.3.5,2.8.5,4.5s-.2,3.4-.5,4.8-.9,2.6-1.6,3.6-1.6,1.7-2.7,2.2c-1.1.5-2.3.8-3.7.7h0ZM217,233.7c-1.1,0-2,.7-2.6,2.1s-.9,3.7-.9,6.9.3,5.4.8,6.7,1.4,2,2.5,2,2-.7,2.6-2.1.9-3.7.9-7-.3-5.4-.8-6.7c-.6-1.4-1.4-2-2.5-2h0Z"/>
    <path class="st2" d="M241,238.1c-.8,0-1.2,0-2.1,0-.2-1.1-.4-1.6-.6-2.6,0-.2-.1-.4-.3-.6s-.3-.3-.4-.3c-.2-.1-.5-.2-.8-.2-.4,0-.7,0-1.1,0-.8,0-1.2,0-2,0,0,2.9,0,4.4,0,7.3,2,0,3,0,5,0v2.9c-2-.1-3-.2-5-.4,0,3,0,4.5,0,7.5,1,0,1.5,0,2.4.1.4,0,.8,0,1.2,0,.4,0,.7,0,.9-.2.2,0,.3-.2.4-.3s.2-.3.2-.6c.4-1.4.6-2.1,1-3.4.8.2,1.2.3,2.1.5,0,1.1,0,2.2,0,3.3,0,1.1-.2,2.2-.3,3.3-5.8-.5-8.8-.7-14.6-.9v-2c.7-.1,1.1-.2,1.8-.3.2,0,.3-.1.4-.2s.1-.3.1-.5c0-6,0-9,0-15,0-.2,0-.4-.1-.5,0-.1-.2-.2-.4-.3-.7-.2-1.1-.2-1.8-.4v-2.1c5.6,0,8.4,0,13.9,0,.1,1,.2,2,.2,3s0,2,0,3.1h0Z"/>
    <path class="st2" d="M250.6,253.1v2.1c-2.9-.4-4.4-.5-7.2-.8v-2.1c.7-.1,1.1-.2,1.8-.3.2,0,.3-.1.4-.2s.1-.3.2-.5c.6-6.3.9-9.4,1.5-15.8,0-.2,0-.4-.1-.6,0-.2-.2-.3-.4-.3-.8-.2-1.2-.3-2-.5v-2.2c3.4,0,5.1,0,8.4,0,1.3,6.3,1.9,9.4,3.2,15.9,1.1-6.2,1.7-9.4,2.8-15.9,3.4,0,5.1,0,8.5,0v2.5c-.8.2-1.3.3-2.1.4-.2,0-.3.1-.4.3,0,.2-.1.4,0,.6.8,7.1,1.2,10.7,1.9,17.9,0,.2,0,.4.2.6s.2.3.4.4c.7.3,1,.5,1.7.8v2.4c-3.5-.7-5.2-1-8.7-1.5v-2.3c.8,0,1.2-.1,2.1-.2-.8-7.4-1.1-11.1-1.9-18.4-1.4,7.9-2,11.8-3.4,19.4-1.4-.2-2.1-.3-3.5-.5-1.7-7.8-2.5-11.6-4.2-19.1-.6,6.7-.9,10.1-1.4,16.7,1,.3,1.5.4,2.6.7h0Z"/>
    <path class="st2" d="M276.1,257v2.5c-2.7-.6-4-.9-6.8-1.4v-2.4c.6-.1.9-.2,1.6-.3.1,0,.3-.1.4-.2s.2-.3.2-.5c2.1-8.7,3.1-13.2,5.2-22.7,1.6,0,2.5,0,4.1,0,2.1,9.8,3.2,14.9,5.3,25.5,0,.3.1.5.2.6.1.2.2.3.4.4.6.4.9.6,1.4,1v2.8c-3.5-.9-5.2-1.3-8.7-2.1v-2.6c.9,0,1.3,0,2.2-.1-.4-2.1-.6-3.2-1-5.3-2.4-.4-3.5-.6-5.9-.9-.4,1.9-.6,2.8-1,4.7.9.4,1.3.6,2.2,1h0ZM280.1,249c-1-4.9-1.4-7.3-2.4-12-.9,4.6-1.4,6.9-2.3,11.4,1.9.2,2.8.4,4.7.6h0Z"/>
  </g>
  <g>
    <path class="st2" d="M163.8,276.7c4.7.7,7,1,11.7,1.5v1.8c-.9,0-1.3,0-2.1.1-.3,0-.5,0-.6.2s-.2.2-.2.4c0,3.6,0,5.4,0,9,0,1.3-.3,2.4-.8,3.4s-1.4,1.7-2.4,2.2c-1,.6-2.3,1-3.8,1.3-1.5.3-3.1.4-5,.4-4.2,0-7.4-.6-9.5-2s-3.1-3.7-3.1-6.9v-10.6c0-.2,0-.4-.2-.6s-.4-.3-.6-.4c-.8-.3-1.2-.5-1.9-.8v-2.2c5.8,1.1,8.6,1.6,14.4,2.6v2h-3.1c-.3,0-.5,0-.7.2-.2.1-.2.3-.2.5,0,4.1,0,6.2,0,10.4,0,1.9.5,3.3,1.4,4.4.9,1.1,2.5,1.6,4.8,1.6,1.2,0,2.2-.1,3-.4.8-.3,1.4-.6,1.9-1.1s.8-1,1-1.7c.2-.7.3-1.4.3-2.2,0-3.8,0-5.7,0-9.5,0-.2,0-.4-.2-.5-.2-.1-.4-.2-.7-.3-1.3-.3-1.9-.5-3.2-.8v-1.9h0ZM168.8,273.1c-.7.2-1.5.4-2.5.5-1,.1-2,.2-3.1.3-1.1,0-2.2.1-3.3.2-1.1,0-2.2,0-3.1,0-.5-.8-.7-1.1-1.2-1.9,4.1-1,6.2-1.5,10.3-2.5,1.2,1.4,1.8,2,3,3.3h0Z"/>
    <path class="st2" d="M191.4,295.2v1.6c-5,0-7.5,0-12.5,0v-1.7c1.2-.1,1.8-.2,3.1-.3.3,0,.5,0,.7-.2.1-.1.2-.2.2-.4,0-5,0-7.5,0-12.5,0-.2,0-.3-.2-.5-.1-.1-.4-.2-.7-.3-1.2-.2-1.8-.4-3.1-.6v-1.8c4.6.5,6.9.7,11.6,1,5.1,5,7.7,7.4,12.8,11.9,0-3.5,0-5.2,0-8.7,0-.2,0-.3-.2-.4-.2-.1-.4-.2-.7-.2-1.3-.2-1.9-.3-3.2-.5v-1.6c4.8.2,7.2.3,12,.4v1.6c-1.1.1-1.7.2-2.8.3-.3,0-.5,0-.7.2-.1.1-.2.2-.2.4,0,5.5,0,8.3,0,13.9h-6.7c-5.5-4.9-8.2-7.4-13.8-12.9,0,4.1,0,6.2,0,10.3,0,.2,0,.3.2.4s.4.2.7.2c1.4.1,2.1.2,3.6.4h0Z"/>
    <path class="st2" d="M229.5,280.3v1.6c-1.2.2-1.8.2-3.1.4-.3,0-.5.1-.7.2s-.2.2-.2.4c0,4.6,0,6.9,0,11.4,0,.2,0,.3.2.4s.4.2.7.2l3.1.3v1.5h-15.3v-1.5l3.1-.3c.3,0,.5,0,.7-.2s.2-.2.2-.4v-11.4c0-.2,0-.3-.2-.4s-.4-.2-.7-.2c-1.2-.1-1.8-.2-3.1-.3v-1.6c6.1,0,9.2,0,15.4-.2h0Z"/>
    <path class="st2" d="M246.6,297.1c-4.7,0-8.2-.7-10.5-2.2-2.3-1.4-3.5-3.5-3.5-6.1s.4-2.9,1.1-4,1.8-2.1,3.1-2.9c1.3-.8,2.9-1.5,4.8-2,1.9-.5,3.9-.8,6.2-1,1.6-.1,3.2-.2,4.9-.2s3.2,0,4.7.2c0,.8.1,1.6,0,2.5,0,.9-.2,1.9-.5,2.9-1.7.1-2.6.2-4.4.3-.5-1.2-.7-1.8-1.1-2.9,0-.1-.1-.3-.3-.4s-.4-.3-.7-.4c-.4-.1-.8-.2-1.4-.2s-1.1,0-1.8,0c-2,.1-3.5.8-4.6,2s-1.6,3-1.7,5.6c0,2.4.5,4.2,1.5,5.4s2.6,1.8,4.8,1.8c.6,0,1.3,0,1.9-.2s1.1-.3,1.5-.5c.2,0,.3-.2.5-.3.1-.1.3-.3.4-.6.6-1.1.8-1.6,1.4-2.7,1.7,0,2.6,0,4.3,0,0,.7,0,1.5,0,2.3,0,.8,0,2.3-.4,2.6-.2.2-1.5.3-2.3.4s-1.7.2-2.6.3-1.8.2-2.8.2c-.9,0-1.8,0-2.7,0h0Z"/>
    <path class="st2" d="M274.4,297.1c-2.3,0-4.3-.2-6-.7-1.7-.5-3-1.1-4.1-1.9-1.1-.8-1.9-1.8-2.4-3-.5-1.2-.8-2.5-.8-3.9s.3-3,.9-4.4c.6-1.3,1.5-2.5,2.7-3.5,1.2-1,2.7-1.9,4.5-2.6,1.8-.7,3.8-1.3,6.2-1.7,2.3-.4,4.3-.5,5.9-.3s3,.7,4.1,1.5c1.1.8,1.9,1.9,2.4,3.2.5,1.4.8,3,.8,4.7s-.3,3.7-.9,5.3c-.6,1.6-1.5,2.9-2.7,4-1.2,1.1-2.7,1.9-4.5,2.4-1.8.5-3.9.8-6.2.8h0ZM275,277.6c-1.9.3-3.3,1.2-4.3,2.6s-1.5,3.7-1.5,6.7c0,2.9.5,5,1.4,6.3.9,1.3,2.3,1.9,4.2,1.9,1.9,0,3.3-.8,4.3-2.2,1-1.5,1.5-3.9,1.5-7.2s-.5-5.4-1.4-6.7c-.9-1.2-2.3-1.7-4.2-1.4h0Z"/>
  </g>
  <g class="st3">
    <g class="st3">
      <path class="st1" d="M140.7,176.9h-10l-.7-1.9c1.2-1,2.2-1.9,3-2.6.8-.7,1.5-1.4,2-2,.5-.6.9-1.1,1.1-1.6.2-.5.4-1,.4-1.4,0-.7-.2-1.2-.6-1.6-.4-.4-.9-.5-1.5-.5s-1,.1-1.5.4c-.5.3-.9.7-1.3,1.3l-1.1-1c.2-.5.5-.9.8-1.3.3-.4.7-.8,1.1-1.1.4-.3.9-.5,1.5-.7.6-.2,1.2-.3,1.8-.3s1.3,0,1.8.3c.6.2,1.1.5,1.5.8.4.4.7.8,1,1.3.2.5.4,1.1.4,1.8s-.1,1.3-.4,1.9c-.3.6-.7,1.2-1.3,1.9-.6.6-1.3,1.3-2.2,1.9-.9.7-2,1.4-3.3,2.1h2.3c.4,0,.8,0,1.2,0s.7,0,.9-.1c.2,0,.3-.1.4-.2.1,0,.2-.2.3-.3l.9-2,1.9.2c0,.4,0,.8,0,1.2,0,.4,0,.8,0,1.3,0,.4,0,.8-.1,1.2s-.1.8-.2,1.1Z"/>
      <path class="st1" d="M149,177.2c-1.1,0-2-.2-2.7-.5s-1.3-.9-1.8-1.5c-.5-.6-.8-1.4-1-2.3-.2-.9-.3-1.8-.3-2.9s.2-2.4.5-3.4c.3-.9.7-1.7,1.3-2.3.5-.6,1.2-1.1,2-1.4.8-.3,1.6-.4,2.5-.4s2,.2,2.7.5c.7.4,1.3.8,1.8,1.5.5.6.8,1.4,1,2.3.2.9.3,1.8.3,2.9s-.2,2.4-.5,3.4-.7,1.7-1.3,2.3c-.5.6-1.2,1.1-2,1.4-.8.3-1.6.4-2.5.4ZM149.2,164.1c-.6,0-1.1.4-1.4,1.2-.3.8-.5,2.1-.5,4.1s.2,3.9.5,4.8.8,1.4,1.5,1.4,1.1-.4,1.4-1.2c.3-.8.5-2.2.5-4.1s-.2-3.9-.5-4.8c-.3-.9-.8-1.4-1.5-1.4Z"/>
      <path class="st1" d="M167.7,176.9h-10l-.7-1.9c1.2-1,2.2-1.9,3-2.6.8-.7,1.5-1.4,2-2,.5-.6.9-1.1,1.1-1.6.2-.5.4-1,.4-1.4,0-.7-.2-1.2-.6-1.6s-.9-.5-1.5-.5-1,.1-1.5.4c-.5.3-.9.7-1.3,1.3l-1.1-1c.2-.5.5-.9.8-1.3s.7-.8,1.1-1.1c.4-.3.9-.5,1.5-.7.6-.2,1.2-.3,1.8-.3s1.3,0,1.8.3c.6.2,1.1.5,1.5.8.4.4.7.8,1,1.3.2.5.4,1.1.4,1.8s-.1,1.3-.4,1.9c-.3.6-.7,1.2-1.3,1.9-.6.6-1.3,1.3-2.2,1.9-.9.7-2,1.4-3.3,2.1h2.3c.4,0,.8,0,1.2,0,.4,0,.7,0,.9-.1.2,0,.3-.1.4-.2.1,0,.2-.2.3-.3l.9-2,1.9.2c0,.4,0,.8,0,1.2s0,.8,0,1.3c0,.4,0,.8-.1,1.2s-.1.8-.2,1.1Z"/>
      <path class="st1" d="M181.5,172.1c0,.7-.1,1.4-.4,2-.3.6-.6,1.2-1.1,1.6-.5.5-1,.8-1.7,1.1-.7.3-1.5.4-2.3.4s-1.7-.1-2.4-.4c-.7-.3-1.3-.7-1.8-1.2-.5-.5-.9-1.2-1.2-2s-.4-1.7-.4-2.8.2-2.3.6-3.4c.4-1,.9-1.9,1.5-2.6.7-.7,1.4-1.3,2.3-1.7.9-.4,1.9-.6,2.9-.6s1.1,0,1.7.2,1.1.3,1.5.6l-.5,1.5c-.3-.1-.6-.2-.9-.2s-.6,0-.8,0c-1.1,0-2.1.4-2.9,1.1-.8.8-1.3,1.8-1.5,3.3.3-.3.8-.6,1.4-.9.6-.2,1.2-.4,1.9-.4s1.2.1,1.7.3.9.5,1.3.9c.4.4.6.8.8,1.4.2.5.3,1.1.3,1.8ZM176.1,175.6c.5,0,.9-.2,1.3-.7s.5-1.2.5-2.2-.2-1.7-.6-2.2c-.4-.5-.9-.7-1.5-.7s-.6,0-.9.1c-.4,0-.7.2-.9.4v.9c0,1.5.2,2.6.6,3.3.4.8.9,1.1,1.5,1.1Z"/>
    </g>
  </g>
  <g class="st3">
    <g class="st3">
      <path class="st1" d="M201,263h-1.6l-.5-1.6c0-.2-.1-.3-.2-.4,0,0-.2-.2-.3-.2-.1,0-.4-.1-.6-.1-.3,0-.5,0-.8,0h-1.5v4.6h3.8c0-.1,0,1.6,0,1.6h-3.8c0,0,0,4.6,0,4.6h1.8c.3,0,.6,0,.9,0,.3,0,.5,0,.7-.1.1,0,.2-.1.3-.2,0,0,.1-.2.2-.4l.8-2.2,1.5.2c0,.7,0,1.4,0,2s-.1,1.3-.2,2.1h-10.9v-1.3l1.4-.3c.1,0,.2,0,.3-.2,0,0,0-.2,0-.3v-9.6c0-.1,0-.2,0-.3,0,0-.2-.1-.3-.2l-1.4-.3v-1.3h10.5c0,.6.1,1.2.1,1.8,0,.6,0,1.2,0,1.9Z"/>
      <path class="st1" d="M210,271.7v1.2h-6.8v-1.3l1.4-.3c.1,0,.2,0,.3-.2,0,0,.1-.2.1-.3v-9.6c0-.1,0-.2-.1-.3,0,0-.2-.1-.3-.2l-1.4-.3v-1.3h3.3c.5,0,1,0,1.5,0,.5,0,1,0,1.6,0,2,0,3.4.3,4.2.8.9.6,1.3,1.5,1.3,2.8s0,1.2-.3,1.6c-.2.4-.4.8-.7,1.1-.3.3-.6.5-.9.7s-.7.3-1,.4c.5.2.9.5,1.2.8.3.3.6.8.9,1.4l.9,2.1c0,.2.2.3.3.4s.2.1.4.2l.8.2v1.2h-3.7c-.3,0-.5-.2-.7-.5-.2-.3-.4-.8-.6-1.3l-.9-2.3c-.2-.4-.3-.7-.5-1-.2-.3-.3-.5-.5-.7h-1.5v3.8c0,.1,0,.2.1.3,0,0,.2.1.3.2l1.4.2ZM208.2,260.5v5.4c.2,0,.5,0,.8,0h.6c.6,0,1-.2,1.4-.7s.6-1.2.6-2.2-.2-1.6-.6-2c-.4-.4-.9-.6-1.7-.6s-.4,0-.6,0c-.2,0-.4,0-.5,0Z"/>
      <path class="st1" d="M228.2,263h-1.6l-.5-1.6c0-.2-.1-.3-.2-.4,0,0-.2-.2-.3-.2-.1,0-.4-.1-.6-.1-.3,0-.5,0-.8,0h-1.5v4.6h3.8c0-.1,0,1.6,0,1.6h-3.8c0,0,0,4.6,0,4.6h1.8c.3,0,.6,0,.9,0,.3,0,.5,0,.7-.1.1,0,.2-.1.3-.2,0,0,.1-.2.2-.4l.8-2.2,1.5.2c0,.7,0,1.4,0,2s-.1,1.3-.2,2.1h-10.9v-1.3l1.4-.3c.1,0,.2,0,.3-.2,0,0,0-.2,0-.3v-9.6c0-.1,0-.2,0-.3,0,0-.2-.1-.3-.2l-1.4-.3v-1.3h10.5c0,.6.1,1.2.1,1.8,0,.6,0,1.2,0,1.9Z"/>
      <path class="st1" d="M240.3,269.1c0,.5,0,1-.3,1.5-.2.5-.5.9-.9,1.3s-.9.7-1.6,1c-.7.2-1.5.4-2.4.4s-1.8-.1-2.5-.3c-.8-.2-1.5-.5-2.1-.7,0-.3,0-.6,0-1,0-.3,0-.7,0-1,0-.3,0-.7,0-1,0-.3,0-.6.1-.9h1.9l.3,2.3c0,.1,0,.3.1.4s.1.2.3.3c.2.2.4.3.8.5s.7.2,1.1.2c.6,0,1-.2,1.3-.5.3-.3.5-.7.5-1.3s0-.7-.2-1-.4-.5-.6-.8c-.3-.2-.6-.5-.9-.7-.4-.2-.7-.4-1.1-.6-.5-.2-.9-.5-1.3-.7-.4-.2-.8-.5-1.1-.8-.3-.3-.6-.7-.8-1.1-.2-.4-.3-.9-.3-1.5s.1-1.1.3-1.6c.2-.5.5-.9.9-1.3s.9-.6,1.5-.8c.6-.2,1.3-.3,2.2-.3s1.4,0,2.1.2c.7.1,1.3.3,1.8.5,0,.6,0,1.2,0,1.8,0,.6-.1,1.2-.2,1.8h-1.8l-.4-2c0-.2,0-.3-.1-.4,0-.1-.1-.2-.2-.3-.2-.1-.4-.2-.6-.3-.3,0-.5-.1-.8-.1-.5,0-.9.1-1.2.4-.3.3-.4.7-.4,1.2s0,.6.2.9c.1.2.3.5.6.7.2.2.6.4.9.6.4.2.8.4,1.2.6.5.3,1,.5,1.4.8.4.3.8.6,1.2.9.3.3.6.7.8,1.2.2.4.3.9.3,1.5Z"/>
    </g>
  </g>
  <g class="st3">
    <g class="st3">
      <path class="st2" d="M40.8,290.9v6.2h-24.6v-6.3l4.9-1.3c.5-.1.8-.4,1.1-.8.3-.4.4-.9.4-1.6v-47.9c0-.7-.1-1.2-.4-1.6-.3-.4-.6-.7-1.1-.9l-4.9-1.3v-6.6h24.6v6.6l-4.9,1.3c-.5.1-.8.4-1.1.9-.3.4-.4,1-.4,1.6v25l16.2-27.5-5.5-1.3v-6.6s19.3,0,19.3,0v6.6l-5,1.4c-.4.1-.7.3-1,.5-.3.2-.6.5-.8.9l-10.5,16.5c1.2,2,2.3,4.1,3.2,6.3.9,2.2,2,4.8,3.1,7.8l7,18c.2.6.5,1.2.8,1.7.3.6.9,1,1.6,1.2l3,1.1v6.2h-13.8c-.9,0-1.7-.8-2.5-2.4-.8-1.6-1.6-3.7-2.4-6.2l-4.1-12.2c-.7-2.2-1.3-4-1.9-5.5-.6-1.5-1.1-2.8-1.6-4l-5,8.2v12.4c0,.7.1,1.2.4,1.6.3.4.6.6,1.1.8l4.9,1.2Z"/>
      <path class="st2" d="M89,236.8v50.4c0,.7.1,1.2.4,1.6.3.4.6.7,1.1.8l6.1,1.4v6.2h-27.6v-6.2l7.5-1.5c.5,0,.9-.3,1.1-.8.3-.4.4-1,.4-1.6v-36.6c-.5.1-1.1.2-1.8.4-.7.1-1.4.3-2.2.4-.8.1-1.5.2-2.2.3-.7,0-1.4.1-2,.1l-.8-6.6c1.2-.4,2.5-1,3.9-1.7s2.7-1.5,4-2.4c1.3-.9,2.5-1.8,3.6-2.8,1.1-1,2.1-1.9,2.8-2.8l5.7,1.3Z"/>
      <path class="st2" d="M136,286.7h-6.7v10.5h-10.4v-10.5h-18.9l-2.2-6.7c3-6.6,5.9-13.6,8.7-20.8,2.7-7.2,5.4-14.7,7.9-22.4h9.8l1.6,2.8c-1.8,5-3.6,9.6-5.1,13.7-1.6,4.1-3.1,7.8-4.6,11-1.5,3.2-3,6.1-4.5,8.6-1.5,2.5-3.1,4.7-4.8,6.5l12.2-.9,1.1-13.4,9.2-.7v13.3l6.7-.5v9.6Z"/>
    </g>
  </g>
  <polygon class="st1" points="226.4 174 222.4 180.5 231.7 173 231.7 173 231.7 173 231.7 173 231.7 173 222.5 165.5 226.4 172 199.7 172 197.9 168.6 192 168.6 193.4 172 190.7 172 190.7 174 193.1 174 192 176.9 197.9 176.9 199.4 174 226.4 174"/>
  <polygon class="st1" points="81.1 172.5 85 166 75.8 173.5 75.7 173.5 75.8 173.5 75.7 173.5 75.8 173.5 85 181 81.1 174.5 107.8 174.5 109.6 177.9 115.5 177.9 114.1 174.5 116.7 174.5 116.7 172.5 114.3 172.5 115.5 169.6 109.6 169.6 108.1 172.5 81.1 172.5"/>
  <circle class="st1" cx="250.7" cy="266" r="2.5"/>
  <circle class="st1" cx="180.2" cy="266.5" r="2.5"/>
  <circle class="st1" cx="285.3" cy="105.6" r="2.5"/>
  <circle class="st1" cx="24.6" cy="105.5" r="2.5"/>
  <g>
    <path class="st1" d="M166.2,56.8v-15.9c0-.4-.3-.7-.7-.7h-6.6c-.3,0-.6.2-.7.6l-3.4,17.2c-.1.7.2,1.3.8,1.7h0c.6.3.9,1,.8,1.7l-.8,3.7c0,.1-.2.1-.2,0l-.9-4c-.1-.5-.5-1-.9-1.2l-1.1-.5c-.5-.2-.9-.7-.9-1.2l-3.4-17.4c0-.3-.4-.6-.7-.6h-6.4c-.4,0-.7.3-.7.7v18.4c0,.6.4,1.2.9,1.5l.5.3c.6.3.9.8.9,1.5v6.1c0,.6-.4,1.2-.9,1.4l-.5.3c-.6.3-.9.8-.9,1.4v13.2c0,.4.3.7.7.7h3.9c.4,0,.7-.3.7-.7v-12.9c0-.6.4-1.2.9-1.4l.5-.3c.6-.3.9-.8.9-1.4v-6.7c0-.6-.4-1.2-.9-1.5l-.5-.3c-.6-.3-.9-.8-.9-1.5l-.3-8.6s0-.1.1-.2c.2,0,.2.1.2.1l1.1,8.1c0,.5.4,1,.9,1.2l1,.4c.5.2.9.7.9,1.2l1.7,7.5c.1.7-.2,1.3-.8,1.7h0c-.6.4-.9,1-.8,1.7l2.1,12.8c0,.3.3.6.7.6h1.3c.3,0,.6-.2.7-.6l2.1-12.7c0-.5.4-1,.9-1.2l1-.4c.5-.2.9-.7.9-1.2l1.8-8.4c.1-.7-.2-1.3-.8-1.7h0c-.6-.4-.9-1-.8-1.7l1.1-7.2s0-.2.2-.1.1.2.1.2l-.3,6.8c0,.6.4,1.2.9,1.5l.5.3c.6.3.9.8.9,1.5v9.1c0,.6-.4,1.2-.9,1.4l-.5.3c-.6.3-.9.8-.9,1.4v12.3c0,.4.3.7.7.7h4c.4,0,.7-.3.7-.7v-12.1c0-.6.4-1.2.9-1.4l.5-.3c.6-.3.9-.8.9-1.4v-9.7c0-.6-.4-1.2-.9-1.5l-.5-.3c-.6-.3-.9-.8-.9-1.5h0Z"/>
    <g>
      <path class="st1" d="M186,79.2c.7-1.1,1.1-2.1,1.2-3.3.1-1.1,0-2.2,0-3.3,0-.6,0-1.2,0-1.8,0-.9-.1-1.7-.4-2.6,0,0,0-.1,0-.2,1.5,2,1.9,4.3,1.7,6.7-.2,2.4-1.2,4.5-3,6.2,0,0,0,0,0,0,.4-.4.8-.8,1.2-1.3,1-1.2,1.6-2.7,1.9-4.2.2-1,.3-2,.4-2.9,0,0,0-.1,0-.2,0,0,.1-.1.2-.2,0,0,.1,0,.1.1,0,.3.1.7.1,1,0,.6-.2,1.2-.3,1.8,0,0,0,0,0,.2.2-.3.4-.6.6-.9.1-.1.3-.3.4-.3.2,0,.1.3,0,.5,0,0,0,.2,0,.2.4-.2.7-.4,1.1-.5.4-.2.8-.3,1.3-.3.2,0,.3-.1.5-.2,0,0,0,0,0,0-.2.2-.4.4-.6.6.2,0,.4,0,.6,0,.7,0,1.4,0,2.1.3.4.2.8.5.9,1,0,.4.4.6.8.5.1,0,.2,0,.3,0,0,0,0,.2-.1.3-.5.5-1.5.4-2-.3-.4-.6-.9-1.1-1.6-1.3-1-.4-2-.4-3,0-.1,0-.3.2-.4.3,0,0,0,0,0,0,0,0,0,0,.1,0,1.6-.8,2.8-.6,3.9.8.5.7.9,1.4.8,2.3,0,.4-.1.7-.4,1-.2.3-.6.3-.8,0,0-.1,0-.3,0-.4.1,0,.2,0,.3.1.1-.1.2-.3,0-.6-.2-.3-.5-.5-.8-.6-.5-.2-.7-.4-.7-.9,0-.3,0-.6,0-.9,0-.4-.3-.7-.7-.8-1-.3-2,.2-2.5,1.2-1.1,2.1-2.3,4.1-4.3,5.6-.6.5-1.3.9-2.1,1.1-.2,0-.4.1-.4-.2-.6.1-1.1.2-1.6.3-.9.2-1.8.2-2.8,0,0,0-.2,0-.2,0-.3,0-.4-.2-.1-.5-.2,0-.3-.1-.4-.2-1.9-.7-2.8-2.2-2.6-4.2,0-.6.3-1.2.5-1.9,0,0,0-.2.1-.2,0,0,0,0,0,0,0,0,0,0,.1,0v.4c0,.5-.1.9,0,1.4,0,.3.2.6.3.9,0,0,0,0,0,0,0-.3,0-.7.1-1,.2-1.1.6-2,1.6-2.4,1.2-.6,2.4-.6,3.6.1.3.2.5.5.6.8.1.4-.2.8-.6.6-.2,0-.4-.2-.6-.4-.5-.5-1.2-.6-1.9-.6-1.7.2-2.6,1.3-2.4,3.1.1,1.6,1.4,3,3,3.3,1.1.2,2.1,0,3.1-.2,0,0,0,0,0,0,0,0,0,0-.1,0-1.5.3-3,.2-4.3-.7-1.3-.9-1.8-2.4-1-3.9.4-.7,1-.9,1.8-1,.7,0,1.4.5,1.6,1.1.3.8-.3,1.7-1.3,1.8-.7,0-1.2-.2-1.3-.8,0-.4,0-.7.3-.9.2-.2.5-.2.7,0,.2.2.3.4.2.7,0,.1-.1.2-.1.3.4.2.7.1.9-.2.2-.3.2-.7,0-1-.2-.3-.6-.4-.9-.4-1.1,0-1.6.8-1.5,1.9.1,1.3,1.1,2,2.4,1.9.2,0,.4,0,.6,0,.3-.1.5-.4.4-.7,0-.3-.2-.5-.3-.8,0,0,0-.2,0-.3,0,0,.2,0,.3,0,.1,0,.2.2.3.2.6.2.9,1.1.3,1.5,0,0,0,0,0,.1.7-.1,1.3-.2,1.9-.7.4-.3.5-.7.4-1.2,0-.2-.2-.4-.3-.6,0-.2-.2-.3-.4-.2-.2,0-.5,0-.6-.3-.2-.3-.1-.7.1-.9.4-.4,1.2-.2,1.5.2.3.4.3.9.3,1.4,0,1-.4,1.7-1.3,2.1-.1,0-.2.1-.3.2.9-.2,1.8-1,2.2-1.9.3-.8.4-1.6.3-2.4,0-.9-.1-1.8.2-2.7.2-.7.2-1.3,0-2,0,0,0-.2,0-.4,0,0,.2.1.2.2.5,1.4.8,2.9.7,4.4,0,1.3-.6,2.5-1.4,3.5,0,0-.1.2-.2.2.6-.5,1-1.1,1.3-1.7.6-1.3.8-2.7.6-4.1,0-.6,0-1.1.2-1.7.2.8.4,1.4.4,2.1.1,1.1-.2,2.2-.7,3.2,0,.2-.1.3-.2.4h0c0,.1,0,.1,0,.1Z"/>
      <path class="st1" d="M188.3,67.7c-.2-.4-.4-.9-.7-1.3-.6-1-1.5-1.4-2.7-1.2-.1,0-.2,0-.4,0s0,0-.1,0c0,0,0-.1.1-.1.3,0,.4-.2.5-.5.2-.3.4-.5.8-.5,0,0-.1-.2-.1-.2-.5-.6-1.2-.8-2-.7-.1,0-.2,0-.3.1-.2.1-.2.2,0,.4.1.1.2.3.3.4,0,.1.1.2.2.3,0,0,.2-.2.3-.3,0-.2,0-.3-.2-.4,0,0-.1,0-.2,0,0,0-.1-.1-.1-.2,0,0,.1-.1.2-.1,0,0,.1,0,.2,0,.3.1.6.5.6.9,0,.3-.2.6-.6.7-.7.2-1.4-.2-1.6-.8-.2-.7.3-1.4,1-1.5.4,0,.8,0,1.1,0,0,0,.2,0,.3,0-.4-.4-.8-.7-1.2-.8-.5-.1-.9,0-1.4,0-.4,0-.7.1-1.1,0-.4,0-.7-.2-.9-.6-.1-.2-.3-.3-.6-.2-.1,0-.2.2-.2.3,0,0,0,.2,0,.2,0,.2-.2.3-.4.2-.2-.2-.3-.5,0-.8.3-.3.6-.5.9-.7,1.2-.5,2.4-.3,3.5.3,1.3.8,2.3,1.9,3.2,3.2.7,1,1.3,2.1,1.6,3.3,0,0,0,0,0,.1h0Z"/>
      <path class="st1" d="M192.6,60.9c-.5-.7-.1-1.5-.1-2.3,0,.2.1.5.3.8.2.4.4.8.6,1.2.6,1,.9,2,.7,3.2,0,0,0,0,0,.1,0,0,0,0,0,0,0,0,.1-.2.2-.2,0,0,.1-.2.1-.2h0c0,.3.1.5.1.8,0,.7-.2,1.4-.4,2.1-.5,1.2-1.1,2.4-1.9,3.5,0,0,0,0-.1,0,.1-.2.2-.4.3-.6.6-1.2.9-2.5,1-3.8,0-1.1-.2-2.1-.8-3-.5-.8-1.3-1-2.1-.7-.6.3-.9,1-.4,1.5.1.2.3.3.6.2.3,0,.6-.2.7-.5,0,0,0-.2-.1-.2-.2,0-.3-.2-.2-.5,0-.2.3-.2.5-.2.3.1.5.5.4.8-.2.8-1.4,1.3-2.1.8-.4-.2-.6-1-.5-1.5.2-.9,1.1-1.5,2.1-1.4.4,0,.7.2,1.1.2h0Z"/>
      <path class="st1" d="M184.7,55.1c0,0,0,0-.1,0-.2,0-.3.1-.2.3,0,0,.1.2.2.2.2,0,.3,0,.3-.3,0-.3-.3-.7-.7-.6-.4,0-.7.3-.9.7-.2.5-.3,1-.2,1.6.1,1.1.4,2.1,1.1,3,0,0,0,0,.2.2v-1.5s0,0,0,0c.1.2.2.4.3.6,0,0,0,.2.1.3.5.6.7,1.2.8,2,.1.6.4,1.1.9,1.6,0-.4-.1-.8.3-1.1,0,.4.2.6.4.8.2.2.3.6.3.9.2,1,.4,1.9.6,2.9,0,0,0,0,0,0-.1-.3-.3-.6-.4-1-.7-1.5-1.7-2.7-2.8-3.9-.6-.6-1.2-1.3-1.7-2-.7-1.2-1-2.5-.7-4,.1-.6.6-1.1,1.1-1.4.4-.2,1.1-.1,1.4.2.3.3.3.9,0,1.2-.3.3-.7.3-1.1,0-.2-.2-.2-.5,0-.7.2-.2.4-.2.6,0h0Z"/>
      <path class="st1" d="M191.5,47.8c.4.3.3.6.1,1,.4,0,.7,0,1,0,.9,0,1.5.5,1.6,1.2.2,1.1-.8,2.2-1.9,2-.8-.2-1.1-1.1-.6-1.8.2-.2.4-.3.6-.2,0,0,.1.2.2.2,0,0-.2,0-.3,0,0,0-.1,0-.2,0,0,0,.1.2.2.2.2,0,.4.1.5.3,0,0,.2,0,.2,0,.6-.2.8-.8.4-1.4,0,0-.2-.2-.3-.2-1-.3-1.9,0-2.6.7-1.2,1.1-1.9,2.6-2.3,4.1-.3,1.1-.4,2.2-.4,3.2,0,2,0,3.9.2,5.9,0,.7.3,1.5.4,2.2,0,0,0,.1,0,.2,0-.3-.2-.7-.2-1-.3-1.4-.5-2.8-.5-4.3,0-1.1,0-2.3,0-3.4,0-2,.4-3.9,1.3-5.7.2-.5.5-.9.8-1.3.3-.4.6-.8.9-1.2.1-.2.2-.3.4-.4.4-.1.5-.4.5-.7h0Z"/>
      <path class="st1" d="M182.1,65.4c-.4,0-.9,0-1.4,0-.6,0-1.1.3-1.6.7-.4.4-.9.6-1.5.6-.2,0-.4,0-.6.1-.1,0-.2,0-.3,0,0,0,0,0,0,0,0,0,.1-.2.2-.2.7-.2,1.2-.6,1.6-1.2-.1,0-.2,0-.3,0-.4,0-.8.2-1.2.2-1.8.3-3-1.4-2.6-3,0-.1,0-.2.2-.3,0,0,.2-.1.2,0s.1.1.1.2c0,.1,0,.2,0,.3-.1.4,0,.7.3.9.5.4,1.1.6,1.7.8,1,.3,2.1.4,3.1.4.6,0,1.2.1,1.8.2.1,0,.3,0,.3.1h0Z"/>
      <path class="st1" d="M183.1,65.9c-.8,0-1.4,0-2.1.4-1.9.8-2.1,3.6-.6,4.7.9.7,2,.7,2.7,0,.3-.3.5-.6.4-1.1,0-.3-.2-.5-.4-.6-.1,0-.2-.1-.3-.2-.2-.1-.3-.3-.2-.6,0-.2.3-.3.6-.3.7,0,1.2.8,1.2,1.5,0,1-.9,2-1.9,2.2-1.1.2-2.2-.3-2.9-1.4-.9-1.4-.6-3.1.7-4.2.8-.7,1.7-.9,2.8-.7,0,0,0,0,0,0,0,0,0,0,0,0h0Z"/>
      <path class="st1" d="M188,56.6c.1-.9.5-1.7,1.2-2.2,1.3-.9,2.9-.8,3.9.3.5.5.7,1.2.5,1.9,0,.6-.5.9-1,.8-.3,0-.5-.3-.4-.6,0,0,.1,0,.2,0,0,0,.2,0,.2,0,0,0,0-.2,0-.2-.3-.4-.2-.8-.1-1.2,0-.5-.2-.9-.7-1.1.3.4.3.8.1,1.2,0,0-.1.1-.2.2,0-.1,0-.2,0-.2,0-.4,0-.4-.4-.5-.2,0-.5-.2-.7-.3-.2,0-.4-.2-.7-.1-.8.1-1.4.6-1.8,1.3-.1.2-.2.4-.3.6h0Z"/>
      <path class="st1" d="M190.1,64.7c0,.3.2.5.2.7.2.5,0,.8-.3,1.2-.2.2-.3.5-.4.8,0,0,0,0,0,0,0,0,0,0,.1-.1.2-.2.5-.2.6,0,.1.3.2.6.2.8,0,.3,0,.6,0,.9-.2,1.2-.4,2.3-.6,3.4,0,.4-.2.9-.3,1.3h0v-.2c.3-2,.2-3.9-.3-5.9-.2-.6-.2-1.3,0-1.9.2-.4.4-.8.7-1.1h0Z"/>
      <path class="st1" d="M181.8,51.2c.4,0,.5,0,.5.4,0,.4,0,.8-.2,1.1-.3.5-.4,1-.4,1.5,0,.8.1,1.5.1,2.2-.2-.5-.4-1.1-.5-1.7-.2-1-.1-2,0-3,.1-.7.2-1.5.2-2.2,0-1-.4-1.9-1-2.7,0-.1-.2-.2-.2-.4,0,0,0-.2,0-.3,0,0,.2,0,.2.1.2.5.6.8,1,1,.2.1.4.3.6.5.3.3.4.7.3,1.1-.1.6-.3,1.2-.5,1.8,0,.2,0,.4-.1.7h0Z"/>
      <path class="st1" d="M174.5,69.2c.3.2.6,0,.8-.2.4-.5.9-.7,1.5-.7.3,0,.5-.1.8-.2,0,0,0,0,0,0-.8.8-1,1.7-.7,2.7.1.5.2.9.3,1.4,0,.1,0,.2,0,.3-.2-.2-.5-.4-.7-.5-.7-.5-.9-1.1-.6-1.9,0,0,0-.1,0-.2-.7,0-1.2-.2-1.5-.8h0Z"/>
      <path class="st1" d="M187.3,61.3c-.2-.6-.3-1.2-.5-1.8-.2-.7-.3-1.5-.5-2.2,0-.3,0-.4.4-.4,0-.5,0-1,0-1.6,0-1,.1-1.9.5-2.8,0-.2.2-.4.3-.6,0,0,.2-.1.3-.1s.2.2.2.3c0,.2,0,.5-.1.7-.7,1.8-.8,3.8-.7,5.7,0,.9.1,1.8.2,2.7,0,0,0,0,0,0h0Z"/>
      <path class="st1" d="M185.3,54c-.2-.2-.4-.3-.6-.2-.4.1-.8,0-1.1-.1-.5-.2-.9,0-1.1.4-.2.4-.3.8-.4,1.2-.2-1.4.4-3.1,2.2-3.4,1-.2,2.1.5,2.4,1.5,0,.1,0,.3,0,.4,0,0-.2.2-.4.2,0,0-.2-.2-.2-.3,0,0,0,0,0-.1,0-.6-.3-1-.9-1.2-.6-.2-1.2,0-1.6.4.9,0,1.6.3,1.8,1.3h0Z"/>
      <path class="st1" d="M178.8,67.6c-.1.3-.3.5-.4.7-.4.9-.2,1.7.3,2.4.3.4.6.8.9,1.3.2.3.4.5.6.8.2.3,0,.5-.3.6-.4,0-.6-.1-.8-.4-.2-.3-.4-.7-.6-1.1,0,0-.1-.2-.2-.2-.5,0-.7-.4-.8-.8-.2-1.2.2-2.5,1.3-3.3h0Z"/>
      <path class="st1" d="M181.8,57c0-.1-.1-.2-.2-.2-.3-.3-.5-.6-.8-.8-.6-.4-1-1-1-1.8,0-.4,0-.8,0-1.1,0-.4-.3-.5-.6-.5-.4,0-.7.4-.5.8,0,0,.1.1.2.2,0,0,0-.1.1-.2s0-.2,0-.2c0,0,.2,0,.2,0,0,.1.2.3.1.4s-.2.2-.3.3c-.4,0-.8-.3-.8-.8,0-.5.4-.8,1-.7.5,0,.8.4,1.1.8.4.5.6,1.1.8,1.7,0,.4.1.8.2,1.1.1.4.3.7.4,1.1h0Z"/>
      <path class="st1" d="M194.1,72.3c-.1,0-.3.2-.4.3-.3,0-.7.2-1,.2-.7,0-1.3.4-1.8.9,0,0,0,.1-.1.1.5-.9,1.1-1.6,2.1-1.8.9-.3,1.7-.1,2.6,0,.5.1.9.2,1.4.3.2,0,.3.2.4.4,0,.2-.1.5-.4.5-.6.1-1-.2-1.3-.6-.4-.4-.8-.6-1.4-.6,0,0,0,0,0,0h0Z"/>
      <path class="st1" d="M191.2,64.3c0,.3,0,.4.1.6,0,.3.2.6.3.8.4.6.6,1.3.6,2,0,1.1-.3,2.1-.7,3,0-.4,0-.7,0-1.1,0-.7,0-1.3-.3-1.9-.3-1-.4-2.1-.2-3.1,0,0,0-.2,0-.3h0Z"/>
      <path class="st1" d="M180.4,65.9c-.4.4-.9.8-1.4,1.1-1.1.7-2.2,1.2-3.5,1.3-.3,0-.6,0-.8-.2-.1,0-.2-.3-.3-.4-.1-.3.2-.6.5-.5,1,.5,1.9.2,2.9,0,.9-.2,1.8-.7,2.6-1.2h0c0,0,0,0,0,0Z"/>
      <path class="st1" d="M188.3,60.9c.3-1.1.7-2.1,1.9-2.6.3-.1.6-.2.9-.2.2,0,.5.2.6.3.3.3.3.9,0,1.3-.2.2-.4.3-.6.3,0,0,0,0,0,0-.2-.8-.9-1.2-1.7-.7-.4.3-.7.7-.9,1.2,0,.1-.1.3-.2.4h0Z"/>
      <path class="st1" d="M186.2,67.9c-.4-.2-.8-.4-1.1-.5-1-.3-1.9-.3-2.8.3-.1,0-.2.2-.3.3-.1.1-.2.2,0,.4.1.2,0,.5-.2.7-.2.2-.5.1-.6,0-.3-.3-.2-.9.1-1.2.4-.4.9-.5,1.4-.6,1.2-.2,2.4,0,3.4.7,0,0,.1.1.2.2,0,0,0,0,0,0h0Z"/>
      <path class="st1" d="M180,60.3c-.7.2-1.3.6-1.8,1-.6.5-1.4.6-2.2.5-.8-.2-1.1-1-.8-1.6.3-.5.9-.5,1.3,0,.1.2,0,.5-.2.6,0,0-.2,0-.3,0,0,0,0-.2,0-.3,0,0,0,0,.1-.2-.2,0-.4,0-.4,0,0,0-.1.2-.1.4,0,.5.5.8,1.1.8.5,0,1-.2,1.4-.5.5-.3,1.1-.6,1.7-.7,0,0,.1,0,.1,0h0Z"/>
      <path class="st1" d="M181.7,64.9c-.9-.2-2-.3-3-.6-.8-.2-1.2-.8-1.1-1.5,0-.4.3-.6.6-.7.4,0,.9,0,1.1.4,0,.1,0,.3,0,.4,0,0-.2.2-.3.2,0,0-.1-.1-.2-.2,0,0-.1-.2-.2-.2,0,0-.2.1-.2.2-.2.4,0,.8.3,1.1.4.3.9.4,1.4.5.5,0,.9.2,1.4.4,0,0,.2,0,.2,0h0Z"/>
      <path class="st1" d="M183.1,65.2c.9.3,1.7.6,2.6.9,1.3.4,2.2,1.3,2.6,2.6.3.8.4,1.6.6,2.3,0,0,0,.1,0,.2-.2-.6-.4-1.1-.6-1.7-.4-.9-.8-1.7-1.5-2.3-.6-.6-1.4-.9-2.1-1.1-.4-.1-.8-.3-1.2-.5s-.3-.3-.5-.4c0,0,0,0,0,0h0Z"/>
      <path class="st1" d="M187.1,74.4c-.1-.8-.2-1.7-.4-2.6-.1-.6-.3-1.1-.5-1.7-.2-.5-.4-.5-.8-.3-.3.2-.5.2-.7,0-.1-.2,0-.5.2-.7.5-.3,1.1-.2,1.4.3.4.6.6,1.3.7,2.1.2,1,.2,2,.2,3Z"/>
      <path class="st1" d="M190.7,73c.5-2.3,2.2-2.8,4.1-1.7-.6-.2-1,0-1.5.2-.2,0-.4.1-.6.1-.8,0-1.3.4-1.7,1,0,0-.1.2-.2.3h0Z"/>
      <path class="st1" d="M190.6,74.6c.7-.9,1.5-1.5,2.7-1.4,1.1,0,2.1.7,2.9,1.4-.8-.1-1.6-.2-2.3-.6-.9-.5-1.7-.4-2.5,0-.3.2-.6.4-.9.6h0Z"/>
      <path class="st1" d="M191.1,68.3c.4,2-.1,3.8-1.2,5.4,0-.2.1-.3.2-.4,0-.2.1-.3.1-.5,0-.6.2-1.2.2-1.8,0-.7.2-1.5.5-2.1,0-.2.1-.3.1-.5h0Z"/>
      <path class="st1" d="M190.2,56.8c.2-.2.2-.4,0-.6-.4-.3-.8-.4-1.2-.2-.3.1-.5.3-.8.5.1-.2.2-.4.4-.5.7-.7,2.1-.5,2.5.4.2.5,0,1-.5,1.1-.4,0-.8-.3-.7-.7,0-.2.2-.2.3-.1,0,0,0,.1.1.2h0Z"/>
      <path class="st1" d="M186.6,67.5c-.5-.2-.9-.4-1.4-.5-.9-.3-1.8-.4-2.8-.1,0,0,0,0-.1,0-.3,0-.4,0-.5-.2,0-.3.1-.3.3-.4.8-.2,1.6-.1,2.4.1.8.2,1.4.6,2,1.1Z"/>
      <path class="st1" d="M185.7,57.5c.5.4.8,1,.9,1.7.1.6,0,1.2-.1,1.9-.1.3,0,.6-.1,1-.2-.4-.3-.8-.4-1.2s0-.9,0-1.3c0-.6,0-1.2-.2-1.7,0,0,0-.2-.1-.2h0Z"/>
      <path class="st1" d="M183.1,60.2c-.4-.2-.7-.5-1.1-.7-1.1-.7-2.3-1.2-3.6-1.6,0,0-.1,0-.2,0,0,0-.1-.1-.1-.2,0,0,.1-.2.2-.2.1,0,.3,0,.4,0,.8.1,1.6.5,2.2,1,.7.5,1.4,1,2,1.5,0,0,.1,0,.1.1,0,0,0,0,0,0h0Z"/>
      <path class="st1" d="M192.8,69.7c.2-.2.4-.5.6-.8.4-.6.8-1.2,1.1-1.8,0-.2.1-.4.2-.5,0-.2.2-.4.4-.3.2,0,.2.3.2.4,0,.2-.1.4-.2.6-.5,1-1.3,1.7-2.2,2.4,0,0,0,0,0,0h0Z"/>
      <path class="st1" d="M186.9,69.5c-.5-.5-1.1-.9-1.7-1.1-.3,0-.6-.1-.9-.2-.4,0-.5-.2-.5-.4,0-.2.3-.3.6-.2.9.2,1.7.7,2.2,1.5.1.2.2.3.3.5h0Z"/>
      <path class="st1" d="M182.5,59.5c-.1,0-.2-.1-.3-.2-.8-.6-1.5-1.2-2.3-1.8-.1,0-.2-.2-.3-.3,0,0,0-.2,0-.2,0,0,.1,0,.2,0,.2,0,.4.2.6.3.8.7,1.5,1.4,2.2,2.2,0,0,0,0,0,0Z"/>
      <path class="st1" d="M183.2,52c.3-.5.5-.9.9-1.1.1,0,.3,0,.4,0,.4,0,.8.1,1.3.2-.2.1-.4.2-.6.3-.5.2-1.1.3-1.6.5-.1,0-.2,0-.4.1Z"/>
      <path class="st1" d="M183.2,49.4c.1.2.3.3.4.5.1.2.2.4.2.6,0,.4-.3.8-.6,1,0-.4-.2-.8-.3-1.1,0-.4,0-.8.1-1h0Z"/>
      <path class="st1" d="M188.7,65.8c0-.7-.2-1.4,0-2.1,0-.2.1-.4.4-.5,0,.8.2,1.6-.2,2.4,0,0,0,.2-.1.3,0,0,0,0,0,0Z"/>
      <path class="st1" d="M180.6,50.2c.3.5.5,1,.5,1.5,0,.4-.1.8-.2,1.3-.2-.3-.4-.7-.3-1.2,0-.6,0-1.1,0-1.7h0Z"/>
      <path class="st1" d="M188,60.9c-.1-1.1,0-2.2.2-3.4,0,0,0-.2.1-.2,0,0,.1,0,.2,0,0,0,.1,0,.1.2,0,.2,0,.3,0,.5-.3.9-.4,1.9-.5,2.9,0,0,0,0,0,.1h0Z"/>
      <path class="st1" d="M182.6,59.1c-.4-.5-.9-.9-1.3-1.4-.2-.2-.2-.5,0-.6s.4,0,.5.3c.3.5.6,1.1,1,1.7,0,0,0,0-.1,0h0Z"/>
      <path class="st1" d="M185.7,60.2c0-.6-.4-1-.8-1.4-.2-.3-.3-.6-.2-.9.2.2.4.4.7.6.3.2.4.6.4,1v.8s0,0,0,0h0Z"/>
      <path class="st1" d="M180.1,59.9c-.7,0-1.4.3-2,.6-.3.1-.6.1-.9,0,.3-.2.6-.4.9-.6.5-.3,1.1-.4,1.7-.2,0,0,.1,0,.2,0h0Z"/>
      <path class="st1" d="M182.7,60.3c-.5-.1-1.1-.3-1.6-.4-.3,0-.7,0-1-.2-.1,0-.4-.2-.4-.3,0-.2.3-.2.4-.2.8.1,1.4.4,2.1.8.1,0,.3.2.4.2h0s0,0,0,0Z"/>
      <path class="st1" d="M182.5,50.4c.8.5.8,1.5,0,2.3.2-.4.1-.8,0-1.1,0-.4,0-.8,0-1.1h0Z"/>
      <path class="st1" d="M182.8,62.4c-.3,0-.6,0-.9.1-.5.1-1,.3-1.5.4-.1,0-.3.2-.4,0,0-.2,0-.3.3-.4.6-.2,1.3-.2,1.9-.2.2,0,.4,0,.6,0h0c0,0,0,0,0,0Z"/>
      <path class="st1" d="M184.1,59.3c-.4-.7-.6-1.4-.6-2.2,0,0,0-.2.1-.2,0,0,.2,0,.2,0,0,.2.2.4.2.7,0,.5,0,1.1.1,1.7h0Z"/>
      <path class="st1" d="M182.6,62.7c-.4.2-.8.4-1.1.6-.2.1-.4.3-.6.5,0,0-.2,0-.3,0,0-.1,0-.3,0-.3.3-.5,1.4-.9,2-.8h0Z"/>
      <path class="st1" d="M191.9,70.8c.4-.4.8-.8,1.4-.7.2,0,.4.1.5.2,0,0,0,.1,0,.2s-.1,0-.2,0c0,0-.1,0-.2,0-.5-.1-.9,0-1.4.2h-.2c0,0,0,0,0,0Z"/>
      <path class="st1" d="M179.1,51.6c1,0,1.4.2,1.4,1.1-.4-.5-.8-.9-1.4-1.1Z"/>
      <path class="st1" d="M193.3,69.8c.5-.2,1-.2,1.5,0,.2.1.4.3.3.6-.5-.6-1.1-.7-1.8-.8h0Z"/>
      <path class="st1" d="M188.2,61.9c0-.4.5-1.1,1-1.3,0,0,.2,0,.2,0,0,0,0,.2-.1.2-.1,0-.3.1-.4.2-.3.3-.5.6-.7.8h0Z"/>
      <path class="st1" d="M182,63.3c0,.3,0,.6,0,1,0,0,0,.1-.1.2,0,0-.2,0-.2-.2,0-.3.2-.9.4-1h0Z"/>
      <path class="st1" d="M188.5,59.1c0-.3.1-.6.4-.8,0,0,.1,0,.2,0,0,0,0,.2,0,.2-.2.2-.3.4-.5.6,0,0,0,0,0,0Z"/>
    </g>
    <g>
      <path class="st1" d="M122.3,79.2c-.7-1.1-1.1-2.1-1.2-3.3-.2-1.1,0-2.2,0-3.3,0-.6,0-1.2,0-1.8,0-.9.1-1.7.4-2.6,0,0,0-.1,0-.2-1.5,2-1.9,4.3-1.7,6.7.2,2.4,1.2,4.5,3,6.2,0,0,0,0,0,0-.4-.4-.8-.8-1.2-1.3-1-1.2-1.6-2.7-1.9-4.2-.2-1-.3-2-.4-2.9,0,0,0-.1,0-.2,0,0,0-.1-.2-.2,0,0-.1,0-.1.1,0,.3-.1.7-.1,1,0,.6.2,1.2.3,1.8,0,0,0,0,0,.2-.2-.3-.4-.6-.6-.9,0-.1-.3-.3-.4-.3-.2,0,0,.3,0,.5,0,0,0,.2,0,.2-.4-.2-.7-.4-1.1-.5-.4-.2-.8-.3-1.3-.3-.2,0-.3-.1-.5-.2,0,0,0,0,0,0,.2.2.3.4.6.6-.2,0-.4,0-.6,0-.7,0-1.4,0-2.1.3-.4.2-.8.5-.9,1,0,.4-.4.6-.8.5,0,0-.2,0-.3,0,0,0,0,.2.1.3.5.5,1.5.4,2-.3.4-.6.9-1.1,1.6-1.3,1-.4,2-.4,3,0,.2,0,.3.2.4.3,0,0,0,0,0,0,0,0,0,0-.1,0-1.6-.8-2.8-.6-3.9.8-.5.7-.9,1.4-.8,2.3,0,.4.1.7.4,1,.2.3.6.3.8,0,0-.1,0-.3,0-.4,0,0-.2,0-.3.1-.2-.1-.2-.3,0-.6.2-.3.5-.5.8-.6.5-.2.7-.4.7-.9,0-.3,0-.6,0-.9,0-.4.3-.7.7-.8,1-.3,2,.2,2.5,1.2,1.1,2.1,2.3,4.1,4.3,5.6.7.5,1.3.9,2.1,1.1.2,0,.4.1.4-.2.6.1,1.1.2,1.6.3.9.2,1.8.2,2.8,0,0,0,.2,0,.2,0,.3,0,.4-.2.1-.5.2,0,.3-.1.4-.2,1.9-.7,2.8-2.2,2.6-4.2,0-.6-.3-1.2-.5-1.9,0,0,0-.2-.1-.2,0,0,0,0,0,0,0,0,0,0-.1,0v.4c0,.5.1.9,0,1.4,0,.3-.2.6-.3.9,0,0,0,0,0,0,0-.3,0-.7-.1-1-.2-1.1-.6-2-1.6-2.4-1.2-.6-2.4-.6-3.6.1-.3.2-.5.5-.6.8-.1.4.2.8.6.6.2,0,.4-.2.6-.4.5-.5,1.2-.6,1.9-.6,1.7.2,2.6,1.3,2.4,3.1-.1,1.6-1.4,3-3,3.3-1.1.2-2.1,0-3.1-.2,0,0,0,0,0,0,0,0,0,0,0,0,1.5.3,3,.2,4.3-.7,1.3-.9,1.8-2.4,1-3.9-.4-.7-1-.9-1.8-1-.7,0-1.4.5-1.6,1.1-.3.8.3,1.7,1.3,1.8.7,0,1.2-.2,1.3-.8,0-.4,0-.7-.3-.9-.2-.2-.5-.2-.7,0-.2.2-.3.4-.2.7,0,.1.1.2.1.3-.4.2-.7.1-.9-.2-.2-.3-.2-.7,0-1,.2-.3.6-.4.9-.4,1.1,0,1.6.8,1.5,1.9-.1,1.3-1.1,2-2.4,1.9-.2,0-.4,0-.6,0-.3-.1-.5-.4-.4-.7,0-.3.2-.5.3-.8,0,0,0-.2,0-.3,0,0-.2,0-.3,0-.1,0-.2.2-.3.2-.6.2-.9,1.1-.3,1.5,0,0,0,0,0,.1-.7-.1-1.3-.2-1.9-.7-.4-.3-.5-.7-.3-1.2,0-.2.2-.4.3-.6,0-.2.2-.3.4-.2.2,0,.5,0,.6-.3.2-.3,0-.7-.1-.9-.4-.4-1.2-.2-1.5.2-.3.4-.3.9-.3,1.4,0,1,.4,1.7,1.3,2.1,0,0,.2.1.3.2-.9-.2-1.8-1-2.2-1.9-.3-.8-.3-1.6-.3-2.4,0-.9.1-1.8-.2-2.7-.2-.7-.2-1.3,0-2,0,0,0-.2,0-.4,0,0-.2.1-.2.2-.5,1.4-.8,2.9-.7,4.4,0,1.3.6,2.5,1.4,3.5,0,0,.1.2.2.2-.6-.5-1-1.1-1.3-1.7-.6-1.3-.8-2.7-.6-4.1,0-.6,0-1.1-.2-1.7-.2.8-.4,1.4-.4,2.1-.1,1.1.2,2.2.7,3.2,0,.2.1.3.2.4h0c0,.1,0,.1,0,.1Z"/>
      <path class="st1" d="M120.1,67.7c.2-.4.4-.9.7-1.3.6-1,1.5-1.4,2.7-1.2.1,0,.2,0,.4,0s0,0,.1,0c0,0,0-.1-.1-.1-.3,0-.4-.2-.5-.5-.2-.3-.4-.5-.8-.5,0,0,0-.2.2-.2.5-.6,1.2-.8,2-.7.1,0,.2,0,.3.1.2.1.2.2,0,.4-.1.1-.2.3-.3.4,0,.1-.1.2-.2.3,0,0-.2-.2-.3-.3,0-.2,0-.3.2-.4,0,0,.1,0,.2,0,0,0,.1-.1.1-.2,0,0-.1-.1-.2-.1,0,0-.1,0-.2,0-.3.1-.6.5-.6.9,0,.3.2.6.6.7.7.2,1.4-.2,1.6-.8.2-.7-.3-1.4-1-1.5-.4,0-.8,0-1.2,0,0,0-.2,0-.3,0,.4-.4.8-.7,1.2-.8.5-.1.9,0,1.4,0,.3,0,.7.1,1.1,0,.4,0,.7-.2.9-.6.1-.2.3-.3.6-.2.1,0,.2.2.2.3,0,0,0,.2,0,.2,0,.2.2.3.4.2.2-.2.3-.5,0-.8-.3-.3-.6-.5-.9-.7-1.2-.5-2.4-.3-3.5.3-1.3.8-2.3,1.9-3.2,3.2-.7,1-1.3,2.1-1.6,3.3,0,0,0,0,0,.1h0Z"/>
      <path class="st1" d="M115.7,60.9c.5-.7.1-1.5.1-2.3,0,.2-.2.5-.3.8-.2.4-.4.8-.7,1.2-.6,1-.9,2-.7,3.2,0,0,0,0,0,.1,0,0,0,0,0,0,0,0-.1-.2-.2-.2,0,0,0-.2-.2-.2h0c0,.3-.1.5-.1.8,0,.7.2,1.4.4,2.1.5,1.2,1.1,2.4,1.9,3.5,0,0,0,0,.1,0,0-.2-.2-.4-.3-.6-.6-1.2-.9-2.5-1-3.8,0-1.1.2-2.1.8-3,.5-.8,1.3-1,2.1-.7.7.3.8,1,.4,1.5-.2.2-.3.3-.6.2-.3,0-.6-.2-.7-.5,0,0,0-.2.1-.2.2,0,.3-.2.2-.5,0-.2-.3-.2-.5-.2-.3.1-.5.5-.4.8.2.8,1.4,1.3,2.1.8.4-.2.6-1,.5-1.5-.2-.9-1.1-1.5-2.1-1.4-.4,0-.7.2-1.2.2h0Z"/>
      <path class="st1" d="M123.7,55.1c0,0,0,0,0,0,.2,0,.3.1.2.3,0,0-.2.2-.2.2-.2,0-.3,0-.3-.3,0-.3.3-.7.7-.6.4,0,.7.3.8.7.2.5.3,1,.2,1.6,0,1.1-.4,2.1-1.1,3,0,0,0,0-.2.2v-1.5s0,0,0,0c0,.2-.2.4-.3.6,0,0,0,.2-.1.3-.5.6-.7,1.2-.8,2-.1.6-.4,1.1-.9,1.6,0-.4,0-.8-.3-1.1,0,.4-.2.6-.4.8-.2.2-.3.6-.3.9-.2,1-.4,1.9-.6,2.9,0,0,0,0,0,0,.2-.3.3-.6.4-1,.7-1.5,1.7-2.7,2.8-3.9.6-.6,1.2-1.3,1.7-2,.7-1.2,1-2.5.7-4-.2-.6-.6-1.1-1.1-1.4-.4-.2-1.1-.1-1.4.2-.3.3-.3.9,0,1.2.3.3.7.3,1.1,0,.2-.2.2-.5,0-.7-.2-.2-.3-.2-.6,0h0Z"/>
      <path class="st1" d="M116.8,47.8c-.3.3-.3.6-.1,1-.3,0-.7,0-1,0-.8,0-1.5.5-1.7,1.2-.2,1.1.8,2.2,1.9,2,.8-.2,1.1-1.1.7-1.8-.2-.2-.4-.3-.6-.2,0,0-.1.2-.2.2,0,0,.2,0,.3,0,0,0,.2,0,.2,0,0,0-.1.2-.2.2-.2,0-.4.1-.5.3,0,0-.2,0-.2,0-.6-.2-.8-.8-.4-1.4,0,0,.2-.2.3-.2,1-.3,1.9,0,2.6.7,1.2,1.1,1.9,2.6,2.3,4.1.3,1.1.4,2.2.4,3.2,0,2,0,3.9-.2,5.9,0,.7-.3,1.5-.4,2.2,0,0,0,.1,0,.2,0-.3.2-.7.2-1,.3-1.4.5-2.8.5-4.3,0-1.1,0-2.3,0-3.4,0-2-.4-3.9-1.3-5.7-.2-.5-.5-.9-.8-1.3-.3-.4-.6-.8-.8-1.2-.1-.2-.2-.3-.4-.4-.3-.1-.5-.4-.5-.7Z"/>
      <path class="st1" d="M126.2,65.4c.4,0,.9,0,1.4,0,.6,0,1.1.3,1.5.7.4.4.9.6,1.5.6.2,0,.4,0,.6.1.1,0,.2,0,.3,0,0,0,0,0,0,0,0,0-.1-.2-.2-.2-.7-.2-1.2-.6-1.6-1.2.1,0,.2,0,.3,0,.4,0,.8.2,1.2.2,1.8.3,3-1.4,2.6-3,0-.1,0-.2-.2-.3,0,0-.2-.1-.2,0s-.1.1-.1.2c0,.1,0,.2,0,.3.1.4,0,.7-.3.9-.5.4-1.1.6-1.7.8-1,.3-2.1.4-3.1.4-.6,0-1.2.1-1.8.2-.1,0-.3,0-.3.1h0Z"/>
      <path class="st1" d="M125.2,65.9c.8,0,1.4,0,2.1.4,1.9.8,2.1,3.6.6,4.7-.9.7-2,.7-2.7,0-.3-.3-.5-.6-.4-1.1,0-.3.2-.5.4-.6.1,0,.2-.1.3-.2.2-.1.3-.3.2-.6,0-.2-.3-.3-.6-.3-.7,0-1.2.8-1.2,1.5,0,1,.9,2,1.9,2.2,1.1.2,2.2-.3,2.9-1.4.9-1.4.6-3.1-.7-4.2-.8-.7-1.7-.9-2.8-.7,0,0,0,0,0,0,0,0,0,0,0,0h0Z"/>
      <path class="st1" d="M120.4,56.6c-.1-.9-.5-1.7-1.2-2.2-1.3-.9-2.9-.8-3.9.3-.5.5-.7,1.2-.5,1.9,0,.6.5.9,1,.8.3,0,.5-.3.3-.6,0,0-.1,0-.2,0,0,0-.2,0-.2,0,0,0,0-.2,0-.2.3-.4.2-.8.1-1.2,0-.5.2-.9.7-1.1-.3.4-.3.8-.1,1.2,0,0,0,.1.2.2,0-.1,0-.2,0-.2,0-.4,0-.4.4-.5.2,0,.5-.2.7-.3.2,0,.4-.2.7-.1.8.1,1.4.6,1.8,1.3.1.2.2.4.3.6h0Z"/>
      <path class="st1" d="M118.2,64.7c0,.3-.2.5-.2.7-.2.5,0,.8.3,1.2.2.2.3.5.4.8,0,0,0,0,0,0,0,0,0,0-.1-.1-.2-.2-.5-.2-.6,0-.1.3-.2.6-.2.8,0,.3,0,.6,0,.9.2,1.2.4,2.3.6,3.4,0,.4.2.9.3,1.3h0v-.2c-.3-2-.2-3.9.3-5.9.2-.6.2-1.3,0-1.9-.2-.4-.4-.8-.7-1.1h0Z"/>
      <path class="st1" d="M126.5,51.2c-.4,0-.5,0-.5.4,0,.4,0,.8.2,1.1.3.5.4,1,.4,1.5,0,.8,0,1.5-.1,2.2.2-.5.4-1.1.5-1.7.2-1,.1-2,0-3,0-.7-.2-1.5-.2-2.2,0-1,.4-1.9,1-2.7,0-.1.2-.2.2-.4,0,0,0-.2,0-.3,0,0-.2,0-.2.1-.2.5-.6.8-1,1-.2.1-.4.3-.6.5-.3.3-.4.7-.3,1.1.2.6.3,1.2.5,1.8,0,.2,0,.4.1.7h0Z"/>
      <path class="st1" d="M133.9,69.2c-.3.2-.6,0-.8-.2-.4-.5-.9-.7-1.5-.7-.3,0-.5-.1-.8-.2,0,0,0,0,0,0,.8.8,1,1.7.7,2.7-.1.5-.2.9-.3,1.4,0,.1,0,.2,0,.3.2-.2.5-.4.7-.5.7-.5.9-1.1.6-1.9,0,0,0-.1,0-.2.7,0,1.2-.2,1.5-.8h0Z"/>
      <path class="st1" d="M121,61.3c.2-.6.3-1.2.5-1.8.2-.7.3-1.5.5-2.2,0-.3,0-.4-.4-.4,0-.5,0-1,0-1.6,0-1-.1-1.9-.5-2.8,0-.2-.2-.4-.3-.6,0,0-.2-.1-.3-.1s-.2.2-.2.3c0,.2,0,.5.1.7.7,1.8.8,3.8.7,5.7,0,.9-.1,1.8-.2,2.7,0,0,0,0,0,0h0Z"/>
      <path class="st1" d="M123,54c.2-.2.4-.3.6-.2.4.1.8,0,1.1-.1.5-.2.9,0,1.1.4.2.4.3.8.4,1.2.2-1.4-.4-3.1-2.2-3.4-1-.2-2.2.5-2.4,1.5,0,.1,0,.3,0,.4s.2.2.4.2c0,0,.2-.2.2-.3,0,0,0,0,0-.1,0-.6.3-1,.9-1.2.6-.2,1.2,0,1.6.4-.9,0-1.6.3-1.8,1.3h0Z"/>
      <path class="st1" d="M129.6,67.6c.1.3.3.5.4.7.4.9.2,1.7-.3,2.4-.3.4-.6.8-.9,1.3-.2.3-.4.5-.6.8-.2.3,0,.5.3.6.4,0,.6-.1.8-.4.2-.3.4-.7.6-1.1,0,0,.1-.2.2-.2.5,0,.7-.4.8-.8.2-1.2-.2-2.5-1.3-3.3h0Z"/>
      <path class="st1" d="M126.6,57c0-.1.1-.2.2-.2.3-.3.5-.6.8-.8.6-.4,1-1,1-1.8,0-.4,0-.8,0-1.1,0-.4.3-.5.6-.5.4,0,.7.4.5.8,0,0-.1.1-.2.2,0,0,0-.1-.1-.2s0-.2,0-.2c0,0-.2,0-.2,0,0,.1-.2.3-.1.4s.2.2.3.3c.4,0,.8-.3.8-.8,0-.5-.4-.8-1-.7-.5,0-.8.4-1.1.8-.4.5-.6,1.1-.8,1.7,0,.4-.1.8-.2,1.1,0,.4-.3.7-.4,1.1h0Z"/>
      <path class="st1" d="M114.2,72.3c.1,0,.3.2.4.3.3,0,.7.2,1,.2.7,0,1.3.4,1.8.9,0,0,0,.1.2.1-.5-.9-1.1-1.6-2.1-1.8-.9-.3-1.7-.1-2.6,0-.5.1-.9.2-1.4.3-.2,0-.3.2-.3.4,0,.2.1.5.4.5.6.1,1-.2,1.3-.6.4-.4.8-.6,1.3-.6,0,0,0,0,0,0h0Z"/>
      <path class="st1" d="M117.2,64.3c0,.3,0,.4-.1.6,0,.3-.2.6-.3.8-.4.6-.6,1.3-.6,2,0,1.1.3,2.1.7,3,0-.4,0-.7,0-1.1,0-.7,0-1.3.3-1.9.3-1,.4-2.1.2-3.1,0,0,0-.2,0-.3h0Z"/>
      <path class="st1" d="M127.9,65.9c.5.4.9.8,1.4,1.1,1.1.7,2.2,1.2,3.5,1.3.3,0,.6,0,.8-.2.1,0,.2-.3.3-.4.1-.3-.2-.6-.5-.5-1,.5-1.9.2-2.9,0-.9-.2-1.8-.7-2.6-1.2h0c0,0,0,0,0,0Z"/>
      <path class="st1" d="M120.1,60.9c-.3-1.1-.7-2.1-1.8-2.6-.3-.1-.6-.2-.9-.2-.2,0-.5.2-.7.3-.3.3-.3.9,0,1.3.2.2.4.3.6.3,0,0,0,0,0,0,.2-.8.9-1.2,1.7-.7.4.3.7.7.9,1.2,0,.1.1.3.2.4h0Z"/>
      <path class="st1" d="M122.1,67.9c.4-.2.8-.4,1.1-.5,1-.3,1.9-.3,2.8.3.1,0,.2.2.3.3.1.1.2.2,0,.4-.1.2,0,.5.2.7.2.2.5.1.7,0,.3-.3.2-.9-.2-1.2-.4-.4-.9-.5-1.4-.6-1.2-.2-2.4,0-3.4.7,0,0-.1.1-.2.2,0,0,0,0,0,0h0Z"/>
      <path class="st1" d="M128.3,60.3c.7.2,1.3.6,1.8,1,.6.5,1.4.6,2.2.5.8-.2,1.1-1,.8-1.6-.3-.5-.9-.5-1.3,0-.1.2,0,.5.2.6,0,0,.2,0,.3,0,0,0,0-.2,0-.3,0,0,0,0-.1-.2.2,0,.4,0,.4,0,0,0,.1.2.1.4,0,.5-.5.8-1.1.8-.5,0-1-.2-1.4-.5-.5-.3-1.1-.6-1.7-.7,0,0-.1,0-.1,0h0Z"/>
      <path class="st1" d="M126.6,64.9c.9-.2,2-.3,3-.6.8-.2,1.2-.8,1.1-1.5,0-.4-.3-.6-.6-.7-.4,0-.9,0-1.1.4,0,.1,0,.3,0,.4,0,0,.2.2.3.2,0,0,.1-.1.2-.2,0,0,.1-.2.2-.2,0,0,.2.1.2.2.2.4,0,.8-.3,1.1-.4.3-.9.4-1.4.5-.5,0-.9.2-1.4.4,0,0-.2,0-.2,0h0Z"/>
      <path class="st1" d="M125.2,65.2c-.9.3-1.7.6-2.6.9-1.3.4-2.2,1.3-2.6,2.6-.3.8-.4,1.6-.7,2.3,0,0,0,.1,0,.2.2-.6.4-1.1.6-1.7.3-.9.8-1.7,1.5-2.3.6-.6,1.3-.9,2.2-1.1.4-.1.8-.3,1.2-.5.2,0,.3-.3.5-.4,0,0,0,0,0,0h0Z"/>
      <path class="st1" d="M121.3,74.4c.1-.8.2-1.7.4-2.6.1-.6.3-1.1.5-1.7.2-.5.4-.5.8-.3.3.2.5.2.7,0,.1-.2,0-.5-.2-.7-.5-.3-1.1-.2-1.4.3-.4.6-.6,1.3-.7,2.1-.2,1-.2,2-.2,3Z"/>
      <path class="st1" d="M117.6,73c-.5-2.3-2.2-2.8-4.1-1.7.6-.2,1,0,1.5.2.2,0,.4.1.6.1.8,0,1.3.4,1.7,1,0,0,.1.2.2.3h0Z"/>
      <path class="st1" d="M117.7,74.6c-.7-.9-1.5-1.5-2.7-1.4-1.1,0-2.1.7-2.9,1.4.8-.1,1.6-.2,2.3-.6.9-.5,1.7-.4,2.5,0,.3.2.6.4.8.6h0Z"/>
      <path class="st1" d="M117.2,68.3c-.4,2,0,3.8,1.2,5.4,0-.2-.1-.3-.2-.4,0-.2-.1-.3-.2-.5,0-.6-.2-1.2-.2-1.8,0-.7-.2-1.5-.5-2.1,0-.2,0-.3-.2-.5h0Z"/>
      <path class="st1" d="M118.1,56.8c-.2-.2-.2-.4,0-.6.4-.3.8-.4,1.2-.2.3.1.5.3.8.5-.1-.2-.2-.4-.4-.5-.7-.7-2.1-.5-2.5.4-.2.5,0,1,.5,1.1.4,0,.8-.3.7-.7,0-.2-.2-.2-.3-.1,0,0,0,.1,0,.2h0Z"/>
      <path class="st1" d="M121.8,67.5c.5-.2.9-.4,1.4-.5.9-.3,1.8-.4,2.8-.1,0,0,0,0,.1,0,.3,0,.4,0,.5-.2,0-.3-.1-.3-.3-.4-.8-.2-1.6-.1-2.4.1-.8.2-1.4.6-2,1.1Z"/>
      <path class="st1" d="M122.6,57.5c-.5.4-.8,1-.9,1.7-.1.6,0,1.2.2,1.9,0,.3,0,.6.1,1,.2-.4.3-.8.4-1.2,0-.4,0-.9,0-1.3,0-.6,0-1.2.2-1.7,0,0,0-.2,0-.2h0Z"/>
      <path class="st1" d="M125.3,60.2c.4-.2.7-.5,1.1-.7,1.1-.7,2.3-1.2,3.6-1.6,0,0,.1,0,.2,0,0,0,.1-.1.1-.2,0,0-.1-.2-.2-.2-.1,0-.3,0-.4,0-.8.1-1.6.5-2.2,1-.7.5-1.3,1-2,1.5,0,0,0,0-.2.1,0,0,0,0,0,0h0Z"/>
      <path class="st1" d="M115.6,69.7c-.2-.2-.4-.5-.6-.8-.4-.6-.8-1.2-1.1-1.8,0-.2-.1-.4-.2-.5,0-.2-.2-.4-.4-.3-.2,0-.2.3-.2.4,0,.2.1.4.2.6.5,1,1.3,1.7,2.2,2.4,0,0,0,0,0,0h0Z"/>
      <path class="st1" d="M121.5,69.5c.5-.5,1.1-.9,1.7-1.1.3,0,.6-.1.9-.2.3,0,.5-.2.5-.4,0-.2-.3-.3-.6-.2-.9.2-1.7.7-2.2,1.5,0,.2-.2.3-.3.5h0Z"/>
      <path class="st1" d="M125.8,59.5c.1,0,.2-.1.3-.2.8-.6,1.5-1.2,2.3-1.8.1,0,.2-.2.3-.3,0,0,0-.2,0-.2,0,0-.1,0-.2,0-.2,0-.4.2-.6.3-.8.7-1.5,1.4-2.2,2.2,0,0,0,0,0,0h0Z"/>
      <path class="st1" d="M125.1,52c-.3-.5-.5-.9-.9-1.1-.1,0-.3,0-.4,0-.4,0-.8.1-1.3.2.2.1.4.2.6.3.5.2,1.1.3,1.7.5,0,0,.2,0,.4.1Z"/>
      <path class="st1" d="M125.2,49.4c-.2.2-.3.3-.4.5-.1.2-.2.4-.2.6,0,.4.3.8.6,1,0-.4.2-.8.3-1.1s0-.8-.1-1h0Z"/>
      <path class="st1" d="M119.6,65.8c0-.7.2-1.4,0-2.1,0-.2-.2-.4-.4-.5,0,.8-.2,1.6.2,2.4,0,0,0,.2.1.3,0,0,0,0,0,0Z"/>
      <path class="st1" d="M127.8,50.2c-.3.5-.5,1-.5,1.5,0,.4.1.8.2,1.3.2-.3.4-.7.3-1.2,0-.6,0-1.1,0-1.7Z"/>
      <path class="st1" d="M120.3,60.9c0-1.1,0-2.2-.2-3.4,0,0,0-.2-.1-.2,0,0-.1,0-.2,0,0,0-.1,0-.1.2,0,.2,0,.3,0,.5.3.9.4,1.9.5,2.9,0,0,0,0,0,.1h0Z"/>
      <path class="st1" d="M125.8,59.1c.4-.5.9-.9,1.3-1.4.2-.2.2-.5,0-.6s-.4,0-.5.3c-.3.5-.6,1.1-1,1.7,0,0,0,0,0,0h0Z"/>
      <path class="st1" d="M122.6,60.2c0-.6.4-1,.8-1.4.2-.3.3-.6.2-.9-.2.2-.4.4-.7.6-.3.2-.4.6-.4,1v.8s0,0,0,0h0Z"/>
      <path class="st1" d="M128.2,59.9c.7,0,1.4.3,2,.6.3.1.6.1.9,0-.3-.2-.6-.4-.9-.6-.5-.3-1.1-.4-1.7-.2,0,0-.1,0-.2,0h0Z"/>
      <path class="st1" d="M125.6,60.3c.5-.1,1.1-.3,1.6-.4.3,0,.7,0,1-.2.1,0,.4-.2.4-.3,0-.2-.3-.2-.4-.2-.8.1-1.4.4-2.1.8-.1,0-.3.2-.4.2h0s0,0,0,0Z"/>
      <path class="st1" d="M125.8,50.4c-.8.5-.8,1.5,0,2.3-.2-.4-.1-.8,0-1.1,0-.4,0-.8,0-1.1h0Z"/>
      <path class="st1" d="M125.5,62.4c.3,0,.6,0,.9.1.5.1,1,.3,1.5.4.2,0,.3.2.4,0,0-.2,0-.3-.3-.4-.6-.2-1.3-.2-1.9-.2-.2,0-.4,0-.6,0h0c0,0,0,0,0,0Z"/>
      <path class="st1" d="M124.3,59.3c.4-.7.6-1.4.6-2.2,0,0,0-.2,0-.2,0,0-.2,0-.2,0,0,.2-.2.4-.2.7,0,.5,0,1.1-.1,1.7h0Z"/>
      <path class="st1" d="M125.8,62.7c.4.2.8.4,1.1.6.2.1.4.3.6.5,0,0,.2,0,.3,0,0-.1,0-.3,0-.3-.3-.5-1.4-.9-2-.8h0Z"/>
      <path class="st1" d="M116.5,70.8c-.4-.4-.8-.8-1.4-.7-.2,0-.4.1-.5.2,0,0,0,.1,0,.2s.1,0,.2,0c0,0,.1,0,.2,0,.5-.1.9,0,1.4.2s.1,0,.2,0h0Z"/>
      <path class="st1" d="M129.3,51.6c-1,0-1.4.2-1.4,1.1.4-.5.8-.9,1.4-1.1Z"/>
      <path class="st1" d="M115.1,69.8c-.5-.2-1-.2-1.5,0-.2.1-.3.3-.3.6.5-.6,1.2-.7,1.8-.8h0Z"/>
      <path class="st1" d="M120.2,61.9c0-.4-.5-1.1-1-1.3,0,0-.2,0-.2,0,0,0,0,.2.1.2.1,0,.3.1.4.2.3.3.5.6.7.8Z"/>
      <path class="st1" d="M126.4,63.3c0,.3,0,.6,0,1,0,0,0,.1,0,.2,0,0,.2,0,.2-.2,0-.3-.2-.9-.4-1h0Z"/>
      <path class="st1" d="M119.9,59.1c0-.3-.1-.6-.4-.8,0,0-.1,0-.2,0,0,0,0,.2,0,.2.2.2.3.4.5.6,0,0,0,0,0,0Z"/>
    </g>
  </g>
</svg>