<?xml version="1.0" encoding="UTF-8"?>
<svg id="Layer_1" xmlns="http://www.w3.org/2000/svg" xmlns:xlink="http://www.w3.org/1999/xlink" version="1.1" viewBox="0 0 101.9 164.2">
  <!-- Generator: Adobe Illustrator 29.8.2, SVG Export Plug-In . SVG Version: 2.1.1 Build 3)  -->
  <defs>
    <style>
      .st0, .st1 {
        fill: none;
      }

      .st2 {
        fill: #96d4c8;
      }

      .st1 {
        stroke: #ec1c24;
        stroke-miterlimit: 10;
        stroke-width: .7px;
      }

      .st3 {
        fill: #ec1c24;
      }

      .st4 {
        clip-path: url(#clippath);
      }
    </style>
    <clipPath id="clippath">
      <rect class="st0" x="5.1" y="6.4" width="90.8" height="115.2"/>
    </clipPath>
  </defs>
  <rect class="st2" width="101.9" height="164.3"/>
  <g class="st4">
    <g>
      <g>
        <rect class="st3" x="23.7" y="11.5" width="4.5" height="1.3"/>
        <polygon class="st3" points="36.4 24.9 36.4 23.6 30.8 23.6 30.8 24.9 30 24.9 30 26.2 27.4 26.2 28.6 28.2 33.6 28.2 33.6 26.2 37.8 26.2 37.8 24.9 36.4 24.9"/>
        <polygon class="st3" points="28.2 16 24.3 16 23.7 14.7 28.2 14.7 28.2 16"/>
        <rect class="st3" x="45.2" y="39.6" width="12.1" height="1.3"/>
        <rect class="st3" x="42.2" y="35" width="6.5" height="1.3"/>
        <rect class="st3" x="49.3" y="43.6" width="3.9" height="1.3"/>
        <polygon class="st3" points="53.1 45.7 51.8 45.7 50.5 45.7 49.2 45.7 49.2 47 50.5 47 50.5 48.7 51.8 48.7 51.8 47 53.1 47 53.1 45.7"/>
        <polygon class="st3" points="41.5 30.5 40.1 30.5 40.1 31.5 41.5 31.5 41.5 32.9 42.5 32.9 42.5 31.5 42.5 30.5 41.5 30.5"/>
        <rect class="st3" x="54" y="35" width="6.5" height="1.3"/>
        <rect class="st3" x="45.1" y="3.8" width="12.1" height="1.3" transform="translate(46.7 55.6) rotate(-90)"/>
        <rect class="st3" x="46.6" y="32.8" width="9.1" height="1.3" transform="translate(17.8 84.6) rotate(-90)"/>
        <polygon class="st3" points="41 2.2 40.5 2.2 40.5 1 38.2 1 38.2 -1 36.9 -1 36.9 -2.7 35.7 -2.7 35.7 2.2 31.6 2.2 31.6 3.5 39.7 3.5 39.7 4.5 31.6 4.5 31.6 5.7 39.7 5.7 39.7 6.7 30.6 6.7 30.6 6 29.3 6 29.3 6.7 27.9 6.7 27.9 8 29.3 8 30.6 8 39.7 8 39.7 9.2 41 9.2 42.3 9.2 42.3 2.2 41 2.2"/>
        <polygon class="st3" points="31.6 18.7 29 16 29 11.5 31.6 9.2 31.6 18.7"/>
        <polygon class="st3" points="32.9 18.7 35.4 16 35.4 11.5 32.9 9.2 32.9 18.7"/>
        <polygon class="st3" points="27.4 24.9 29 22.8 29 19.4 27.4 17.7 27.4 24.9"/>
        <polygon class="st3" points="23.7 20.7 25.3 22.6 25.3 18.3 23.7 16.5 23.7 20.7"/>
        <path class="st3" d="M69.8,20.4v-1.7h-8.5l-1.4-2.4,2.2-3.1v-2.4h-1.7l-2,2.9-.3-.5v-2.8h-2.5l1.4-2v-2.4h-1.7l-3.1,4.5h-2.2l-3.1-4.5h-1.7v2.4l1.4,2h-2.5v2.8l-.3.5-2-2.9h-1.7v2.4l2.2,3.1-1.4,2.4h-8.2v1.7h8.1l1.7,2.9-2.4,3.4v2.4h1.7l2.3-3.2h0v2.9h2.2l-1.1,1.6v2.4h1.7l2.9-4h2.8l2.9,4h1.7v-2.4l-1.1-1.6h2.2v-2.8h0c0,0,2.2,3.2,2.2,3.2h1.7v-2.4l-2.4-3.4,1.7-2.9h8.4ZM55.6,27.2h-8.7l-4.4-7.6,4.4-7.6h8.7l4.4,7.6-4.4,7.6Z"/>
        <path class="st3" d="M53.3,16.1h-4.1l-2.1,3.6,2.1,3.6h4.1l2.1-3.6-2.1-3.6ZM52.3,21.6h-2.3l-1.1-2,1.1-2h2.3l1.1,2-1.1,2Z"/>
        <polygon class="st3" points="35.8 32.8 50.5 53.5 51.2 53.5 51.2 50.9 49.8 50.9 49.8 49 48.5 49 48.5 47.2 47.2 47.2 47.2 45.4 45.8 45.4 45.8 43.5 44.5 43.5 44.5 41.7 43.1 41.7 43.1 39.9 41.8 39.9 41.8 38.1 40.4 38.1 40.4 36.2 39.1 36.2 39.1 34.4 37.8 34.4 37.8 32.6 36.4 32.6 36.4 30.7 33.2 30.7 33.2 35.9 34.5 35.9 34.5 37.8 35.9 37.8 35.9 39.6 37.2 39.6 37.2 41.4 38.5 41.4 38.5 43.3 39.9 43.3 39.9 45.1 41.2 45.1 41.2 46.9 42.6 46.9 42.6 48.8 43.9 48.8 43.9 50.6 45.2 50.6 45.2 52.4 46.6 52.4 46.6 54.2 47.9 54.2 47.9 56.1 51.2 56.1 51.2 55.1 49.4 55.1 34.5 34.2 34.5 32.8 35.8 32.8"/>
        <rect class="st3" x="74.6" y="11.5" width="4.1" height="1.3" transform="translate(153.2 24.3) rotate(-180)"/>
        <polygon class="st3" points="66.3 24.9 66.3 23.6 72 23.6 72 24.9 72.8 24.9 72.8 26.2 75.3 26.2 74.1 28.2 69.2 28.2 69.2 26.2 65 26.2 65 24.9 66.3 24.9"/>
        <polygon class="st3" points="74.5 16 78.1 16 78.7 14.7 74.5 14.7 74.5 16"/>
        <polygon class="st3" points="60.8 30.5 62.2 30.5 62.2 31.5 60.8 31.5 60.8 32.9 59.8 32.9 59.8 31.5 59.8 30.5 60.8 30.5"/>
        <polygon class="st3" points="61.7 2.2 62.3 2.2 62.3 1 64.5 1 64.5 -1 65.8 -1 65.8 -2.7 67.1 -2.7 67.1 2.2 71.1 2.2 71.1 3.5 63 3.5 63 4.5 71.1 4.5 71.1 5.7 63 5.7 63 6.7 72.2 6.7 72.2 6 73.4 6 73.4 6.7 74.8 6.7 74.8 8 73.4 8 72.2 8 63 8 63 9.2 61.7 9.2 60.5 9.2 60.5 2.2 61.7 2.2"/>
        <polygon class="st3" points="71.1 18.7 73.7 16 73.7 11.5 71.1 9.2 71.1 18.7"/>
        <polygon class="st3" points="69.9 18.7 67.3 16 67.3 11.5 69.9 9.2 69.9 18.7"/>
        <polygon class="st3" points="75.3 24.9 73.7 22.8 73.7 19.4 75.3 17.7 75.3 24.9"/>
        <polygon class="st3" points="78.7 20.7 77 22.6 77 18.3 78.7 16.5 78.7 20.7"/>
        <polygon class="st3" points="65.9 30.7 65.9 32.6 64.6 32.6 64.6 34.4 63.3 34.4 63.3 36.2 61.9 36.2 61.9 38.1 60.6 38.1 60.6 39.9 59.2 39.9 59.2 41.7 57.9 41.7 57.9 43.5 56.5 43.5 56.5 45.4 55.2 45.4 55.2 47.2 53.9 47.2 53.9 49 52.5 49 52.5 50.9 51.2 50.9 51.2 53.5 51.9 53.5 66.6 32.8 67.8 32.8 67.8 34.2 53 55.1 51.2 55.1 51.2 56.1 54.4 56.1 54.4 54.2 55.8 54.2 55.8 52.4 57.1 52.4 57.1 50.6 58.5 50.6 58.5 48.8 59.8 48.8 59.8 46.9 61.1 46.9 61.1 45.1 62.5 45.1 62.5 43.3 63.8 43.3 63.8 41.4 65.2 41.4 65.2 39.6 66.5 39.6 66.5 37.8 67.9 37.8 67.9 35.9 69.2 35.9 69.2 30.7 65.9 30.7"/>
      </g>
      <g>
        <rect class="st3" x="23.7" y="62.6" width="4.5" height="1.3"/>
        <polygon class="st3" points="36.4 76 36.4 74.7 30.8 74.7 30.8 76 30 76 30 77.3 27.4 77.3 28.6 79.3 33.6 79.3 33.6 77.3 37.8 77.3 37.8 76 36.4 76"/>
        <polygon class="st3" points="28.2 67.1 24.3 67.1 23.7 65.8 28.2 65.8 28.2 67.1"/>
        <rect class="st3" x="45.2" y="90.7" width="12.1" height="1.3"/>
        <rect class="st3" x="42.2" y="86.2" width="6.5" height="1.3"/>
        <rect class="st3" x="49.3" y="94.7" width="3.9" height="1.3"/>
        <polygon class="st3" points="53.1 96.9 51.8 96.9 50.5 96.9 49.2 96.9 49.2 98.1 50.5 98.1 50.5 99.8 51.8 99.8 51.8 98.1 53.1 98.1 53.1 96.9"/>
        <polygon class="st3" points="41.5 81.6 40.1 81.6 40.1 82.6 41.5 82.6 41.5 84 42.5 84 42.5 82.6 42.5 81.6 41.5 81.6"/>
        <rect class="st3" x="54" y="86.2" width="6.5" height="1.3"/>
        <rect class="st3" x="48.2" y="58" width="6.1" height="1.3" transform="translate(-7.4 109.8) rotate(-90)"/>
        <rect class="st3" x="46.6" y="83.9" width="9.1" height="1.3" transform="translate(-33.3 135.7) rotate(-90)"/>
        <polygon class="st3" points="41 53.3 40.5 53.3 40.5 52.1 38.2 52.1 38.2 50.1 36.9 50.1 36.9 48.4 35.7 48.4 35.7 53.3 31.6 53.3 31.6 54.6 39.7 54.6 39.7 55.6 31.6 55.6 31.6 56.9 39.7 56.9 39.7 57.9 30.6 57.9 30.6 57.1 29.3 57.1 29.3 57.9 27.9 57.9 27.9 59.1 29.3 59.1 30.6 59.1 39.7 59.1 39.7 60.3 41 60.3 42.3 60.3 42.3 53.3 41 53.3"/>
        <polygon class="st3" points="31.6 69.9 29 67.1 29 62.6 31.6 60.3 31.6 69.9"/>
        <polygon class="st3" points="32.9 69.9 35.4 67.1 35.4 62.6 32.9 60.3 32.9 69.9"/>
        <polygon class="st3" points="27.4 76 29 73.9 29 70.5 27.4 68.8 27.4 76"/>
        <polygon class="st3" points="23.7 71.8 25.3 73.7 25.3 69.4 23.7 67.7 23.7 71.8"/>
        <path class="st3" d="M69.8,71.6v-1.7h-8.5l-1.4-2.4,2.2-3.1v-2.4h-1.7l-2,2.9-.3-.5v-2.8h-2.5l1.4-2v-2.4h-1.7l-3.1,4.5h-2.2l-3.1-4.5h-1.7v2.4l1.4,2h-2.5v2.8l-.3.5-2-2.9h-1.7v2.4l2.2,3.1-1.4,2.4h-8.2v1.7h8.1l1.7,2.9-2.4,3.4v2.4h1.7l2.3-3.2h0v2.9h2.2l-1.1,1.6v2.4h1.7l2.9-4h2.8l2.9,4h1.7v-2.4l-1.1-1.6h2.2v-2.8h0c0,0,2.2,3.2,2.2,3.2h1.7v-2.4l-2.4-3.4,1.7-2.9h8.4ZM55.6,78.3h-8.7l-4.4-7.6,4.4-7.6h8.7l4.4,7.6-4.4,7.6Z"/>
        <path class="st3" d="M53.3,67.2h-4.1l-2.1,3.6,2.1,3.6h4.1l2.1-3.6-2.1-3.6ZM52.3,72.7h-2.3l-1.1-2,1.1-2h2.3l1.1,2-1.1,2Z"/>
        <polygon class="st3" points="35.8 84 50.5 104.6 51.2 104.6 51.2 102 49.8 102 49.8 100.2 48.5 100.2 48.5 98.3 47.2 98.3 47.2 96.5 45.8 96.5 45.8 94.7 44.5 94.7 44.5 92.8 43.1 92.8 43.1 91 41.8 91 41.8 89.2 40.4 89.2 40.4 87.3 39.1 87.3 39.1 85.5 37.8 85.5 37.8 83.7 36.4 83.7 36.4 81.9 33.2 81.9 33.2 87.1 34.5 87.1 34.5 88.9 35.9 88.9 35.9 90.7 37.2 90.7 37.2 92.6 38.5 92.6 38.5 94.4 39.9 94.4 39.9 96.2 41.2 96.2 41.2 98 42.6 98 42.6 99.9 43.9 99.9 43.9 101.7 45.2 101.7 45.2 103.5 46.6 103.5 46.6 105.4 47.9 105.4 47.9 107.2 51.2 107.2 51.2 106.3 49.4 106.3 34.5 85.3 34.5 84 35.8 84"/>
        <rect class="st3" x="74.6" y="62.6" width="4.1" height="1.3" transform="translate(153.2 126.5) rotate(-180)"/>
        <polygon class="st3" points="66.3 76 66.3 74.7 72 74.7 72 76 72.8 76 72.8 77.3 75.3 77.3 74.1 79.3 69.2 79.3 69.2 77.3 65 77.3 65 76 66.3 76"/>
        <polygon class="st3" points="74.5 67.1 78.1 67.1 78.7 65.8 74.5 65.8 74.5 67.1"/>
        <polygon class="st3" points="60.8 81.6 62.2 81.6 62.2 82.6 60.8 82.6 60.8 84 59.8 84 59.8 82.6 59.8 81.6 60.8 81.6"/>
        <polygon class="st3" points="61.7 53.3 62.3 53.3 62.3 52.1 64.5 52.1 64.5 50.1 65.8 50.1 65.8 48.4 67.1 48.4 67.1 53.3 71.1 53.3 71.1 54.6 63 54.6 63 55.6 71.1 55.6 71.1 56.9 63 56.9 63 57.9 72.2 57.9 72.2 57.1 73.4 57.1 73.4 57.9 74.8 57.9 74.8 59.1 73.4 59.1 72.2 59.1 63 59.1 63 60.3 61.7 60.3 60.5 60.3 60.5 53.3 61.7 53.3"/>
        <polygon class="st3" points="71.1 69.9 73.7 67.1 73.7 62.6 71.1 60.3 71.1 69.9"/>
        <polygon class="st3" points="69.9 69.9 67.3 67.1 67.3 62.6 69.9 60.3 69.9 69.9"/>
        <polygon class="st3" points="75.3 76 73.7 73.9 73.7 70.5 75.3 68.8 75.3 76"/>
        <polygon class="st3" points="78.7 71.8 77 73.7 77 69.4 78.7 67.7 78.7 71.8"/>
        <polygon class="st3" points="65.9 81.9 65.9 83.7 64.6 83.7 64.6 85.5 63.3 85.5 63.3 87.3 61.9 87.3 61.9 89.2 60.6 89.2 60.6 91 59.2 91 59.2 92.8 57.9 92.8 57.9 94.7 56.5 94.7 56.5 96.5 55.2 96.5 55.2 98.3 53.9 98.3 53.9 100.2 52.5 100.2 52.5 102 51.2 102 51.2 104.6 51.9 104.6 66.6 84 67.8 84 67.8 85.3 53 106.3 51.2 106.3 51.2 107.2 54.4 107.2 54.4 105.4 55.8 105.4 55.8 103.5 57.1 103.5 57.1 101.7 58.5 101.7 58.5 99.9 59.8 99.9 59.8 98 61.1 98 61.1 96.2 62.5 96.2 62.5 94.4 63.8 94.4 63.8 92.6 65.2 92.6 65.2 90.7 66.5 90.7 66.5 88.9 67.9 88.9 67.9 87.1 69.2 87.1 69.2 81.9 65.9 81.9"/>
      </g>
      <g>
        <rect class="st3" x="23.7" y="113.4" width="4.5" height="1.3"/>
        <polygon class="st3" points="36.4 126.8 36.4 125.5 30.8 125.5 30.8 126.8 30 126.8 30 128 27.4 128 28.6 130.1 33.6 130.1 33.6 128 37.8 128 37.8 126.8 36.4 126.8"/>
        <polygon class="st3" points="28.2 117.8 24.3 117.8 23.7 116.6 28.2 116.6 28.2 117.8"/>
        <rect class="st3" x="45.2" y="141.5" width="12.1" height="1.3"/>
        <rect class="st3" x="42.2" y="136.9" width="6.5" height="1.3"/>
        <rect class="st3" x="49.3" y="145.5" width="3.9" height="1.3"/>
        <polygon class="st3" points="53.1 147.6 51.8 147.6 50.5 147.6 49.2 147.6 49.2 148.9 50.5 148.9 50.5 150.6 51.8 150.6 51.8 148.9 53.1 148.9 53.1 147.6"/>
        <polygon class="st3" points="41.5 132.4 40.1 132.4 40.1 133.4 41.5 133.4 41.5 134.8 42.5 134.8 42.5 133.4 42.5 132.4 41.5 132.4"/>
        <rect class="st3" x="54" y="136.9" width="6.5" height="1.3"/>
        <rect class="st3" x="48.2" y="108.7" width="6.1" height="1.3" transform="translate(-58.2 160.6) rotate(-90)"/>
        <rect class="st3" x="46.6" y="134.7" width="9.1" height="1.3" transform="translate(-84.1 186.5) rotate(-90)"/>
        <polygon class="st3" points="41 104.1 40.5 104.1 40.5 102.9 38.2 102.9 38.2 100.9 36.9 100.9 36.9 99.2 35.7 99.2 35.7 104.1 31.6 104.1 31.6 105.3 39.7 105.3 39.7 106.3 31.6 106.3 31.6 107.6 39.7 107.6 39.7 108.6 30.6 108.6 30.6 107.8 29.3 107.8 29.3 108.6 27.9 108.6 27.9 109.9 29.3 109.9 30.6 109.9 39.7 109.9 39.7 111.1 41 111.1 42.3 111.1 42.3 104.1 41 104.1"/>
        <polygon class="st3" points="31.6 120.6 29 117.8 29 113.4 31.6 111.1 31.6 120.6"/>
        <polygon class="st3" points="32.9 120.6 35.4 117.8 35.4 113.4 32.9 111.1 32.9 120.6"/>
        <polygon class="st3" points="27.4 126.8 29 124.7 29 121.3 27.4 119.5 27.4 126.8"/>
        <polygon class="st3" points="23.7 122.5 25.3 124.5 25.3 120.2 23.7 118.4 23.7 122.5"/>
        <path class="st3" d="M69.8,122.3v-1.7h-8.5l-1.4-2.4,2.2-3.1v-2.4h-1.7l-2,2.9-.3-.5v-2.8h-2.5l1.4-2v-2.4h-1.7l-3.1,4.5h-2.2l-3.1-4.5h-1.7v2.4l1.4,2h-2.5v2.8l-.3.5-2-2.9h-1.7v2.4l2.2,3.1-1.4,2.4h-8.2v1.7h8.1l1.7,2.9-2.4,3.4v2.4h1.7l2.3-3.2h0v2.9h2.2l-1.1,1.6v2.4h1.7l2.9-4h2.8l2.9,4h1.7v-2.4l-1.1-1.6h2.2v-2.8h0c0,0,2.2,3.2,2.2,3.2h1.7v-2.4l-2.4-3.4,1.7-2.9h8.4ZM55.6,129.1h-8.7l-4.4-7.6,4.4-7.6h8.7l4.4,7.6-4.4,7.6Z"/>
        <path class="st3" d="M53.3,117.9h-4.1l-2.1,3.6,2.1,3.6h4.1l2.1-3.6-2.1-3.6ZM52.3,123.5h-2.3l-1.1-2,1.1-2h2.3l1.1,2-1.1,2Z"/>
        <polygon class="st3" points="35.8 134.7 50.5 155.4 51.2 155.4 51.2 152.7 49.8 152.7 49.8 150.9 48.5 150.9 48.5 149.1 47.2 149.1 47.2 147.2 45.8 147.2 45.8 145.4 44.5 145.4 44.5 143.6 43.1 143.6 43.1 141.8 41.8 141.8 41.8 139.9 40.4 139.9 40.4 138.1 39.1 138.1 39.1 136.3 37.8 136.3 37.8 134.4 36.4 134.4 36.4 132.6 33.2 132.6 33.2 137.8 34.5 137.8 34.5 139.6 35.9 139.6 35.9 141.5 37.2 141.5 37.2 143.3 38.5 143.3 38.5 145.1 39.9 145.1 39.9 147 41.2 147 41.2 148.8 42.6 148.8 42.6 150.6 43.9 150.6 43.9 152.5 45.2 152.5 45.2 154.3 46.6 154.3 46.6 156.1 47.9 156.1 47.9 157.9 51.2 157.9 51.2 157 49.4 157 34.5 136.1 34.5 134.7 35.8 134.7"/>
        <rect class="st3" x="74.6" y="113.4" width="4.1" height="1.3" transform="translate(153.2 228) rotate(-180)"/>
        <polygon class="st3" points="66.3 126.8 66.3 125.5 72 125.5 72 126.8 72.8 126.8 72.8 128 75.3 128 74.1 130.1 69.2 130.1 69.2 128 65 128 65 126.8 66.3 126.8"/>
        <polygon class="st3" points="74.5 117.8 78.1 117.8 78.7 116.6 74.5 116.6 74.5 117.8"/>
        <polygon class="st3" points="60.8 132.4 62.2 132.4 62.2 133.4 60.8 133.4 60.8 134.8 59.8 134.8 59.8 133.4 59.8 132.4 60.8 132.4"/>
        <polygon class="st3" points="61.7 104.1 62.3 104.1 62.3 102.9 64.5 102.9 64.5 100.9 65.8 100.9 65.8 99.2 67.1 99.2 67.1 104.1 71.1 104.1 71.1 105.3 63 105.3 63 106.3 71.1 106.3 71.1 107.6 63 107.6 63 108.6 72.2 108.6 72.2 107.8 73.4 107.8 73.4 108.6 74.8 108.6 74.8 109.9 73.4 109.9 72.2 109.9 63 109.9 63 111.1 61.7 111.1 60.5 111.1 60.5 104.1 61.7 104.1"/>
        <polygon class="st3" points="71.1 120.6 73.7 117.8 73.7 113.4 71.1 111.1 71.1 120.6"/>
        <polygon class="st3" points="69.9 120.6 67.3 117.8 67.3 113.4 69.9 111.1 69.9 120.6"/>
        <polygon class="st3" points="75.3 126.8 73.7 124.7 73.7 121.3 75.3 119.5 75.3 126.8"/>
        <polygon class="st3" points="78.7 122.5 77 124.5 77 120.2 78.7 118.4 78.7 122.5"/>
        <polygon class="st3" points="65.9 132.6 65.9 134.4 64.6 134.4 64.6 136.3 63.3 136.3 63.3 138.1 61.9 138.1 61.9 139.9 60.6 139.9 60.6 141.8 59.2 141.8 59.2 143.6 57.9 143.6 57.9 145.4 56.5 145.4 56.5 147.2 55.2 147.2 55.2 149.1 53.9 149.1 53.9 150.9 52.5 150.9 52.5 152.7 51.2 152.7 51.2 155.4 51.9 155.4 66.6 134.7 67.8 134.7 67.8 136.1 53 157 51.2 157 51.2 157.9 54.4 157.9 54.4 156.1 55.8 156.1 55.8 154.3 57.1 154.3 57.1 152.5 58.5 152.5 58.5 150.6 59.8 150.6 59.8 148.8 61.1 148.8 61.1 147 62.5 147 62.5 145.1 63.8 145.1 63.8 143.3 65.2 143.3 65.2 141.5 66.5 141.5 66.5 139.6 67.9 139.6 67.9 137.8 69.2 137.8 69.2 132.6 65.9 132.6"/>
      </g>
      <g>
        <rect class="st3" x="-23.5" y="86.3" width="4.5" height="1.3"/>
        <polygon class="st3" points="-10.7 99.7 -10.7 98.4 -16.4 98.4 -16.4 99.7 -17.2 99.7 -17.2 101 -19.7 101 -18.5 103 -13.5 103 -13.5 101 -9.3 101 -9.3 99.7 -10.7 99.7"/>
        <polygon class="st3" points="-18.9 90.8 -22.8 90.8 -23.5 89.5 -18.9 89.5 -18.9 90.8"/>
        <rect class="st3" x="-2" y="114.4" width="12.1" height="1.3"/>
        <rect class="st3" x="-5" y="109.9" width="6.5" height="1.3"/>
        <rect class="st3" x="2.1" y="118.5" width="3.9" height="1.3"/>
        <polygon class="st3" points="6 120.6 4.7 120.6 3.4 120.6 2.1 120.6 2.1 121.8 3.4 121.8 3.4 123.5 4.7 123.5 4.7 121.8 6 121.8 6 120.6"/>
        <polygon class="st3" points="-5.6 105.3 -7 105.3 -7 106.3 -5.6 106.3 -5.6 107.7 -4.6 107.7 -4.6 106.3 -4.6 105.3 -5.6 105.3"/>
        <rect class="st3" x="6.9" y="109.9" width="6.5" height="1.3"/>
        <rect class="st3" x="1.1" y="81.7" width="6.1" height="1.3" transform="translate(-78.2 86.4) rotate(-90)"/>
        <rect class="st3" x="-.5" y="107.6" width="9.1" height="1.3" transform="translate(-104.2 112.3) rotate(-90)"/>
        <polygon class="st3" points="-6.1 77 -6.6 77 -6.6 75.8 -8.9 75.8 -8.9 73.8 -10.2 73.8 -10.2 72.1 -11.4 72.1 -11.4 77 -15.5 77 -15.5 78.3 -7.4 78.3 -7.4 79.3 -15.5 79.3 -15.5 80.6 -7.4 80.6 -7.4 81.6 -16.5 81.6 -16.5 80.8 -17.8 80.8 -17.8 81.6 -19.2 81.6 -19.2 82.8 -17.8 82.8 -16.5 82.8 -7.4 82.8 -7.4 84 -6.1 84 -4.8 84 -4.8 77 -6.1 77"/>
        <polygon class="st3" points="-15.5 93.6 -18.1 90.8 -18.1 86.3 -15.5 84 -15.5 93.6"/>
        <polygon class="st3" points="-14.2 93.6 -11.7 90.8 -11.7 86.3 -14.2 84 -14.2 93.6"/>
        <polygon class="st3" points="-19.7 99.7 -18.1 97.6 -18.1 94.2 -19.7 92.5 -19.7 99.7"/>
        <polygon class="st3" points="-23.5 95.5 -21.8 97.4 -21.8 93.1 -23.5 91.4 -23.5 95.5"/>
        <path class="st3" d="M22.7,95.3v-1.7h-8.5l-1.4-2.4,2.2-3.1v-2.4h-1.7l-2,2.9-.3-.5v-2.8h-2.5l1.4-2v-2.4h-1.7l-3.1,4.5h-2.2l-3.1-4.5h-1.7v2.4l1.4,2h-2.5v2.8l-.3.5-2-2.9h-1.7v2.4l2.2,3.1-1.4,2.4h-8.2v1.7H-6.1l1.7,2.9-2.4,3.4v2.4h1.7l2.3-3.2h0v2.9H-.7l-1.1,1.6v2.4H-.2l2.9-4h2.8l2.9,4h1.7v-2.4l-1.1-1.6h2.2v-2.8h0c0,0,2.2,3.2,2.2,3.2h1.7v-2.4l-2.4-3.4,1.7-2.9h8.4ZM8.5,102H-.3l-4.4-7.6,4.4-7.6h8.7l4.4,7.6-4.4,7.6Z"/>
        <path class="st3" d="M6.1,90.9H2L0,94.5l2.1,3.6h4.1l2.1-3.6-2.1-3.6ZM5.2,96.4h-2.3l-1.1-2,1.1-2h2.3l1.1,2-1.1,2Z"/>
        <polygon class="st3" points="-11.3 107.7 3.4 128.3 4.1 128.3 4.1 125.7 2.7 125.7 2.7 123.9 1.4 123.9 1.4 122 0 122 0 120.2 -1.3 120.2 -1.3 118.4 -2.6 118.4 -2.6 116.5 -4 116.5 -4 114.7 -5.3 114.7 -5.3 112.9 -6.7 112.9 -6.7 111 -8 111 -8 109.2 -9.3 109.2 -9.3 107.4 -10.7 107.4 -10.7 105.6 -13.9 105.6 -13.9 110.8 -12.6 110.8 -12.6 112.6 -11.3 112.6 -11.3 114.4 -9.9 114.4 -9.9 116.3 -8.6 116.3 -8.6 118.1 -7.2 118.1 -7.2 119.9 -5.9 119.9 -5.9 121.7 -4.5 121.7 -4.5 123.6 -3.2 123.6 -3.2 125.4 -1.9 125.4 -1.9 127.2 -.5 127.2 -.5 129.1 .8 129.1 .8 130.9 4.1 130.9 4.1 130 2.3 130 -12.6 109 -12.6 107.7 -11.3 107.7"/>
        <rect class="st3" x="27.4" y="86.3" width="4.1" height="1.3" transform="translate(59 173.9) rotate(-180)"/>
        <polygon class="st3" points="19.2 99.7 19.2 98.4 24.9 98.4 24.9 99.7 25.7 99.7 25.7 101 28.2 101 27 103 22 103 22 101 17.9 101 17.9 99.7 19.2 99.7"/>
        <polygon class="st3" points="27.4 90.8 31 90.8 31.6 89.5 27.4 89.5 27.4 90.8"/>
        <polygon class="st3" points="13.7 105.3 15.1 105.3 15.1 106.3 13.7 106.3 13.7 107.7 12.7 107.7 12.7 106.3 12.7 105.3 13.7 105.3"/>
        <polygon class="st3" points="14.6 77 15.2 77 15.2 75.8 17.4 75.8 17.4 73.8 18.7 73.8 18.7 72.1 20 72.1 20 77 24 77 24 78.3 15.9 78.3 15.9 79.3 24 79.3 24 80.6 15.9 80.6 15.9 81.6 25 81.6 25 80.8 26.3 80.8 26.3 81.6 27.7 81.6 27.7 82.8 26.3 82.8 25 82.8 15.9 82.8 15.9 84 14.6 84 13.3 84 13.3 77 14.6 77"/>
        <polygon class="st3" points="24 93.6 26.6 90.8 26.6 86.3 24 84 24 93.6"/>
        <polygon class="st3" points="22.8 93.6 20.2 90.8 20.2 86.3 22.8 84 22.8 93.6"/>
        <polygon class="st3" points="28.2 99.7 26.6 97.6 26.6 94.2 28.2 92.5 28.2 99.7"/>
        <polygon class="st3" points="31.6 95.5 29.9 97.4 29.9 93.1 31.6 91.4 31.6 95.5"/>
        <polygon class="st3" points="18.8 105.6 18.8 107.4 17.5 107.4 17.5 109.2 16.1 109.2 16.1 111 14.8 111 14.8 112.9 13.5 112.9 13.5 114.7 12.1 114.7 12.1 116.5 10.8 116.5 10.8 118.4 9.4 118.4 9.4 120.2 8.1 120.2 8.1 122 6.8 122 6.8 123.9 5.4 123.9 5.4 125.7 4.1 125.7 4.1 128.3 4.8 128.3 19.5 107.7 20.7 107.7 20.7 109 5.9 130 4.1 130 4.1 130.9 7.3 130.9 7.3 129.1 8.7 129.1 8.7 127.2 10 127.2 10 125.4 11.3 125.4 11.3 123.6 12.7 123.6 12.7 121.7 14 121.7 14 119.9 15.4 119.9 15.4 118.1 16.7 118.1 16.7 116.3 18.1 116.3 18.1 114.4 19.4 114.4 19.4 112.6 20.7 112.6 20.7 110.8 22.1 110.8 22.1 105.6 18.8 105.6"/>
      </g>
      <g>
        <rect class="st3" x="69.6" y="86.3" width="4.5" height="1.3"/>
        <polygon class="st3" points="82.3 99.7 82.3 98.4 76.7 98.4 76.7 99.7 75.9 99.7 75.9 101 73.3 101 74.6 103 79.5 103 79.5 101 83.7 101 83.7 99.7 82.3 99.7"/>
        <polygon class="st3" points="74.1 90.8 70.3 90.8 69.6 89.5 74.1 89.5 74.1 90.8"/>
        <rect class="st3" x="91.1" y="114.4" width="12.1" height="1.3"/>
        <rect class="st3" x="88.1" y="109.9" width="6.5" height="1.3"/>
        <rect class="st3" x="95.2" y="118.5" width="3.9" height="1.3"/>
        <polygon class="st3" points="99 120.6 97.7 120.6 96.5 120.6 95.2 120.6 95.2 121.8 96.5 121.8 96.5 123.5 97.7 123.5 97.7 121.8 99 121.8 99 120.6"/>
        <polygon class="st3" points="87.5 105.3 86.1 105.3 86.1 106.3 87.5 106.3 87.5 107.7 88.5 107.7 88.5 106.3 88.5 105.3 87.5 105.3"/>
        <rect class="st3" x="99.9" y="109.9" width="6.5" height="1.3"/>
        <rect class="st3" x="94.1" y="81.7" width="6.1" height="1.3" transform="translate(14.8 179.4) rotate(-90)"/>
        <rect class="st3" x="92.6" y="107.6" width="9.1" height="1.3" transform="translate(-11.1 205.4) rotate(-90)"/>
        <polygon class="st3" points="86.9 77 86.4 77 86.4 75.8 84.1 75.8 84.1 73.8 82.9 73.8 82.9 72.1 81.6 72.1 81.6 77 77.6 77 77.6 78.3 85.7 78.3 85.7 79.3 77.6 79.3 77.6 80.6 85.7 80.6 85.7 81.6 76.5 81.6 76.5 80.8 75.2 80.8 75.2 81.6 73.8 81.6 73.8 82.8 75.2 82.8 76.5 82.8 85.7 82.8 85.7 84 86.9 84 88.2 84 88.2 77 86.9 77"/>
        <polygon class="st3" points="77.5 93.6 75 90.8 75 86.3 77.5 84 77.5 93.6"/>
        <polygon class="st3" points="78.8 93.6 81.3 90.8 81.3 86.3 78.8 84 78.8 93.6"/>
        <polygon class="st3" points="73.3 99.7 74.9 97.6 74.9 94.2 73.3 92.5 73.3 99.7"/>
        <polygon class="st3" points="69.6 95.5 71.2 97.4 71.2 93.1 69.6 91.4 69.6 95.5"/>
        <path class="st3" d="M115.7,95.3v-1.7h-8.5l-1.4-2.4,2.2-3.1v-2.4h-1.7l-2,2.9-.3-.5v-2.8h-2.5l1.4-2v-2.4h-1.7l-3.1,4.5h-2.2l-3.1-4.5h-1.7v2.4l1.4,2h-2.5v2.8l-.3.5-2-2.9h-1.7v2.4l2.2,3.1-1.4,2.4h-8.2v1.7h8.1l1.7,2.9-2.4,3.4v2.4h1.7l2.3-3.2h0v2.9h2.2l-1.1,1.6v2.4h1.7l2.9-4h2.8l2.9,4h1.7v-2.4l-1.1-1.6h2.2v-2.8h0c0,0,2.2,3.2,2.2,3.2h1.7v-2.4l-2.4-3.4,1.7-2.9h8.4ZM101.5,102h-8.7l-4.4-7.6,4.4-7.6h8.7l4.4,7.6-4.4,7.6Z"/>
        <path class="st3" d="M99.2,90.9h-4.1l-2.1,3.6,2.1,3.6h4.1l2.1-3.6-2.1-3.6ZM98.2,96.4h-2.3l-1.1-2,1.1-2h2.3l1.1,2-1.1,2Z"/>
        <polygon class="st3" points="81.7 107.7 96.4 128.3 97.1 128.3 97.1 125.7 95.8 125.7 95.8 123.9 94.4 123.9 94.4 122 93.1 122 93.1 120.2 91.7 120.2 91.7 118.4 90.4 118.4 90.4 116.5 89.1 116.5 89.1 114.7 87.7 114.7 87.7 112.9 86.4 112.9 86.4 111 85 111 85 109.2 83.7 109.2 83.7 107.4 82.3 107.4 82.3 105.6 79.1 105.6 79.1 110.8 80.4 110.8 80.4 112.6 81.8 112.6 81.8 114.4 83.1 114.4 83.1 116.3 84.5 116.3 84.5 118.1 85.8 118.1 85.8 119.9 87.1 119.9 87.1 121.7 88.5 121.7 88.5 123.6 89.8 123.6 89.8 125.4 91.2 125.4 91.2 127.2 92.5 127.2 92.5 129.1 93.8 129.1 93.8 130.9 97.1 130.9 97.1 130 95.3 130 80.5 109 80.5 107.7 81.7 107.7"/>
        <rect class="st3" x="120.5" y="86.3" width="4.1" height="1.3" transform="translate(245.1 173.9) rotate(-180)"/>
        <polygon class="st3" points="112.2 99.7 112.2 98.4 117.9 98.4 117.9 99.7 118.7 99.7 118.7 101 121.3 101 120 103 115.1 103 115.1 101 110.9 101 110.9 99.7 112.2 99.7"/>
        <polygon class="st3" points="120.4 90.8 124 90.8 124.6 89.5 120.4 89.5 120.4 90.8"/>
        <polygon class="st3" points="106.8 105.3 108.1 105.3 108.1 106.3 106.8 106.3 106.8 107.7 105.7 107.7 105.7 106.3 105.7 105.3 106.8 105.3"/>
        <polygon class="st3" points="107.7 77 108.2 77 108.2 75.8 110.4 75.8 110.4 73.8 111.7 73.8 111.7 72.1 113 72.1 113 77 117 77 117 78.3 108.9 78.3 108.9 79.3 117 79.3 117 80.6 108.9 80.6 108.9 81.6 118.1 81.6 118.1 80.8 119.3 80.8 119.3 81.6 120.7 81.6 120.7 82.8 119.3 82.8 118.1 82.8 108.9 82.8 108.9 84 107.7 84 106.4 84 106.4 77 107.7 77"/>
        <polygon class="st3" points="117.1 93.6 119.6 90.8 119.6 86.3 117.1 84 117.1 93.6"/>
        <polygon class="st3" points="115.8 93.6 113.2 90.8 113.2 86.3 115.8 84 115.8 93.6"/>
        <polygon class="st3" points="121.3 99.7 119.6 97.6 119.6 94.2 121.3 92.5 121.3 99.7"/>
        <polygon class="st3" points="124.6 95.5 123 97.4 123 93.1 124.6 91.4 124.6 95.5"/>
        <polygon class="st3" points="111.9 105.6 111.9 107.4 110.5 107.4 110.5 109.2 109.2 109.2 109.2 111 107.8 111 107.8 112.9 106.5 112.9 106.5 114.7 105.2 114.7 105.2 116.5 103.8 116.5 103.8 118.4 102.5 118.4 102.5 120.2 101.1 120.2 101.1 122 99.8 122 99.8 123.9 98.4 123.9 98.4 125.7 97.1 125.7 97.1 128.3 97.8 128.3 112.5 107.7 113.8 107.7 113.8 109 98.9 130 97.1 130 97.1 130.9 100.4 130.9 100.4 129.1 101.7 129.1 101.7 127.2 103 127.2 103 125.4 104.4 125.4 104.4 123.6 105.7 123.6 105.7 121.7 107.1 121.7 107.1 119.9 108.4 119.9 108.4 118.1 109.7 118.1 109.7 116.3 111.1 116.3 111.1 114.4 112.4 114.4 112.4 112.6 113.8 112.6 113.8 110.8 115.1 110.8 115.1 105.6 111.9 105.6"/>
      </g>
      <g>
        <rect class="st3" x="69.6" y="35.8" width="4.5" height="1.3"/>
        <polygon class="st3" points="82.3 49.2 82.3 47.9 76.7 47.9 76.7 49.2 75.9 49.2 75.9 50.4 73.3 50.4 74.6 52.5 79.5 52.5 79.5 50.4 83.7 50.4 83.7 49.2 82.3 49.2"/>
        <polygon class="st3" points="74.1 40.2 70.3 40.2 69.6 39 74.1 39 74.1 40.2"/>
        <rect class="st3" x="91.1" y="63.9" width="12.1" height="1.3"/>
        <rect class="st3" x="88.1" y="59.3" width="6.5" height="1.3"/>
        <rect class="st3" x="95.2" y="67.9" width="3.9" height="1.3"/>
        <polygon class="st3" points="99 70 97.7 70 96.5 70 95.2 70 95.2 71.3 96.5 71.3 96.5 73 97.7 73 97.7 71.3 99 71.3 99 70"/>
        <polygon class="st3" points="87.5 54.8 86.1 54.8 86.1 55.8 87.5 55.8 87.5 57.2 88.5 57.2 88.5 55.8 88.5 54.8 87.5 54.8"/>
        <rect class="st3" x="99.9" y="59.3" width="6.5" height="1.3"/>
        <rect class="st3" x="94.1" y="31.1" width="6.1" height="1.3" transform="translate(65.4 128.9) rotate(-90)"/>
        <rect class="st3" x="92.6" y="57.1" width="9.1" height="1.3" transform="translate(39.4 154.8) rotate(-90)"/>
        <polygon class="st3" points="86.9 26.5 86.4 26.5 86.4 25.3 84.1 25.3 84.1 23.3 82.9 23.3 82.9 21.6 81.6 21.6 81.6 26.5 77.6 26.5 77.6 27.7 85.7 27.7 85.7 28.7 77.6 28.7 77.6 30 85.7 30 85.7 31 76.5 31 76.5 30.3 75.2 30.3 75.2 31 73.8 31 73.8 32.3 75.2 32.3 76.5 32.3 85.7 32.3 85.7 33.5 86.9 33.5 88.2 33.5 88.2 26.5 86.9 26.5"/>
        <polygon class="st3" points="77.5 43 75 40.2 75 35.8 77.5 33.5 77.5 43"/>
        <polygon class="st3" points="78.8 43 81.3 40.2 81.3 35.8 78.8 33.5 78.8 43"/>
        <polygon class="st3" points="73.3 49.2 74.9 47.1 74.9 43.7 73.3 41.9 73.3 49.2"/>
        <polygon class="st3" points="69.6 44.9 71.2 46.9 71.2 42.6 69.6 40.8 69.6 44.9"/>
        <path class="st3" d="M115.7,44.7v-1.7h-8.5l-1.4-2.4,2.2-3.1v-2.4h-1.7l-2,2.9-.3-.5v-2.8h-2.5l1.4-2v-2.4h-1.7l-3.1,4.5h-2.2l-3.1-4.5h-1.7v2.4l1.4,2h-2.5v2.8l-.3.5-2-2.9h-1.7v2.4l2.2,3.1-1.4,2.4h-8.2v1.7h8.1l1.7,2.9-2.4,3.4v2.4h1.7l2.3-3.2h0v2.9h2.2l-1.1,1.6v2.4h1.7l2.9-4h2.8l2.9,4h1.7v-2.4l-1.1-1.6h2.2v-2.8h0c0,0,2.2,3.2,2.2,3.2h1.7v-2.4l-2.4-3.4,1.7-2.9h8.4ZM101.5,51.5h-8.7l-4.4-7.6,4.4-7.6h8.7l4.4,7.6-4.4,7.6Z"/>
        <path class="st3" d="M99.2,40.3h-4.1l-2.1,3.6,2.1,3.6h4.1l2.1-3.6-2.1-3.6ZM98.2,45.9h-2.3l-1.1-2,1.1-2h2.3l1.1,2-1.1,2Z"/>
        <polygon class="st3" points="81.7 57.1 96.4 77.8 97.1 77.8 97.1 75.1 95.8 75.1 95.8 73.3 94.4 73.3 94.4 71.5 93.1 71.5 93.1 69.7 91.7 69.7 91.7 67.8 90.4 67.8 90.4 66 89.1 66 89.1 64.2 87.7 64.2 87.7 62.3 86.4 62.3 86.4 60.5 85 60.5 85 58.7 83.7 58.7 83.7 56.8 82.3 56.8 82.3 55 79.1 55 79.1 60.2 80.4 60.2 80.4 62.1 81.8 62.1 81.8 63.9 83.1 63.9 83.1 65.7 84.5 65.7 84.5 67.5 85.8 67.5 85.8 69.4 87.1 69.4 87.1 71.2 88.5 71.2 88.5 73 89.8 73 89.8 74.9 91.2 74.9 91.2 76.7 92.5 76.7 92.5 78.5 93.8 78.5 93.8 80.4 97.1 80.4 97.1 79.4 95.3 79.4 80.5 58.5 80.5 57.1 81.7 57.1"/>
        <rect class="st3" x="120.5" y="35.8" width="4.1" height="1.3" transform="translate(245.1 72.9) rotate(-180)"/>
        <polygon class="st3" points="112.2 49.2 112.2 47.9 117.9 47.9 117.9 49.2 118.7 49.2 118.7 50.4 121.3 50.4 120 52.5 115.1 52.5 115.1 50.4 110.9 50.4 110.9 49.2 112.2 49.2"/>
        <polygon class="st3" points="120.4 40.2 124 40.2 124.6 39 120.4 39 120.4 40.2"/>
        <polygon class="st3" points="106.8 54.8 108.1 54.8 108.1 55.8 106.8 55.8 106.8 57.2 105.7 57.2 105.7 55.8 105.7 54.8 106.8 54.8"/>
        <polygon class="st3" points="107.7 26.5 108.2 26.5 108.2 25.3 110.4 25.3 110.4 23.3 111.7 23.3 111.7 21.6 113 21.6 113 26.5 117 26.5 117 27.7 108.9 27.7 108.9 28.7 117 28.7 117 30 108.9 30 108.9 31 118.1 31 118.1 30.3 119.3 30.3 119.3 31 120.7 31 120.7 32.3 119.3 32.3 118.1 32.3 108.9 32.3 108.9 33.5 107.7 33.5 106.4 33.5 106.4 26.5 107.7 26.5"/>
        <polygon class="st3" points="117.1 43 119.6 40.2 119.6 35.8 117.1 33.5 117.1 43"/>
        <polygon class="st3" points="115.8 43 113.2 40.2 113.2 35.8 115.8 33.5 115.8 43"/>
        <polygon class="st3" points="121.3 49.2 119.6 47.1 119.6 43.7 121.3 41.9 121.3 49.2"/>
        <polygon class="st3" points="124.6 44.9 123 46.9 123 42.6 124.6 40.8 124.6 44.9"/>
        <polygon class="st3" points="111.9 55 111.9 56.8 110.5 56.8 110.5 58.7 109.2 58.7 109.2 60.5 107.8 60.5 107.8 62.3 106.5 62.3 106.5 64.2 105.2 64.2 105.2 66 103.8 66 103.8 67.8 102.5 67.8 102.5 69.7 101.1 69.7 101.1 71.5 99.8 71.5 99.8 73.3 98.4 73.3 98.4 75.1 97.1 75.1 97.1 77.8 97.8 77.8 112.5 57.1 113.8 57.1 113.8 58.5 98.9 79.4 97.1 79.4 97.1 80.4 100.4 80.4 100.4 78.5 101.7 78.5 101.7 76.7 103 76.7 103 74.9 104.4 74.9 104.4 73 105.7 73 105.7 71.2 107.1 71.2 107.1 69.4 108.4 69.4 108.4 67.5 109.7 67.5 109.7 65.7 111.1 65.7 111.1 63.9 112.4 63.9 112.4 62.1 113.8 62.1 113.8 60.2 115.1 60.2 115.1 55 111.9 55"/>
      </g>
      <g>
        <rect class="st3" x="-23.5" y="35.8" width="4.5" height="1.3"/>
        <polygon class="st3" points="-10.7 49.2 -10.7 47.9 -16.4 47.9 -16.4 49.2 -17.2 49.2 -17.2 50.4 -19.7 50.4 -18.5 52.5 -13.5 52.5 -13.5 50.4 -9.3 50.4 -9.3 49.2 -10.7 49.2"/>
        <polygon class="st3" points="-18.9 40.2 -22.8 40.2 -23.5 39 -18.9 39 -18.9 40.2"/>
        <rect class="st3" x="-2" y="63.9" width="12.1" height="1.3"/>
        <rect class="st3" x="-5" y="59.3" width="6.5" height="1.3"/>
        <rect class="st3" x="2.1" y="67.9" width="3.9" height="1.3"/>
        <polygon class="st3" points="6 70 4.7 70 3.4 70 2.1 70 2.1 71.3 3.4 71.3 3.4 73 4.7 73 4.7 71.3 6 71.3 6 70"/>
        <polygon class="st3" points="-5.6 54.8 -7 54.8 -7 55.8 -5.6 55.8 -5.6 57.2 -4.6 57.2 -4.6 55.8 -4.6 54.8 -5.6 54.8"/>
        <rect class="st3" x="6.9" y="59.3" width="6.5" height="1.3"/>
        <rect class="st3" x="1.1" y="31.1" width="6.1" height="1.3" transform="translate(-27.7 35.8) rotate(-90)"/>
        <rect class="st3" x="-.5" y="57.1" width="9.1" height="1.3" transform="translate(-53.6 61.8) rotate(-90)"/>
        <polygon class="st3" points="-6.1 26.5 -6.6 26.5 -6.6 25.3 -8.9 25.3 -8.9 23.3 -10.2 23.3 -10.2 21.6 -11.4 21.6 -11.4 26.5 -15.5 26.5 -15.5 27.7 -7.4 27.7 -7.4 28.7 -15.5 28.7 -15.5 30 -7.4 30 -7.4 31 -16.5 31 -16.5 30.3 -17.8 30.3 -17.8 31 -19.2 31 -19.2 32.3 -17.8 32.3 -16.5 32.3 -7.4 32.3 -7.4 33.5 -6.1 33.5 -4.8 33.5 -4.8 26.5 -6.1 26.5"/>
        <polygon class="st3" points="-15.5 43 -18.1 40.2 -18.1 35.8 -15.5 33.5 -15.5 43"/>
        <polygon class="st3" points="-14.2 43 -11.7 40.2 -11.7 35.8 -14.2 33.5 -14.2 43"/>
        <polygon class="st3" points="-19.7 49.2 -18.1 47.1 -18.1 43.7 -19.7 41.9 -19.7 49.2"/>
        <polygon class="st3" points="-23.5 44.9 -21.8 46.9 -21.8 42.6 -23.5 40.8 -23.5 44.9"/>
        <path class="st3" d="M22.7,44.7v-1.7h-8.5l-1.4-2.4,2.2-3.1v-2.4h-1.7l-2,2.9-.3-.5v-2.8h-2.5l1.4-2v-2.4h-1.7l-3.1,4.5h-2.2L-.2,30.2h-1.7v2.4l1.4,2h-2.5v2.8l-.3.5-2-2.9h-1.7v2.4l2.2,3.1-1.4,2.4h-8.2v1.7H-6.1l1.7,2.9-2.4,3.4v2.4h1.7l2.3-3.2h0v2.9H-.7l-1.1,1.6v2.4H-.2l2.9-4h2.8l2.9,4h1.7v-2.4l-1.1-1.6h2.2v-2.8h0c0,0,2.2,3.2,2.2,3.2h1.7v-2.4l-2.4-3.4,1.7-2.9h8.4ZM8.5,51.5H-.3l-4.4-7.6L-.3,36.3h8.7l4.4,7.6-4.4,7.6Z"/>
        <path class="st3" d="M6.1,40.3H2L0,43.9l2.1,3.6h4.1l2.1-3.6-2.1-3.6ZM5.2,45.9h-2.3l-1.1-2,1.1-2h2.3l1.1,2-1.1,2Z"/>
        <polygon class="st3" points="-11.3 57.1 3.4 77.8 4.1 77.8 4.1 75.1 2.7 75.1 2.7 73.3 1.4 73.3 1.4 71.5 0 71.5 0 69.7 -1.3 69.7 -1.3 67.8 -2.6 67.8 -2.6 66 -4 66 -4 64.2 -5.3 64.2 -5.3 62.3 -6.7 62.3 -6.7 60.5 -8 60.5 -8 58.7 -9.3 58.7 -9.3 56.8 -10.7 56.8 -10.7 55 -13.9 55 -13.9 60.2 -12.6 60.2 -12.6 62.1 -11.3 62.1 -11.3 63.9 -9.9 63.9 -9.9 65.7 -8.6 65.7 -8.6 67.5 -7.2 67.5 -7.2 69.4 -5.9 69.4 -5.9 71.2 -4.5 71.2 -4.5 73 -3.2 73 -3.2 74.9 -1.9 74.9 -1.9 76.7 -.5 76.7 -.5 78.5 .8 78.5 .8 80.4 4.1 80.4 4.1 79.4 2.3 79.4 -12.6 58.5 -12.6 57.1 -11.3 57.1"/>
        <rect class="st3" x="27.4" y="35.8" width="4.1" height="1.3" transform="translate(59 72.9) rotate(-180)"/>
        <polygon class="st3" points="19.2 49.2 19.2 47.9 24.9 47.9 24.9 49.2 25.7 49.2 25.7 50.4 28.2 50.4 27 52.5 22 52.5 22 50.4 17.9 50.4 17.9 49.2 19.2 49.2"/>
        <polygon class="st3" points="27.4 40.2 31 40.2 31.6 39 27.4 39 27.4 40.2"/>
        <polygon class="st3" points="13.7 54.8 15.1 54.8 15.1 55.8 13.7 55.8 13.7 57.2 12.7 57.2 12.7 55.8 12.7 54.8 13.7 54.8"/>
        <polygon class="st3" points="14.6 26.5 15.2 26.5 15.2 25.3 17.4 25.3 17.4 23.3 18.7 23.3 18.7 21.6 20 21.6 20 26.5 24 26.5 24 27.7 15.9 27.7 15.9 28.7 24 28.7 24 30 15.9 30 15.9 31 25 31 25 30.3 26.3 30.3 26.3 31 27.7 31 27.7 32.3 26.3 32.3 25 32.3 15.9 32.3 15.9 33.5 14.6 33.5 13.3 33.5 13.3 26.5 14.6 26.5"/>
        <polygon class="st3" points="24 43 26.6 40.2 26.6 35.8 24 33.5 24 43"/>
        <polygon class="st3" points="22.8 43 20.2 40.2 20.2 35.8 22.8 33.5 22.8 43"/>
        <polygon class="st3" points="28.2 49.2 26.6 47.1 26.6 43.7 28.2 41.9 28.2 49.2"/>
        <polygon class="st3" points="31.6 44.9 29.9 46.9 29.9 42.6 31.6 40.8 31.6 44.9"/>
        <polygon class="st3" points="18.8 55 18.8 56.8 17.5 56.8 17.5 58.7 16.1 58.7 16.1 60.5 14.8 60.5 14.8 62.3 13.5 62.3 13.5 64.2 12.1 64.2 12.1 66 10.8 66 10.8 67.8 9.4 67.8 9.4 69.7 8.1 69.7 8.1 71.5 6.8 71.5 6.8 73.3 5.4 73.3 5.4 75.1 4.1 75.1 4.1 77.8 4.8 77.8 19.5 57.1 20.7 57.1 20.7 58.5 5.9 79.4 4.1 79.4 4.1 80.4 7.3 80.4 7.3 78.5 8.7 78.5 8.7 76.7 10 76.7 10 74.9 11.3 74.9 11.3 73 12.7 73 12.7 71.2 14 71.2 14 69.4 15.4 69.4 15.4 67.5 16.7 67.5 16.7 65.7 18.1 65.7 18.1 63.9 19.4 63.9 19.4 62.1 20.7 62.1 20.7 60.2 22.1 60.2 22.1 55 18.8 55"/>
      </g>
      <g>
        <rect class="st3" x="69.6" y="-15.7" width="4.5" height="1.3"/>
        <polygon class="st3" points="82.3 -2.3 82.3 -3.6 76.7 -3.6 76.7 -2.3 75.9 -2.3 75.9 -1.1 73.3 -1.1 74.6 1 79.5 1 79.5 -1.1 83.7 -1.1 83.7 -2.3 82.3 -2.3"/>
        <polygon class="st3" points="74.1 -11.3 70.3 -11.3 69.6 -12.5 74.1 -12.5 74.1 -11.3"/>
        <rect class="st3" x="91.1" y="12.4" width="12.1" height="1.3"/>
        <rect class="st3" x="88.1" y="7.8" width="6.5" height="1.3"/>
        <rect class="st3" x="95.2" y="16.4" width="3.9" height="1.3"/>
        <polygon class="st3" points="99 18.5 97.7 18.5 96.5 18.5 95.2 18.5 95.2 19.8 96.5 19.8 96.5 21.5 97.7 21.5 97.7 19.8 99 19.8 99 18.5"/>
        <polygon class="st3" points="87.5 3.3 86.1 3.3 86.1 4.3 87.5 4.3 87.5 5.7 88.5 5.7 88.5 4.3 88.5 3.3 87.5 3.3"/>
        <rect class="st3" x="99.9" y="7.8" width="6.5" height="1.3"/>
        <rect class="st3" x="94.1" y="-20.4" width="6.1" height="1.3" transform="translate(116.9 77.4) rotate(-90)"/>
        <rect class="st3" x="92.6" y="5.6" width="9.1" height="1.3" transform="translate(90.9 103.3) rotate(-90)"/>
        <polygon class="st3" points="86.9 -25 86.4 -25 86.4 -26.2 84.1 -26.2 84.1 -28.2 82.9 -28.2 82.9 -29.9 81.6 -29.9 81.6 -25 77.6 -25 77.6 -23.8 85.7 -23.8 85.7 -22.8 77.6 -22.8 77.6 -21.5 85.7 -21.5 85.7 -20.5 76.5 -20.5 76.5 -21.2 75.2 -21.2 75.2 -20.5 73.8 -20.5 73.8 -19.2 75.2 -19.2 76.5 -19.2 85.7 -19.2 85.7 -18 86.9 -18 88.2 -18 88.2 -25 86.9 -25"/>
        <polygon class="st3" points="77.5 -8.5 75 -11.3 75 -15.7 77.5 -18 77.5 -8.5"/>
        <polygon class="st3" points="78.8 -8.5 81.3 -11.3 81.3 -15.7 78.8 -18 78.8 -8.5"/>
        <polygon class="st3" points="73.3 -2.3 74.9 -4.4 74.9 -7.8 73.3 -9.6 73.3 -2.3"/>
        <polygon class="st3" points="69.6 -6.6 71.2 -4.6 71.2 -8.9 69.6 -10.7 69.6 -6.6"/>
        <path class="st3" d="M115.7-6.8v-1.7h-8.5l-1.4-2.4,2.2-3.1v-2.4h-1.7l-2,2.9-.3-.5v-2.8h-2.5l1.4-2v-2.4h-1.7l-3.1,4.5h-2.2l-3.1-4.5h-1.7v2.4l1.4,2h-2.5v2.8l-.3.5-2-2.9h-1.7v2.4l2.2,3.1-1.4,2.4h-8.2v1.7h8.1l1.7,2.9-2.4,3.4V2h1.7l2.3-3.2h0V1.6h2.2l-1.1,1.6v2.4h1.7l2.9-4h2.8l2.9,4h1.7v-2.4l-1.1-1.6h2.2V-1.2h0c0,0,2.2,3.2,2.2,3.2h1.7V-.5l-2.4-3.4,1.7-2.9h8.4ZM101.5,0h-8.7l-4.4-7.6,4.4-7.6h8.7l4.4,7.6L101.5,0Z"/>
        <path class="st3" d="M99.2-11.1h-4.1l-2.1,3.6,2.1,3.6h4.1l2.1-3.6-2.1-3.6ZM98.2-5.6h-2.3l-1.1-2,1.1-2h2.3l1.1,2-1.1,2Z"/>
        <polygon class="st3" points="81.7 5.6 96.4 26.3 97.1 26.3 97.1 23.7 95.8 23.7 95.8 21.8 94.4 21.8 94.4 20 93.1 20 93.1 18.2 91.7 18.2 91.7 16.3 90.4 16.3 90.4 14.5 89.1 14.5 89.1 12.7 87.7 12.7 87.7 10.8 86.4 10.8 86.4 9 85 9 85 7.2 83.7 7.2 83.7 5.3 82.3 5.3 82.3 3.5 79.1 3.5 79.1 8.7 80.4 8.7 80.4 10.6 81.8 10.6 81.8 12.4 83.1 12.4 83.1 14.2 84.5 14.2 84.5 16 85.8 16 85.8 17.9 87.1 17.9 87.1 19.7 88.5 19.7 88.5 21.5 89.8 21.5 89.8 23.4 91.2 23.4 91.2 25.2 92.5 25.2 92.5 27 93.8 27 93.8 28.9 97.1 28.9 97.1 27.9 95.3 27.9 80.5 7 80.5 5.6 81.7 5.6"/>
        <rect class="st3" x="120.5" y="-15.7" width="4.1" height="1.3" transform="translate(245.1 -30.1) rotate(-180)"/>
        <polygon class="st3" points="112.2 -2.3 112.2 -3.6 117.9 -3.6 117.9 -2.3 118.7 -2.3 118.7 -1.1 121.3 -1.1 120 1 115.1 1 115.1 -1.1 110.9 -1.1 110.9 -2.3 112.2 -2.3"/>
        <polygon class="st3" points="120.4 -11.3 124 -11.3 124.6 -12.5 120.4 -12.5 120.4 -11.3"/>
        <polygon class="st3" points="106.8 3.3 108.1 3.3 108.1 4.3 106.8 4.3 106.8 5.7 105.7 5.7 105.7 4.3 105.7 3.3 106.8 3.3"/>
        <polygon class="st3" points="107.7 -25 108.2 -25 108.2 -26.2 110.4 -26.2 110.4 -28.2 111.7 -28.2 111.7 -29.9 113 -29.9 113 -25 117 -25 117 -23.8 108.9 -23.8 108.9 -22.8 117 -22.8 117 -21.5 108.9 -21.5 108.9 -20.5 118.1 -20.5 118.1 -21.2 119.3 -21.2 119.3 -20.5 120.7 -20.5 120.7 -19.2 119.3 -19.2 118.1 -19.2 108.9 -19.2 108.9 -18 107.7 -18 106.4 -18 106.4 -25 107.7 -25"/>
        <polygon class="st3" points="117.1 -8.5 119.6 -11.3 119.6 -15.7 117.1 -18 117.1 -8.5"/>
        <polygon class="st3" points="115.8 -8.5 113.2 -11.3 113.2 -15.7 115.8 -18 115.8 -8.5"/>
        <polygon class="st3" points="121.3 -2.3 119.6 -4.4 119.6 -7.8 121.3 -9.6 121.3 -2.3"/>
        <polygon class="st3" points="124.6 -6.6 123 -4.6 123 -8.9 124.6 -10.7 124.6 -6.6"/>
        <polygon class="st3" points="111.9 3.5 111.9 5.3 110.5 5.3 110.5 7.2 109.2 7.2 109.2 9 107.8 9 107.8 10.8 106.5 10.8 106.5 12.7 105.2 12.7 105.2 14.5 103.8 14.5 103.8 16.3 102.5 16.3 102.5 18.2 101.1 18.2 101.1 20 99.8 20 99.8 21.8 98.4 21.8 98.4 23.7 97.1 23.7 97.1 26.3 97.8 26.3 112.5 5.6 113.8 5.6 113.8 7 98.9 27.9 97.1 27.9 97.1 28.9 100.4 28.9 100.4 27 101.7 27 101.7 25.2 103 25.2 103 23.4 104.4 23.4 104.4 21.5 105.7 21.5 105.7 19.7 107.1 19.7 107.1 17.9 108.4 17.9 108.4 16 109.7 16 109.7 14.2 111.1 14.2 111.1 12.4 112.4 12.4 112.4 10.6 113.8 10.6 113.8 8.7 115.1 8.7 115.1 3.5 111.9 3.5"/>
      </g>
      <g>
        <rect class="st3" x="-23.5" y="-15.7" width="4.5" height="1.3"/>
        <polygon class="st3" points="-10.7 -2.3 -10.7 -3.6 -16.4 -3.6 -16.4 -2.3 -17.2 -2.3 -17.2 -1.1 -19.7 -1.1 -18.5 1 -13.5 1 -13.5 -1.1 -9.3 -1.1 -9.3 -2.3 -10.7 -2.3"/>
        <polygon class="st3" points="-18.9 -11.3 -22.8 -11.3 -23.5 -12.5 -18.9 -12.5 -18.9 -11.3"/>
        <rect class="st3" x="-2" y="12.4" width="12.1" height="1.3"/>
        <rect class="st3" x="-5" y="7.8" width="6.5" height="1.3"/>
        <rect class="st3" x="2.1" y="16.4" width="3.9" height="1.3"/>
        <polygon class="st3" points="6 18.5 4.7 18.5 3.4 18.5 2.1 18.5 2.1 19.8 3.4 19.8 3.4 21.5 4.7 21.5 4.7 19.8 6 19.8 6 18.5"/>
        <polygon class="st3" points="-5.6 3.3 -7 3.3 -7 4.3 -5.6 4.3 -5.6 5.7 -4.6 5.7 -4.6 4.3 -4.6 3.3 -5.6 3.3"/>
        <rect class="st3" x="6.9" y="7.8" width="6.5" height="1.3"/>
        <rect class="st3" x="1.1" y="-20.4" width="6.1" height="1.3" transform="translate(23.8 -15.6) rotate(-90)"/>
        <rect class="st3" x="-.5" y="5.6" width="9.1" height="1.3" transform="translate(-2.1 10.3) rotate(-90)"/>
        <polygon class="st3" points="-6.1 -25 -6.6 -25 -6.6 -26.2 -8.9 -26.2 -8.9 -28.2 -10.2 -28.2 -10.2 -29.9 -11.4 -29.9 -11.4 -25 -15.5 -25 -15.5 -23.8 -7.4 -23.8 -7.4 -22.8 -15.5 -22.8 -15.5 -21.5 -7.4 -21.5 -7.4 -20.5 -16.5 -20.5 -16.5 -21.2 -17.8 -21.2 -17.8 -20.5 -19.2 -20.5 -19.2 -19.2 -17.8 -19.2 -16.5 -19.2 -7.4 -19.2 -7.4 -18 -6.1 -18 -4.8 -18 -4.8 -25 -6.1 -25"/>
        <polygon class="st3" points="-15.5 -8.5 -18.1 -11.3 -18.1 -15.7 -15.5 -18 -15.5 -8.5"/>
        <polygon class="st3" points="-14.2 -8.5 -11.7 -11.3 -11.7 -15.7 -14.2 -18 -14.2 -8.5"/>
        <polygon class="st3" points="-19.7 -2.3 -18.1 -4.4 -18.1 -7.8 -19.7 -9.6 -19.7 -2.3"/>
        <polygon class="st3" points="-23.5 -6.6 -21.8 -4.6 -21.8 -8.9 -23.5 -10.7 -23.5 -6.6"/>
        <path class="st3" d="M22.7-6.8v-1.7h-8.5l-1.4-2.4,2.2-3.1v-2.4h-1.7l-2,2.9-.3-.5v-2.8h-2.5l1.4-2v-2.4h-1.7l-3.1,4.5h-2.2L-.2-21.3h-1.7v2.4l1.4,2h-2.5v2.8l-.3.5-2-2.9h-1.7v2.4l2.2,3.1-1.4,2.4h-8.2v1.7H-6.1l1.7,2.9L-6.9-.5V2h1.7L-2.9-1.3h0V1.6H-.7l-1.1,1.6v2.4H-.2L2.7,1.6h2.8l2.9,4h1.7v-2.4l-1.1-1.6h2.2V-1.2h0c0,0,2.2,3.2,2.2,3.2h1.7V-.5l-2.4-3.4,1.7-2.9h8.4ZM8.5,0H-.3l-4.4-7.6L-.3-15.2h8.7l4.4,7.6L8.5,0Z"/>
        <path class="st3" d="M6.1-11.1H2L0-7.6l2.1,3.6h4.1l2.1-3.6-2.1-3.6ZM5.2-5.6h-2.3l-1.1-2,1.1-2h2.3l1.1,2-1.1,2Z"/>
        <polygon class="st3" points="-11.3 5.6 3.4 26.3 4.1 26.3 4.1 23.7 2.7 23.7 2.7 21.8 1.4 21.8 1.4 20 0 20 0 18.2 -1.3 18.2 -1.3 16.3 -2.6 16.3 -2.6 14.5 -4 14.5 -4 12.7 -5.3 12.7 -5.3 10.8 -6.7 10.8 -6.7 9 -8 9 -8 7.2 -9.3 7.2 -9.3 5.3 -10.7 5.3 -10.7 3.5 -13.9 3.5 -13.9 8.7 -12.6 8.7 -12.6 10.6 -11.3 10.6 -11.3 12.4 -9.9 12.4 -9.9 14.2 -8.6 14.2 -8.6 16 -7.2 16 -7.2 17.9 -5.9 17.9 -5.9 19.7 -4.5 19.7 -4.5 21.5 -3.2 21.5 -3.2 23.4 -1.9 23.4 -1.9 25.2 -.5 25.2 -.5 27 .8 27 .8 28.9 4.1 28.9 4.1 27.9 2.3 27.9 -12.6 7 -12.6 5.6 -11.3 5.6"/>
        <rect class="st3" x="27.4" y="-15.7" width="4.1" height="1.3" transform="translate(59 -30.1) rotate(-180)"/>
        <polygon class="st3" points="19.2 -2.3 19.2 -3.6 24.9 -3.6 24.9 -2.3 25.7 -2.3 25.7 -1.1 28.2 -1.1 27 1 22 1 22 -1.1 17.9 -1.1 17.9 -2.3 19.2 -2.3"/>
        <polygon class="st3" points="27.4 -11.3 31 -11.3 31.6 -12.5 27.4 -12.5 27.4 -11.3"/>
        <polygon class="st3" points="13.7 3.3 15.1 3.3 15.1 4.3 13.7 4.3 13.7 5.7 12.7 5.7 12.7 4.3 12.7 3.3 13.7 3.3"/>
        <polygon class="st3" points="14.6 -25 15.2 -25 15.2 -26.2 17.4 -26.2 17.4 -28.2 18.7 -28.2 18.7 -29.9 20 -29.9 20 -25 24 -25 24 -23.8 15.9 -23.8 15.9 -22.8 24 -22.8 24 -21.5 15.9 -21.5 15.9 -20.5 25 -20.5 25 -21.2 26.3 -21.2 26.3 -20.5 27.7 -20.5 27.7 -19.2 26.3 -19.2 25 -19.2 15.9 -19.2 15.9 -18 14.6 -18 13.3 -18 13.3 -25 14.6 -25"/>
        <polygon class="st3" points="24 -8.5 26.6 -11.3 26.6 -15.7 24 -18 24 -8.5"/>
        <polygon class="st3" points="22.8 -8.5 20.2 -11.3 20.2 -15.7 22.8 -18 22.8 -8.5"/>
        <polygon class="st3" points="28.2 -2.3 26.6 -4.4 26.6 -7.8 28.2 -9.6 28.2 -2.3"/>
        <polygon class="st3" points="31.6 -6.6 29.9 -4.6 29.9 -8.9 31.6 -10.7 31.6 -6.6"/>
        <polygon class="st3" points="18.8 3.5 18.8 5.3 17.5 5.3 17.5 7.2 16.1 7.2 16.1 9 14.8 9 14.8 10.8 13.5 10.8 13.5 12.7 12.1 12.7 12.1 14.5 10.8 14.5 10.8 16.3 9.4 16.3 9.4 18.2 8.1 18.2 8.1 20 6.8 20 6.8 21.8 5.4 21.8 5.4 23.7 4.1 23.7 4.1 26.3 4.8 26.3 19.5 5.6 20.7 5.6 20.7 7 5.9 27.9 4.1 27.9 4.1 28.9 7.3 28.9 7.3 27 8.7 27 8.7 25.2 10 25.2 10 23.4 11.3 23.4 11.3 21.5 12.7 21.5 12.7 19.7 14 19.7 14 17.9 15.4 17.9 15.4 16 16.7 16 16.7 14.2 18.1 14.2 18.1 12.4 19.4 12.4 19.4 10.6 20.7 10.6 20.7 8.7 22.1 8.7 22.1 3.5 18.8 3.5"/>
      </g>
    </g>
  </g>
  <g>
    <path class="st3" d="M15.3,147.3c.2-.4.6-.8,1-1,.4-.2.9-.4,1.5-.4s1.2.2,1.7.5c.5.4.8.8,1,1.4h-1.5c-.1-.2-.3-.4-.5-.5-.2-.1-.4-.2-.7-.2-.4,0-.8.1-1,.4-.3.3-.4.7-.4,1.2s.1.9.4,1.2c.3.3.6.4,1,.4s.5,0,.7-.2c.2-.1.4-.3.5-.5h1.5c-.2.6-.5,1.1-1,1.4-.5.3-1,.5-1.7.5s-1-.1-1.5-.4c-.4-.2-.8-.6-1-1-.2-.4-.4-.9-.4-1.5s.1-1,.4-1.5Z"/>
    <path class="st3" d="M22.5,151.3c-.4-.2-.8-.6-1-1-.3-.4-.4-.9-.4-1.5s.1-1,.4-1.5.6-.8,1-1c.4-.2.9-.4,1.5-.4s1,.1,1.5.4.8.6,1,1,.4.9.4,1.5-.1,1-.4,1.5c-.3.4-.6.8-1,1-.4.2-.9.4-1.4.4s-1-.1-1.5-.4ZM25,150c.3-.3.4-.7.4-1.2s-.1-.9-.4-1.2c-.3-.3-.6-.4-1.1-.4s-.8.1-1.1.4c-.3.3-.4.7-.4,1.2s.1.9.4,1.2c.3.3.6.4,1.1.4s.8-.1,1.1-.4Z"/>
    <path class="st3" d="M30.5,151.6l-1.2-2.1h-.3v2.1h-1.4v-5.6h2.3c.4,0,.8,0,1.1.2.3.2.5.4.7.6s.2.6.2.9-.1.7-.3,1c-.2.3-.5.5-.9.6l1.3,2.2h-1.5ZM29,148.6h.8c.3,0,.4,0,.6-.2.1-.1.2-.3.2-.5s0-.4-.2-.5-.3-.2-.6-.2h-.8v1.4Z"/>
    <path class="st3" d="M36.3,150.7h-2.1l-.3,1h-1.4l2-5.6h1.6l2,5.6h-1.4l-.3-1ZM36,149.6l-.7-2.1-.7,2.1h1.4Z"/>
    <path class="st3" d="M40.2,150.5h2.4v1.1h-4v-1l2.4-3.5h-2.4v-1.1h4v1l-2.4,3.5Z"/>
    <path class="st3" d="M44.7,151.3c-.4-.2-.8-.6-1-1-.3-.4-.4-.9-.4-1.5s.1-1,.4-1.5.6-.8,1-1c.4-.2.9-.4,1.5-.4s1,.1,1.5.4.8.6,1,1,.4.9.4,1.5-.1,1-.4,1.5c-.3.4-.6.8-1,1-.4.2-.9.4-1.4.4s-1-.1-1.5-.4ZM47.2,150c.3-.3.4-.7.4-1.2s-.1-.9-.4-1.2c-.3-.3-.6-.4-1.1-.4s-.8.1-1.1.4c-.3.3-.4.7-.4,1.2s.1.9.4,1.2c.3.3.6.4,1.1.4s.8-.1,1.1-.4ZM47.1,144.9l-1.9.8v-.9l1.9-.9v1.1Z"/>
    <path class="st3" d="M54.8,151.6h-1.4l-2.3-3.5v3.5h-1.4v-5.6h1.4l2.3,3.5v-3.5h1.4v5.6Z"/>
    <path class="st3" d="M58.9,150.6h1.8v1.1h-3.2v-5.6h1.4v4.6Z"/>
    <path class="st3" d="M64.8,150.7h-2.1l-.3,1h-1.4l2-5.6h1.6l2,5.6h-1.4l-.3-1ZM64.4,149.6l-.7-2.1-.7,2.1h1.4Z"/>
    <path class="st3" d="M71.2,146v1.1h-1.5v4.5h-1.4v-4.5h-1.5v-1.1h4.3Z"/>
    <path class="st3" d="M73.3,146v5.6h-1.4v-5.6h1.4Z"/>
    <path class="st3" d="M79.3,151.6h-1.4l-2.3-3.5v3.5h-1.4v-5.6h1.4l2.3,3.5v-3.5h1.4v5.6Z"/>
    <path class="st3" d="M81.5,151.3c-.4-.2-.8-.6-1-1-.3-.4-.4-.9-.4-1.5s.1-1,.4-1.5.6-.8,1-1c.4-.2.9-.4,1.5-.4s1,.1,1.5.4c.4.2.8.6,1,1,.3.4.4.9.4,1.5s-.1,1-.4,1.5c-.3.4-.6.8-1,1-.4.2-.9.4-1.4.4s-1-.1-1.5-.4ZM84,150c.3-.3.4-.7.4-1.2s-.1-.9-.4-1.2-.6-.4-1.1-.4-.8.1-1.1.4c-.3.3-.4.7-.4,1.2s.1.9.4,1.2c.3.3.6.4,1.1.4s.8-.1,1.1-.4Z"/>
  </g>
  <g>
    <g>
      <path class="st3" d="M55.1,130.8c.3-.3.6-.4,1-.4s.3,0,.5,0,.3.1.5.2c.1,0,.2.1.3.2s.2,0,.3,0c.3,0,.5-.2.5-.5h1c0,.6-.3,1-.6,1.3-.3.3-.6.4-1,.4s-.3,0-.5,0c-.1,0-.3-.1-.5-.2-.1,0-.2-.1-.3-.2,0,0-.2,0-.3,0-.3,0-.5.2-.5.5h-1c0-.6.3-1,.6-1.3Z"/>
      <path class="st3" d="M60.8,132.5c.5-.4.9-.8,1.2-1.1.3-.3.6-.6.8-.9.2-.3.3-.6.3-.9s0-.4-.2-.5c-.1-.1-.3-.2-.5-.2s-.4,0-.5.2c-.1.2-.2.4-.2.6h-1.3c0-.5.1-.8.3-1.1.2-.3.4-.5.7-.7.3-.1.6-.2,1-.2.6,0,1.1.2,1.4.5.3.3.5.8.5,1.3s-.2,1.1-.6,1.6-.9,1-1.5,1.4h2.2v1.1h-4v-1c.2-.1.3-.2.2-.2Z"/>
      <path class="st3" d="M66.5,128.6c.4-.5.9-.8,1.7-.8s1.4.3,1.7.8.5,1.3.5,2.2-.2,1.7-.5,2.2c-.4.5-.9.8-1.7.8s-1.4-.3-1.7-.8c-.4-.5-.5-1.3-.5-2.2s.2-1.6.5-2.2ZM69,129.5c-.1-.3-.4-.4-.7-.4s-.6.1-.7.4c-.1.3-.2.7-.2,1.2s0,.7,0,.9c0,.2.1.4.3.6.1.1.3.2.6.2s.4,0,.6-.2c.1-.1.2-.3.3-.6s0-.5,0-.9c0-.5,0-1-.2-1.2Z"/>
      <path class="st3" d="M72.2,132.5c.5-.4.9-.8,1.2-1.1.3-.3.6-.6.8-.9.2-.3.3-.6.3-.9s0-.4-.2-.5-.3-.2-.5-.2-.4,0-.5.2c-.1.2-.2.4-.2.6h-1.3c0-.5.1-.8.3-1.1.2-.3.4-.5.7-.7.3-.1.6-.2,1-.2.6,0,1.1.2,1.4.5.3.3.5.8.5,1.3s-.2,1.1-.6,1.6c-.4.5-.9,1-1.5,1.4h2.2v1.1h-4v-1c.2-.1.3-.2.2-.2Z"/>
      <path class="st3" d="M80,129.1c-.1,0-.3-.1-.5-.1-.3,0-.5.1-.7.4-.1.3-.2.7-.2,1.3.1-.2.3-.3.5-.4.2-.1.5-.2.7-.2.5,0,.9.2,1.3.5.3.3.5.8.5,1.4s0,.7-.2,1c-.2.3-.4.5-.7.7-.3.2-.7.2-1.1.2-.8,0-1.4-.3-1.7-.8-.3-.5-.5-1.3-.5-2.2s.2-1.8.5-2.3.9-.7,1.6-.7.7,0,1,.2c.3.2.5.4.6.6.1.3.2.5.3.8h-1.3c0-.2-.1-.3-.2-.4ZM79,131.3c-.2.1-.2.3-.2.6s0,.5.2.6c.1.1.3.2.6.2s.4,0,.6-.2c.1-.1.2-.3.2-.6s0-.4-.2-.6c-.1-.1-.3-.2-.6-.2s-.4,0-.6.2Z"/>
      <path class="st3" d="M83.7,130.8c.3-.3.6-.4,1-.4s.3,0,.5,0c.1,0,.3.1.5.2.1,0,.2.1.3.2,0,0,.2,0,.3,0,.3,0,.5-.2.5-.5h1c0,.6-.3,1-.6,1.3-.3.3-.6.4-1,.4s-.3,0-.5,0c-.1,0-.3-.1-.5-.2-.1,0-.2-.1-.3-.2s-.2,0-.3,0c-.3,0-.5.2-.5.5h-1c0-.6.3-1,.6-1.3Z"/>
    </g>
    <g>
      <path class="st3" d="M19,128.2v5.6h-1.4v-3.4l-1.3,3.4h-1.1l-1.3-3.4v3.4h-1.4v-5.6h1.6l1.6,3.9,1.6-3.9h1.6Z"/>
      <path class="st3" d="M21.2,133.5c-.4-.2-.8-.6-1-1-.3-.4-.4-.9-.4-1.5s.1-1,.4-1.5.6-.8,1-1c.4-.2.9-.4,1.5-.4s1,.1,1.5.4.8.6,1,1,.4.9.4,1.5-.1,1-.4,1.5c-.3.4-.6.8-1,1-.4.2-.9.4-1.4.4s-1-.1-1.5-.4ZM23.7,132.1c.3-.3.4-.7.4-1.2s-.1-.9-.4-1.2c-.3-.3-.6-.4-1.1-.4s-.8.1-1.1.4c-.3.3-.4.7-.4,1.2s.1.9.4,1.2c.3.3.6.4,1.1.4s.8-.1,1.1-.4Z"/>
      <path class="st3" d="M31.3,133.8h-1.4l-2.3-3.5v3.5h-1.4v-5.6h1.4l2.3,3.5v-3.5h1.4v5.6Z"/>
      <path class="st3" d="M33.5,133.5c-.4-.2-.8-.6-1-1-.3-.4-.4-.9-.4-1.5s.1-1,.4-1.5.6-.8,1-1c.4-.2.9-.4,1.5-.4s1,.1,1.5.4.8.6,1,1,.4.9.4,1.5-.1,1-.4,1.5c-.3.4-.6.8-1,1-.4.2-.9.4-1.4.4s-1-.1-1.5-.4ZM36,132.1c.3-.3.4-.7.4-1.2s-.1-.9-.4-1.2c-.3-.3-.6-.4-1.1-.4s-.8.1-1.1.4c-.3.3-.4.7-.4,1.2s.1.9.4,1.2c.3.3.6.4,1.1.4s.8-.1,1.1-.4Z"/>
      <path class="st3" d="M41.9,133.8l-1.9-2.5v2.5h-1.4v-5.6h1.4v2.5l1.9-2.5h1.6l-2.2,2.8,2.3,2.9h-1.7Z"/>
      <path class="st3" d="M45.5,128.2v3.4c0,.3,0,.6.2.8.2.2.4.3.7.3s.6,0,.7-.3c.2-.2.3-.4.3-.8v-3.4h1.4v3.4c0,.5-.1.9-.3,1.3s-.5.6-.9.8-.8.3-1.2.3-.8,0-1.2-.3c-.3-.2-.6-.4-.8-.8-.2-.3-.3-.8-.3-1.3v-3.4h1.4Z"/>
    </g>
  </g>
  <rect class="st1" x="5.1" y="6.4" width="90.8" height="151.3"/>
  <rect class="st1" x="5.1" y="121.7" width="90.8" height="18"/>
  <g>
    <path class="st3" d="M74.6,54.7v-27.1c0-.6-.5-1.2-1.2-1.2h-11.2c-.6,0-1,.4-1.2.9l-5.8,29.2c-.2,1.1.3,2.3,1.3,2.9h0c1,.6,1.5,1.8,1.3,2.9l-1.3,6.3c0,.2-.4.2-.4,0l-1.4-6.8c-.2-.9-.8-1.6-1.6-2l-1.8-.8c-.8-.4-1.4-1.1-1.6-2l-5.8-29.7c-.1-.6-.6-.9-1.2-.9h-11c-.6,0-1.2.5-1.2,1.2v31.4c0,1,.6,2,1.5,2.5l.9.4c.9.5,1.5,1.4,1.5,2.5v10.4c0,1-.6,2-1.5,2.5l-.9.4c-.9.5-1.5,1.4-1.5,2.5v22.4c0,.6.5,1.2,1.2,1.2h6.6c.6,0,1.2-.5,1.2-1.2v-22.1c0-1,.6-2,1.5-2.5l.9-.4c.9-.5,1.5-1.4,1.5-2.5v-11.4c0-1-.6-2-1.5-2.5l-.9-.4c-.9-.5-1.5-1.4-1.5-2.5l-.4-14.6s0-.2.2-.3.3.2.3.2l1.9,13.8c.2.9.8,1.7,1.6,2.1l1.3,1.5c.9.4,1.8.3,2,1.3l3,12.8c.2,1.1-.3,2.3-1.3,2.8h-.1c-1,.6-1.5,1.8-1.3,2.9l3.6,21.8c0,.6.6,1,1.2,1h2.3c.6,0,1.1-.4,1.2-1l3.6-21.7c.2-.9.8-1.7,1.6-2.1l1.7-.7c.9-.4,1.5-1.2,1.6-2.1l3.1-14.4c.2-1.1-.3-2.3-1.3-2.8h-.1c-1-.7-1.5-1.8-1.3-2.9l1.8-12.3s0-.3.3-.2.2.3.2.3l-.5,11.5c0,1,.6,2,1.5,2.5l.9.4c.9.5,1.5,1.4,1.5,2.5v15.5c0,1-.6,2-1.5,2.5l-.9.4c-.9.5-1.5,1.4-1.5,2.5v21c0,.6.5,1.2,1.2,1.2h6.8c.6,0,1.2-.5,1.2-1.2v-20.6c0-1,.6-2,1.5-2.5l.9-.4c.9-.5,1.5-1.4,1.5-2.5v-16.5c0-1-.6-2-1.5-2.5l-.9-.4c-.9-.5-1.5-1.4-1.5-2.5Z"/>
    <g>
      <path class="st2" d="M68.3,57v-27.1c0-.6-.5-1.2-1.2-1.2h-11.2c-.6,0-1,.4-1.2.9l-5.8,29.2c-.2,1.1.3,2.3,1.3,2.9h0c1,.6,1.5,1.8,1.3,2.9l-1.3,6.3c0,.2-.4.2-.4,0l-1.4-6.8c-.2-.9-.8-1.6-1.6-2l-1.8-.8c-.8-.4-1.4-1.1-1.6-2l-5.8-29.7c-.1-.6-.6-.9-1.2-.9h-11c-.6,0-1.2.5-1.2,1.2v31.4c0,1,.6,2,1.5,2.5l.9.4c.9.5,1.5,1.4,1.5,2.5v10.4c0,1-.6,2-1.5,2.5l-.9.4c-.9.5-1.5,1.4-1.5,2.5v22.4c0,.6.5,1.2,1.2,1.2h6.6c.6,0,1.2-.5,1.2-1.2v-22.1c0-1,.6-2,1.5-2.5l.9-.4c.9-.5,1.5-1.4,1.5-2.5v-11.4c0-1-.6-2-1.5-2.5l-.9-.4c-.9-.5-1.5-1.4-1.5-2.5l-.4-14.6s0-.2.2-.3.3.2.3.2l1.9,13.8c.2.9.8,1.7,1.6,2.1l1.7.7c.9.4,1.5,1.2,1.6,2.1l3,12.8c.2,1.1-.3,2.3-1.3,2.8h-.1c-1,.6-1.5,1.8-1.3,2.9l3.6,21.8c0,.6.6,1,1.2,1h2.3c.6,0,1.1-.4,1.2-1l3.6-21.7c.2-.9.8-1.7,1.6-2.1l1.7-.7c.9-.4,1.5-1.2,1.6-2.1l3.1-14.4c.2-1.1-.3-2.3-1.3-2.8h-.1c-1-.7-1.5-1.8-1.3-2.9l1.8-12.3s0-.3.3-.2.2.3.2.3l-.5,11.5c0,1,.6,2,1.5,2.5l.9.4c.9.5,1.5,1.4,1.5,2.5v15.5c0,1-.6,2-1.5,2.5l-.9.4c-.9.5-1.5,1.4-1.5,2.5v21c0,.6.5,1.2,1.2,1.2h6.8c.6,0,1.2-.5,1.2-1.2v-20.6c0-1,.6-2,1.5-2.5l.9-.4c.9-.5,1.5-1.4,1.5-2.5v-16.5c0-1-.6-2-1.5-2.5l-.9-.4c-.9-.5-1.5-1.4-1.5-2.5Z"/>
      <path class="st3" d="M67.1,106.5h-6.8c-.9,0-1.7-.8-1.7-1.7v-21c0-1.2.7-2.4,1.8-2.9l.9-.4c.8-.4,1.2-1.2,1.2-2v-15.5c0-.9-.5-1.6-1.2-2l-.9-.4c-1.1-.6-1.8-1.7-1.8-2.9l.3-7-1.1,7.9c-.2.9.3,1.9,1.1,2.3h.1c1.2.8,1.8,2.1,1.6,3.4l-3.1,14.4c-.2,1.1-.9,2-1.9,2.4l-1.7.7c-.7.3-1.2.9-1.3,1.7l-3.6,21.7c-.1.8-.8,1.4-1.7,1.4h-2.3c-.8,0-1.5-.6-1.7-1.4l-3.6-21.8c-.2-1.3.4-2.7,1.6-3.4h.1c.8-.5,1.3-1.5,1.1-2.4l-3-12.8c-.1-.8-.6-1.4-1.3-1.7l-1.7-.7c-1-.4-1.7-1.4-1.9-2.5l-1.3-9.5.3,10.3c0,.9.5,1.7,1.2,2l.9.4c1.1.6,1.8,1.7,1.8,2.9v11.4c0,1.2-.7,2.4-1.8,2.9l-.9.4c-.8.4-1.2,1.2-1.2,2v22.1c0,.9-.8,1.7-1.7,1.7h-6.6c-.9,0-1.7-.8-1.7-1.7v-22.4c0-1.2.7-2.4,1.8-2.9l.9-.4c.8-.4,1.2-1.2,1.2-2v-10.4c0-.9-.5-1.6-1.2-2l-.9-.4c-1.1-.6-1.8-1.7-1.8-2.9v-31.4c0-.9.8-1.7,1.7-1.7h11c.8,0,1.5.6,1.6,1.3l5.8,29.7c.1.7.6,1.3,1.3,1.6l1.8.8c1,.4,1.7,1.3,1.9,2.4l1.2,5.4,1-4.9c.2-.9-.2-1.9-1.1-2.4-1.2-.7-1.8-2.1-1.5-3.4l5.8-29.2c.2-.8.8-1.4,1.6-1.4h11.2c.9,0,1.7.8,1.7,1.7v27.1c0,.9.5,1.6,1.2,2l.9.4c1.1.6,1.8,1.7,1.8,2.9v16.5c0,1.2-.7,2.4-1.8,2.9l-.9.4c-.8.4-1.2,1.2-1.2,2v20.6c0,.9-.8,1.7-1.7,1.7ZM59.3,45.3s0,0,0,0c.4,0,.7.4.7.7l-.5,11.6c0,.8.5,1.6,1.2,2l.9.4c1.1.6,1.8,1.7,1.8,2.9v15.5c0,1.2-.7,2.4-1.8,2.9l-.9.4c-.8.4-1.2,1.2-1.2,2v21c0,.4.3.7.7.7h6.8c.4,0,.7-.3.7-.7v-20.6c0-1.2.7-2.4,1.8-2.9l.9-.4c.8-.4,1.2-1.2,1.2-2v-16.5c0-.9-.5-1.6-1.2-2l-.9-.4c-1.1-.6-1.8-1.7-1.8-2.9v-27.1c0-.4-.3-.7-.7-.7h-11.2c-.3,0-.6.2-.7.5l-5.8,29.2c-.2.9.2,1.9,1.1,2.4,1.2.7,1.8,2.1,1.5,3.4l-1.3,6.3c0,.3-.4.6-.7.6s-.6-.2-.7-.6l-1.4-6.8c-.1-.7-.6-1.4-1.3-1.6l-1.8-.8c-1-.4-1.7-1.3-1.9-2.4l-5.8-29.7c0-.3-.3-.5-.7-.5h-11c-.4,0-.7.3-.7.7v31.4c0,.9.5,1.6,1.2,2l.9.4c1.1.6,1.8,1.7,1.8,2.9v10.4c0,1.2-.7,2.4-1.8,2.9l-.9.4c-.8.4-1.2,1.2-1.2,2v22.4c0,.4.3.7.7.7h6.6c.4,0,.7-.3.7-.7v-22.1c0-1.2.7-2.4,1.8-2.9l.9-.4c.8-.4,1.2-1.2,1.2-2v-11.4c0-.9-.5-1.6-1.2-2l-.9-.4c-1.1-.6-1.8-1.7-1.8-2.9l-.4-14.6c0-.3.2-.7.6-.8.5,0,.8.3.9.7l1.9,13.8c.1.7.6,1.4,1.3,1.7l1.7.7c1,.4,1.7,1.4,1.9,2.5l3,12.8c.2,1.4-.4,2.7-1.6,3.4h-.1c-.8.5-1.3,1.5-1.1,2.4l3.6,21.8c0,.3.3.6.7.6h2.3c.3,0,.6-.2.7-.6l3.6-21.7c.2-1.1.9-2,1.9-2.5l1.7-.7c.7-.3,1.2-.9,1.3-1.7l3.1-14.4c.1-.9-.3-1.8-1.1-2.3h-.1c-1.2-.8-1.8-2.1-1.6-3.4l1.8-12.3c0-.3.3-.7.7-.7ZM49.8,70.8h0s0,0,0,0ZM50.3,70.8h0s0,0,0,0Z"/>
    </g>
  </g>
</svg>