<?xml version="1.0" encoding="UTF-8"?>
<svg id="Layer_1" xmlns="http://www.w3.org/2000/svg" version="1.1" viewBox="0 0 150.6 150.6">
  <!-- Generator: Adobe Illustrator 29.8.2, SVG Export Plug-In . SVG Version: 2.1.1 Build 3)  -->
  <defs>
    <style>
      .st0 {
        isolation: isolate;
      }

      .st1 {
        fill: #ed1c24;
      }

      .st2 {
        fill: #fff685;
      }
    </style>
  </defs>
  <circle class="st2" cx="75.3" cy="75.3" r="75.3"/>
  <g class="st0">
    <g class="st0">
      <path class="st1" d="M93.5,22c1-.8,2.2-1.2,3.5-1.3,1.3,0,2.6.2,3.9.8,1.7.8,2.8,1.9,3.5,3.4.7,1.4.8,3,.4,4.7l-4-1.9c0-.6-.1-1.2-.4-1.6-.3-.5-.7-.8-1.3-1.1-.9-.4-1.7-.4-2.5,0s-1.5,1.1-2,2.1c-.5,1-.6,2-.4,2.8s.7,1.5,1.6,1.9c.6.3,1.1.4,1.7.3.5,0,1.1-.3,1.6-.7l4,1.9c-1.1,1.4-2.4,2.2-3.9,2.6-1.6.3-3.2.1-4.8-.7-1.3-.6-2.3-1.5-3.1-2.5-.7-1.1-1.1-2.2-1.2-3.5,0-1.3.2-2.6.9-3.9.6-1.3,1.5-2.3,2.5-3.1Z"/>
    </g>
  </g>
  <g class="st0">
    <g class="st0">
      <path class="st1" d="M103.9,40c-.4-1.3-.4-2.6,0-3.9.3-1.3,1-2.5,2-3.5s2.2-1.7,3.5-2.1c1.3-.3,2.6-.3,3.9,0,1.3.4,2.4,1,3.4,2,1,1,1.7,2.1,2,3.4.4,1.3.4,2.6,0,3.8s-1,2.5-2,3.5c-1,1-2.2,1.7-3.5,2.1-1.3.3-2.6.3-3.9,0-1.3-.4-2.4-1-3.4-2-1-1-1.7-2.1-2-3.4ZM111.1,41.7c.9,0,1.8-.5,2.6-1.3.8-.8,1.3-1.7,1.3-2.6,0-.9-.3-1.7-1.1-2.5-.8-.7-1.6-1.1-2.5-1-.9,0-1.8.5-2.6,1.3-.8.8-1.3,1.7-1.3,2.6,0,.9.3,1.7,1.1,2.5.7.7,1.6,1.1,2.5,1Z"/>
    </g>
  </g>
  <g class="st0">
    <g class="st0">
      <path class="st1" d="M115,55.8l3.5-5.1-.2-.4-4.8,2.5-1.9-3.6,13.1-6.9,3,5.8c.6,1.1.8,2,.9,3,0,.9-.2,1.7-.6,2.4-.4.7-1.1,1.3-1.9,1.7-.9.5-1.8.6-2.7.5-.9-.1-1.8-.6-2.6-1.4l-3.6,5.6-2.1-4.1ZM120.7,48.9l.9,1.8c.3.5.6.8.9.9.4.1.8,0,1.2-.2.4-.2.7-.5.8-.9.1-.4,0-.8-.2-1.3l-.9-1.8-2.7,1.4Z"/>
    </g>
  </g>
  <g class="st0">
    <g class="st0">
      <path class="st1" d="M121.4,69.1l-.9-5.2-2.5-.4-.7-4.3,15.5,2.8.8,4.7-13.7,7.8-.7-4.3,2.2-1.2ZM124.3,67.6l4.4-2.4-5-.7.5,3.1Z"/>
    </g>
  </g>
  <g class="st0">
    <g class="st0">
      <path class="st1" d="M122.3,79.8l-.8,6.1-3.3-.4,1.3-10.7,3.1.4,7.5,7.1.7-6,3.3.4-1.3,10.7-3.1-.4-7.5-7.1Z"/>
    </g>
  </g>
  <g class="st0">
    <g class="st0">
      <path class="st1" d="M117.6,90.1c1.1-.8,2.3-1.3,3.6-1.4,1.3-.1,2.7,0,4,.7,1.3.6,2.4,1.5,3.1,2.5s1.2,2.3,1.3,3.6c.1,1.3-.1,2.6-.7,3.9-.6,1.3-1.4,2.3-2.5,3.1-1.1.8-2.3,1.2-3.6,1.4-1.3.1-2.7,0-4-.7-1.3-.6-2.4-1.4-3.2-2.5-.8-1.1-1.2-2.3-1.3-3.6-.1-1.3.1-2.6.7-3.9s1.4-2.3,2.5-3.1ZM118.5,97.4c.4.8,1.1,1.5,2.1,2,1.1.5,2,.6,2.9.3.9-.3,1.5-.9,2-1.8.4-1,.5-1.9.1-2.7-.4-.8-1.1-1.5-2.2-2-1.1-.5-2-.6-2.9-.3-.9.3-1.5.9-2,1.9-.4,1-.5,1.9,0,2.7ZM130.4,102.9l.3-5.6,2.5,1.2v5.8s-2.8-1.3-2.8-1.3Z"/>
    </g>
  </g>
  <g class="st0">
    <g class="st0">
      <path class="st1" d="M102.4,110.3l2.8-3,9.8,1.7-6-5.7,2.8-3,10.7,10.2-2.8,3-9.8-1.8,6.1,5.8-2.8,3-10.7-10.2Z"/>
    </g>
  </g>
  <g class="st0">
    <g class="st0">
      <path class="st1" d="M98.4,121.9c-.4,1-1.2,1.8-2.3,2.2-.4.2-.9.3-1.3.3-.4,0-.9,0-1.5,0-.4,0-.8,0-1,0-.2,0-.5,0-.7.1-.4.1-.6.3-.7.6-.1.3-.1.7,0,1.2l-2.9,1.1c-.4-1.7-.3-3.1.2-4.1.5-1.1,1.2-1.8,2.3-2.2.4-.2.9-.3,1.3-.3.4,0,.9,0,1.4,0,.4,0,.7,0,1,0,.3,0,.5,0,.7-.1.4-.1.6-.3.7-.6.1-.3.1-.7,0-1.2l2.8-1.1c.4,1.7.3,3.1-.1,4.1Z"/>
    </g>
  </g>
  <g class="st0">
    <g class="st0">
      <path class="st1" d="M73.6,122.4h-4.6c0-.1,0-3.3,0-3.3l8.7.2-.4,14.8h-4.1c0-.1.3-11.8.3-11.8Z"/>
    </g>
  </g>
  <g class="st0">
    <g class="st0">
      <path class="st1" d="M58.8,118.9l5,1.5,1.5-2.1,4.1,1.3-9.5,12.6-4.5-1.4-.8-15.7,4.2,1.3v2.5ZM58.9,122.2v5c.1,0,3-4.1,3-4.1l-3-.9Z"/>
    </g>
  </g>
  <g class="st0">
    <g class="st0">
      <path class="st1" d="M36.9,120.7l1.8-2.7,3.3,2.2,6.4-9.6,3.4,2.3-6.4,9.6,3.2,2.2-1.8,2.7-9.9-6.7Z"/>
    </g>
  </g>
  <g class="st0">
    <g class="st0">
      <path class="st1" d="M31.5,115.2l10.5-10.4,2.9,2.9-10.5,10.4-2.9-2.9Z"/>
    </g>
  </g>
  <g class="st0">
    <g class="st0">
      <path class="st1" d="M33.5,92.3l2.2,3.5-4.2,9,7.1-4.3,2.2,3.5-12.6,7.7-2.2-3.5,4.3-9.1-7.1,4.4-2.2-3.5,12.6-7.7Z"/>
    </g>
  </g>
  <g class="st0">
    <g class="st0">
      <path class="st1" d="M31.5,88.3c-.4,1.3-1.1,2.4-2.1,3.3s-2.2,1.5-3.6,1.8c-1.4.3-2.8.3-4-.2-1.3-.4-2.3-1.1-3.2-2.1s-1.5-2.2-1.8-3.5c-.3-1.4-.3-2.7.1-4,.4-1.3,1.1-2.4,2.1-3.3,1-.9,2.2-1.5,3.6-1.8,1.4-.3,2.8-.3,4,.1s2.3,1.1,3.2,2.1c.9,1,1.5,2.2,1.8,3.5.3,1.4.2,2.7-.1,3.9ZM26.4,83c-.8-.4-1.8-.5-2.9-.3-1.1.3-2,.7-2.5,1.5-.5.7-.7,1.6-.5,2.6.2,1,.7,1.8,1.5,2.2.8.4,1.8.5,2.9.3,1.1-.2,2-.7,2.5-1.5.5-.7.7-1.6.5-2.7-.2-1-.7-1.8-1.5-2.2Z"/>
    </g>
  </g>
  <g class="st0">
    <g class="st0">
      <path class="st1" d="M22.7,67.9c-.6-1-.8-2-.5-3.2.1-.5.3-.9.5-1.2.2-.3.5-.7.9-1.1.3-.3.5-.6.6-.8.1-.2.2-.4.3-.7,0-.4,0-.7-.1-.9-.2-.3-.5-.5-.9-.7l.7-3c1.6.7,2.7,1.5,3.3,2.4.6,1,.8,2,.5,3.2-.1.5-.3.9-.5,1.2-.2.3-.5.7-.9,1.1-.3.3-.5.6-.6.8-.2.2-.3.4-.3.7,0,.4,0,.7.1.9.2.3.5.5,1,.7l-.7,2.9c-1.6-.7-2.7-1.5-3.4-2.4Z"/>
    </g>
  </g>
  <g>
    <rect class="st1" x="49.2" y="61" width="4.3" height="1.2"/>
    <polygon class="st1" points="61.2 73.6 61.2 72.4 55.9 72.4 55.9 73.6 55.1 73.6 55.1 74.8 52.7 74.8 53.9 76.7 58.5 76.7 58.5 74.8 62.5 74.8 62.5 73.6 61.2 73.6"/>
    <polygon class="st1" points="53.4 65.2 49.8 65.2 49.2 64 53.4 64 53.4 65.2"/>
    <rect class="st1" x="69.4" y="87.5" width="11.4" height="1.2"/>
    <rect class="st1" x="66.6" y="83.2" width="6.2" height="1.2"/>
    <rect class="st1" x="73.3" y="91.3" width="3.7" height="1.2"/>
    <polygon class="st1" points="76.9 93.2 75.7 93.2 74.5 93.2 73.3 93.2 73.3 94.4 74.5 94.4 74.5 96.1 75.7 96.1 75.7 94.4 76.9 94.4 76.9 93.2"/>
    <polygon class="st1" points="66 78.9 64.7 78.9 64.7 79.8 66 79.8 66 81.1 67 81.1 67 79.8 67 78.9 66 78.9"/>
    <rect class="st1" x="77.8" y="83.2" width="6.2" height="1.2"/>
    <rect class="st1" x="74.5" y="48.6" width="1.2" height="11.4"/>
    <rect class="st1" x="74.5" y="77.3" width="1.2" height="8.6"/>
    <polygon class="st1" points="65.5 52.2 65 52.2 65 51.1 62.9 51.1 62.9 49.2 61.7 49.2 61.7 47.6 60.5 47.6 60.5 52.2 56.7 52.2 56.7 53.4 64.3 53.4 64.3 54.3 56.7 54.3 56.7 55.5 64.3 55.5 64.3 56.5 55.7 56.5 55.7 55.8 54.5 55.8 54.5 56.5 53.2 56.5 53.2 57.7 54.5 57.7 55.7 57.7 64.3 57.7 64.3 58.8 65.5 58.8 66.7 58.8 66.7 52.2 65.5 52.2"/>
    <polygon class="st1" points="56.7 67.8 54.2 65.2 54.2 61 56.7 58.8 56.7 67.8"/>
    <polygon class="st1" points="57.9 67.8 60.3 65.2 60.3 61 57.9 58.8 57.9 67.8"/>
    <polygon class="st1" points="52.7 73.6 54.2 71.6 54.2 68.4 52.7 66.8 52.7 73.6"/>
    <polygon class="st1" points="49.5 69.6 51.1 71.4 51.1 67.4 49.5 65.7 49.5 69.6"/>
    <path class="st1" d="M92.7,69.4v-1.6h-8l-1.3-2.3,2-2.9v-2.3h-1.6l-1.9,2.8-.2-.4v-2.7h-2.3l1.4-1.9v-2.3h-1.6l-3,4.2h-2.1l-3-4.2h-1.6v2.3l1.4,1.9h-2.3v2.7l-.3.5-1.9-2.8h-1.6v2.3l2.1,2.9-1.3,2.2h-7.7v1.6h7.7l1.6,2.7-2.3,3.2v2.3h1.6l2.1-3.1h0v2.8h2l-1.1,1.5v2.3h1.6l2.7-3.8h2.7l2.7,3.8h1.6v-2.3l-1.1-1.5h2.1v-2.7h0c0,0,2.1,3,2.1,3h1.6v-2.3l-2.3-3.2,1.6-2.7h8ZM79.2,75.8h-8.2l-4.1-7.1,4.1-7.1h8.2l4.1,7.1-4.1,7.1Z"/>
    <path class="st1" d="M77.1,65.3h-3.9l-1.9,3.4,1.9,3.4h3.9l1.9-3.4-1.9-3.4ZM76.2,70.5h-2.1l-1.1-1.8,1.1-1.8h2.1l1.1,1.8-1.1,1.8Z"/>
    <polygon class="st1" points="60.6 81.1 74.4 100.6 75.1 100.6 75.1 98.1 73.8 98.1 73.8 96.4 72.6 96.4 72.6 94.6 71.3 94.6 71.3 92.9 70.1 92.9 70.1 91.2 68.8 91.2 68.8 89.4 67.5 89.4 67.5 87.7 66.3 87.7 66.3 86 65 86 65 84.3 63.7 84.3 63.7 82.6 62.5 82.6 62.5 80.8 61.2 80.8 61.2 79.1 58.1 79.1 58.1 84 59.4 84 59.4 85.7 60.7 85.7 60.7 87.5 61.9 87.5 61.9 89.2 63.2 89.2 63.2 90.9 64.5 90.9 64.5 92.6 65.7 92.6 65.7 94.4 67 94.4 67 96.1 68.2 96.1 68.2 97.8 69.5 97.8 69.5 99.5 70.8 99.5 70.8 101.3 72.1 101.3 72.1 103 75.1 103 75.1 102.1 73.4 102.1 59.4 82.4 59.4 81.1 60.6 81.1"/>
    <rect class="st1" x="97.2" y="61" width="4.3" height="1.2"/>
    <polygon class="st1" points="89.4 73.6 89.4 72.4 94.7 72.4 94.7 73.6 95.5 73.6 95.5 74.8 97.9 74.8 96.7 76.7 92.1 76.7 92.1 74.8 88.1 74.8 88.1 73.6 89.4 73.6"/>
    <polygon class="st1" points="97.1 65.2 100.5 65.2 101.1 64 97.1 64 97.1 65.2"/>
    <polygon class="st1" points="84.2 78.9 85.5 78.9 85.5 79.8 84.2 79.8 84.2 81.1 83.2 81.1 83.2 79.8 83.2 78.9 84.2 78.9"/>
    <polygon class="st1" points="85.1 52.2 85.6 52.2 85.6 51.1 87.7 51.1 87.7 49.2 88.9 49.2 88.9 47.6 90.1 47.6 90.1 52.2 93.9 52.2 93.9 53.4 86.3 53.4 86.3 54.3 93.9 54.3 93.9 55.5 86.3 55.5 86.3 56.5 94.9 56.5 94.9 55.8 96.1 55.8 96.1 56.5 97.4 56.5 97.4 57.7 96.1 57.7 94.9 57.7 86.3 57.7 86.3 58.8 85.1 58.8 83.9 58.8 83.9 52.2 85.1 52.2"/>
    <polygon class="st1" points="93.9 67.8 96.3 65.2 96.3 61 93.9 58.8 93.9 67.8"/>
    <polygon class="st1" points="92.7 67.8 90.3 65.2 90.3 61 92.7 58.8 92.7 67.8"/>
    <polygon class="st1" points="97.9 73.6 96.3 71.6 96.3 68.4 97.9 66.8 97.9 73.6"/>
    <polygon class="st1" points="101 69.6 99.5 71.4 99.5 67.4 101 65.7 101 69.6"/>
    <polygon class="st1" points="89 79.1 89 80.8 87.8 80.8 87.8 82.6 86.5 82.6 86.5 84.3 85.2 84.3 85.2 86 84 86 84 87.7 82.7 87.7 82.7 89.4 81.4 89.4 81.4 91.2 80.2 91.2 80.2 92.9 78.9 92.9 78.9 94.6 77.6 94.6 77.6 96.4 76.4 96.4 76.4 98.1 75.1 98.1 75.1 100.6 75.8 100.6 89.6 81.1 90.8 81.1 90.8 82.4 76.8 102.1 75.1 102.1 75.1 103 78.2 103 78.2 101.3 79.4 101.3 79.4 99.5 80.7 99.5 80.7 97.8 82 97.8 82 96.1 83.2 96.1 83.2 94.4 84.5 94.4 84.5 92.6 85.8 92.6 85.8 90.9 87 90.9 87 89.2 88.3 89.2 88.3 87.5 89.6 87.5 89.6 85.7 90.8 85.7 90.8 84 92.1 84 92.1 79.1 89 79.1"/>
  </g>
</svg>