<svg width="216" height="23" viewBox="0 0 216 23" fill="none" xmlns="http://www.w3.org/2000/svg">
<g clip-path="url(#clip0_2_31)">
<path d="M27.8458 0.479419H43.0787V4.34104H31.999V9.14837H42.2054V12.7933H31.999V17.6597H43.0787V21.5213H27.8458V0.479419Z" fill="#272727"/>
<path d="M76.9776 0.485987H81.2242L75.3243 21.5148H71.0445L66.1713 6.53455L61.2914 21.5148H56.9516L51.0251 0.485987H55.4183L59.3382 14.9605L64.0647 0.485987H68.3712L73.1311 15.0196L76.9843 0.485987H76.9776Z" fill="#272727"/>
<path d="M4.2332 8.12386L14.2062 21.5476H17.7994V0.485987H13.5662V13.299L3.59322 0.485987H0V21.5476H4.2332V8.12386Z" fill="#272727"/>
<path d="M176.635 8.12386L186.608 21.5476H190.201V0.485987H185.968V13.299L175.995 0.485987H172.401V21.5476H176.635V8.12386ZM152.415 14.816L155.595 5.64139L158.782 14.816H152.415ZM153.269 0.485987L145.662 21.5607H150.069L151.095 18.5923H160.082L161.108 21.5607H165.635L158.095 0.485987H153.269ZM111.157 9.14837L108.423 8.54417C105.923 7.98594 105.923 6.79725 105.923 6.28499C105.923 4.67598 107.723 3.67774 109.383 3.67774C111.043 3.67774 112.843 4.56433 112.843 6.54769H116.576C116.576 2.7583 113.55 0 109.383 0C105.923 0 102.19 2.40366 102.19 6.28499C102.19 9.3651 104.017 11.3222 107.61 12.1234L110.317 12.7276C112.637 13.253 113.69 14.3235 113.45 15.8668C113.19 17.1277 111.843 18.3953 109.417 18.3953C107.15 18.3953 105.75 16.7403 105.75 15.2101H102.017C102.017 18.5069 104.843 22.073 109.417 22.073C113.99 22.073 116.563 19.3081 117.13 16.5235C117.696 12.813 115.523 10.1269 111.157 9.14837ZM205.247 17.7582H203.114V4.2885H205.274C208.774 4.2885 211.673 6.45574 211.673 11.0332C211.673 15.6107 208.747 17.7517 205.247 17.7517V17.7582ZM198.961 0.485987V21.5607H205.407C211.5 21.5607 216 17.6991 216 11.0398C216 4.38045 211.533 0.485987 205.44 0.485987H198.961ZM123.61 4.37388H130.123V21.5542H134.316V4.37388H140.829V0.479419H123.61V4.37388Z" fill="#272727"/>
</g>
<defs>
<clipPath id="clip0_2_31">
<rect width="216" height="22.073" fill="white"/>
</clipPath>
</defs>
</svg>
