<svg width="120" height="13" viewBox="0 0 120 13" fill="none" xmlns="http://www.w3.org/2000/svg">
<path d="M119.988 9.25438C119.988 8.35438 119.978 7.42438 119.978 6.48438V6.14438C119.978 4.87438 119.978 3.56438 119.478 2.33438C118.918 0.854377 117.538 -0.0556234 115.938 0.0243766C114.338 0.104377 113.048 1.15438 112.648 2.69438C112.508 3.17438 112.438 3.66438 112.408 4.16438C112.148 4.21438 111.898 4.20438 111.708 4.03438C111.568 3.89438 111.498 3.62438 111.518 3.26438C111.518 3.15438 111.538 3.04438 111.538 2.93438C111.578 2.44438 111.618 1.94438 111.428 1.49438C110.968 0.504377 109.958 -0.0556234 108.718 0.00437661C107.268 0.0643766 105.938 0.954377 105.508 2.16438C105.418 2.38438 105.148 3.13438 105.538 3.53438L105.558 3.55438C105.738 3.72438 106.028 3.77438 106.328 3.82438C106.568 3.86438 106.808 3.90438 107.028 4.00438C107.638 4.25438 107.967 4.95438 108.018 6.08438C108.048 6.94438 108.048 7.82438 108.038 8.67438C108.038 9.20438 108.038 9.76438 108.038 10.2944C108.038 10.7844 108.058 11.4544 108.428 11.8844C108.788 12.2844 109.438 12.3844 110.088 12.3844C110.478 12.3844 110.878 12.3444 111.208 12.3144H111.328C112.638 12.1244 112.628 10.8044 112.618 9.83438C112.618 9.14438 112.618 8.53438 112.608 7.90438C112.608 7.43438 112.568 6.94438 112.538 6.47438C112.488 5.72438 112.438 4.97438 112.488 4.23438C112.648 4.19438 112.798 4.14438 112.948 4.09438C113.147 4.02438 113.338 3.96438 113.508 3.94438C113.888 3.85438 114.248 3.90438 114.558 4.11438C114.908 4.34438 115.158 4.74438 115.238 5.20438C115.398 6.28438 115.388 7.37438 115.368 8.44438C115.368 9.04438 115.348 9.66438 115.368 10.2644C115.368 11.2844 115.518 12.2344 116.718 12.3344H116.798C118.268 12.4144 119.077 12.4544 119.518 12.0144C119.948 11.5944 120.008 10.7544 119.968 9.25438H119.988Z" fill="#0C0F12"/>
<path d="M61.8576 0.664374C61.8276 0.604374 61.7776 0.564374 61.7276 0.534374C61.6776 0.514374 61.6376 0.504374 61.6076 0.504374C61.1076 0.474374 60.6176 0.464374 60.1476 0.464374C59.4276 0.464374 58.7276 0.464374 57.8876 0.464374C57.5176 0.464374 57.1376 0.464374 56.7676 0.464374C56.3076 0.464374 55.8376 0.464374 55.3676 0.464374H55.3176C54.5576 0.464374 53.7876 0.464374 53.0276 0.464374C52.4376 0.464374 51.7576 0.464374 51.0876 0.464374H51.0776C50.8776 0.464374 50.4576 0.454374 50.4276 0.894374C50.3976 1.31437 50.3976 1.74437 50.3876 2.15437C50.3876 2.39437 50.3876 2.95437 50.7676 3.11437C50.9076 3.17437 51.0776 3.18437 51.2076 3.18437C51.5176 3.19437 51.8276 3.19437 52.1276 3.18437C52.2476 3.18437 52.3776 3.18437 52.4976 3.18437H53.4376C53.4976 3.18437 53.5576 3.18437 53.6076 3.18437C53.6276 3.18437 53.6476 3.18437 53.6776 3.18437C53.7676 3.18437 53.8676 3.18437 53.9576 3.18437H54.0076C54.1276 3.18437 54.2776 3.18437 54.3476 3.23437C54.3576 3.23437 54.3876 3.26437 54.3876 3.33437V3.48437C54.3876 4.08437 54.3876 4.69437 54.3876 5.29437C54.3876 5.91437 54.3876 6.52437 54.3876 7.14437V8.98437C54.3876 9.50437 54.3876 10.0244 54.3876 10.5444V10.6344C54.3876 10.9444 54.3876 11.2544 54.3876 11.5744C54.3976 12.0844 54.8476 12.0744 55.1676 12.0744C55.2576 12.0744 55.3576 12.0744 55.4576 12.0744H56.2976C56.5476 12.0744 56.7876 12.0744 56.9876 12.0744C57.2876 12.0744 57.4676 12.0644 57.5976 12.0244C57.8776 11.9444 57.8976 11.7244 57.9076 11.5644C57.9076 11.4844 57.9076 11.4044 57.9176 11.3344C57.9376 10.7744 57.9476 10.2144 57.9376 9.59437C57.9376 9.12437 57.9376 8.64437 57.9376 8.17437V7.45437C57.9276 6.75437 57.9276 5.99437 57.9376 5.25437C57.9376 5.06437 57.9376 4.88437 57.9376 4.69437C57.9376 4.25437 57.9476 3.80437 57.9376 3.35437C57.9376 3.28437 57.9376 3.22437 58.1776 3.20437C58.2576 3.20437 58.3476 3.20437 58.4376 3.20437H58.4576C58.4576 3.20437 58.5476 3.20437 58.5976 3.20437C58.7876 3.20437 58.9676 3.20437 59.1576 3.20437H59.6676C60.1176 3.20437 60.5676 3.20437 61.0176 3.20437C61.3276 3.20437 61.5576 3.17437 61.7276 3.01437C61.8676 2.87437 61.9376 2.65437 61.9376 2.31437C61.9376 2.19437 61.9376 2.07437 61.9376 1.96437C61.9376 1.62437 61.9476 1.27437 61.9076 0.924374C61.9076 0.844374 61.8876 0.754374 61.8376 0.674374L61.8576 0.664374Z" fill="#0C0F12"/>
<path d="M25.9376 1.42438V1.02438C25.9376 0.90438 25.9376 0.75438 25.8376 0.64438C25.7176 0.49438 25.4176 0.47438 25.0776 0.47438H25.0376C24.8676 0.47438 24.6176 0.47438 24.3576 0.47438C23.7276 0.47438 23.0076 0.46438 22.6676 0.52438H22.6376C22.3876 0.61438 22.3776 0.85438 22.3776 0.95438C22.3776 3.16438 22.3776 8.07438 22.3776 10.4844V11.5844C22.3776 11.6944 22.3776 11.8544 22.5176 11.9644C22.5876 12.0344 22.7276 12.0844 23.1276 12.0844C23.3676 12.0844 23.8076 12.0844 24.2476 12.0844C24.6876 12.0844 25.1176 12.0844 25.3976 12.0744H25.4176C25.5476 12.0744 25.7376 12.0544 25.8576 11.9044C25.9376 11.8044 25.9476 11.6644 25.9476 11.5744C25.9476 11.5144 25.9476 11.4644 25.9476 11.4044C25.9476 11.3744 25.9476 11.3444 25.9476 11.3144V1.42438H25.9376Z" fill="#0C0F12"/>
<path d="M21.2776 9.62437C21.2776 9.62437 21.2776 9.53437 21.2476 9.48437C21.2276 9.44437 21.1976 9.41437 21.1676 9.39437C21.1276 9.36437 21.0876 9.36437 21.0676 9.36437C20.6776 9.34437 20.2776 9.33437 19.8876 9.33437H19.8176C19.5476 9.33437 19.2876 9.33437 19.0176 9.33437C18.7276 9.33437 18.4376 9.33437 18.1476 9.33437H17.2576C16.9776 9.33437 16.6976 9.33437 16.4176 9.33437C16.1776 9.33437 15.9376 9.33437 15.6976 9.33437C15.5176 9.33437 15.3276 9.33437 15.1476 9.33437H15.1076C15.1076 9.33437 15.0376 9.33437 14.9976 9.33437V9.23437C14.9976 9.06437 14.9976 8.90437 14.9976 8.73437C14.9976 8.53437 14.9976 8.34436 14.9976 8.14436C14.9976 7.92436 14.9976 7.69437 14.9976 7.47437C14.9976 7.23437 14.9976 6.99437 14.9976 6.74437V3.57437C14.9976 3.15437 14.9976 2.72437 14.9976 2.30437V1.73437C14.9976 1.57437 14.9976 1.41437 14.9976 1.26437C14.9976 1.14437 14.9976 1.02437 14.9976 0.914365V0.764365C14.9976 0.544365 14.8676 0.484365 14.7876 0.474365C14.7276 0.474365 14.6476 0.474365 14.5276 0.474365H12.0876C12.0176 0.474365 11.9576 0.474365 11.9076 0.474365C11.6776 0.474365 11.6076 0.474365 11.5376 0.514365C11.4976 0.544365 11.4376 0.594365 11.4276 0.714365C11.4276 1.37437 11.4276 11.3844 11.4276 11.8844V11.9044C11.4376 12.0044 11.5076 12.0744 11.6076 12.0944C11.6376 12.0944 11.6876 12.0944 11.7576 12.0944H11.7776C11.7776 12.0944 11.8576 12.0944 11.9076 12.0944C11.9476 12.0944 11.9876 12.0944 12.0376 12.0944H20.0676C20.1776 12.0944 20.2976 12.0944 20.4076 12.0944H20.5776C20.6576 12.0944 20.7276 12.0944 20.8076 12.0944C20.8776 12.0944 20.9476 12.0944 21.0176 12.0944C21.1976 12.0944 21.2776 11.9744 21.2876 11.8744C21.2976 11.8044 21.2876 11.7344 21.2876 11.6744V11.6444C21.2876 11.4844 21.2876 11.3344 21.2876 11.1744V10.2044C21.2876 10.1544 21.2876 10.0944 21.2876 10.0444C21.2876 9.90437 21.2876 9.75437 21.2876 9.61437L21.2776 9.62437Z" fill="#0C0F12"/>
<path d="M36.7676 1.00437C36.6176 0.924365 36.4676 0.874365 36.3176 0.824365C35.8976 0.684365 35.4476 0.584365 35.0076 0.534365C34.5476 0.484365 34.0876 0.474365 33.6876 0.474365C33.1676 0.474365 32.6376 0.474365 32.1176 0.474365H30.4976C29.9676 0.474365 29.4276 0.474365 28.8976 0.474365H28.7676C28.5876 0.474365 28.4176 0.474365 28.2376 0.474365H28.1776C28.1076 0.474365 28.0376 0.474365 27.9776 0.474365C27.9476 0.474365 27.9176 0.474365 27.8876 0.474365C27.8076 0.474365 27.7176 0.474365 27.6276 0.504365C27.4676 0.544365 27.3476 0.654365 27.2976 0.784365C27.2676 0.864365 27.2676 0.944365 27.2676 1.01437C27.2676 1.53437 27.2576 2.04437 27.2476 2.56437C27.2476 3.12437 27.2476 3.68437 27.2476 4.23436C27.2476 4.86437 27.2476 5.49437 27.2476 6.12437C27.2476 6.77437 27.2476 7.42436 27.2476 8.06436V9.89437C27.2476 10.4144 27.2476 10.9344 27.2476 11.4444C27.2276 12.0244 27.8176 12.0544 28.1376 12.0644C28.3676 12.0644 28.6476 12.0744 28.9276 12.0744C29.1776 12.0744 29.4376 12.0744 29.6476 12.0644C30.2176 12.0544 30.7976 11.9244 30.8076 11.0444C30.8276 10.7444 30.8276 10.3344 30.8276 9.94437C30.8276 9.59437 30.8276 9.23437 30.8376 8.96437C30.8376 8.41437 31.0076 8.24436 31.5576 8.23436C31.9176 8.22436 32.2976 8.22436 32.6976 8.23436C34.7876 8.24436 37.3876 8.25436 38.4976 6.09437C38.9676 5.11437 39.0176 3.96437 38.6376 2.95437C38.2976 2.05437 37.6476 1.36437 36.8076 1.00437H36.7676ZM35.1976 4.64437C35.0576 5.10437 34.6376 5.43436 34.1376 5.48436H34.1076C33.4976 5.55437 32.8076 5.54437 32.1476 5.54437C31.9376 5.54437 31.7376 5.54437 31.5476 5.54437C31.5176 5.54437 31.4776 5.54437 31.4476 5.54437C31.0176 5.53437 30.8576 5.45437 30.8176 5.26437C30.7176 4.75436 30.7576 4.00436 30.7876 3.60437C30.8276 3.26437 30.9876 3.20437 31.4476 3.19437C31.6376 3.19437 31.8576 3.19437 32.0676 3.19437H32.2576C32.4376 3.19437 32.6176 3.19437 32.8076 3.19437C33.5576 3.19437 34.4076 3.18437 34.8276 3.53437C35.1776 3.82437 35.3176 4.24437 35.1876 4.66437L35.1976 4.64437Z" fill="#0C0F12"/>
<path d="M73.0176 7.13441C73.0876 7.09441 73.1476 7.06441 73.1976 7.03441C73.6576 6.79441 74.0376 6.46441 74.3076 6.06441C74.9476 5.12441 75.0476 3.68441 74.5476 2.55441C74.2376 1.86441 73.6476 1.29441 72.8676 0.944405H72.8376C71.7376 0.464405 70.6676 0.464405 69.5376 0.464405C69.4076 0.464405 69.2776 0.464405 69.1376 0.464405C68.8976 0.464405 68.6576 0.464405 68.4176 0.464405C67.8376 0.464405 67.2576 0.464405 66.6876 0.464405H66.3376C65.7276 0.464405 65.1076 0.454405 64.4876 0.464405C64.2976 0.464405 64.1076 0.464405 63.9176 0.474405C63.8676 0.474405 63.8276 0.474405 63.7776 0.474405C63.6476 0.474405 63.5176 0.474405 63.3776 0.504405C63.1376 0.564405 63.1376 0.824405 63.1376 0.934405C63.1376 1.01441 63.1376 8.68441 63.1376 11.6344C63.1376 11.8644 63.2676 12.0244 63.4876 12.0544C63.8376 12.0844 64.2476 12.0944 64.6576 12.0944C65.0176 12.0944 65.3776 12.0944 65.6976 12.0844H66.0676C66.7076 12.0444 66.7076 11.6544 66.7076 11.1144V8.79441C66.7076 8.72441 66.7076 8.65441 66.7076 8.57441C66.7076 8.39441 66.6976 8.21441 66.7276 8.05441C66.7376 8.00441 66.7676 7.91441 66.8276 7.86441C66.8876 7.8144 66.9976 7.80441 67.0976 7.79441H67.1476C67.2776 7.77441 67.4276 7.76441 67.5876 7.76441C67.7876 7.76441 68.0176 7.78441 68.2976 7.81441C68.5076 7.83441 68.7276 7.8744 68.9176 7.96441C69.1376 8.0744 69.3376 8.24441 69.5076 8.47441C69.6476 8.6644 69.7376 8.87441 69.8376 9.10441V9.12441C69.8376 9.12441 69.8876 9.21441 69.9076 9.25441C70.0276 9.52441 70.1576 9.83441 70.2976 10.1544C70.5276 10.6944 70.7576 11.2544 70.9876 11.6744C71.0576 11.8144 71.1976 11.9344 71.3576 12.0044C71.6076 12.1144 71.8876 12.1044 72.1276 12.0944C72.1876 12.0944 72.2476 12.0944 72.2976 12.0944C72.5376 12.0944 72.7976 12.0944 73.0376 12.0944C73.1876 12.0944 73.3376 12.0944 73.4876 12.0944H73.5376C73.8276 12.0944 74.1376 12.0944 74.4276 12.0344H74.4476C74.5676 11.9844 74.6176 11.9044 74.6476 11.8444C74.7276 11.6544 74.6176 11.4244 74.4576 11.0644C74.1776 10.4644 73.7276 9.50441 73.4576 8.91441L73.4276 8.84441C73.3176 8.61441 73.2176 8.4044 73.0976 8.1944C73.0176 8.0644 72.9276 7.95441 72.8476 7.84441C72.7376 7.69441 72.6076 7.53441 72.6176 7.44441C72.6276 7.3344 72.8476 7.22441 73.0076 7.14441L73.0176 7.13441ZM70.3176 5.09441C69.7576 5.14441 68.7176 5.13441 67.8876 5.12441H67.8576C67.5976 5.12441 67.3576 5.12441 67.1676 5.12441C67.0976 5.12441 67.0276 5.12441 66.9676 5.12441C66.8976 5.12441 66.8076 5.12441 66.7676 5.08441C66.7076 5.02441 66.7076 4.81441 66.7076 4.58441V4.55441C66.7076 4.40441 66.7076 4.26441 66.7076 4.11441C66.7076 3.87441 66.7076 3.62441 66.7176 3.38441C66.7276 3.21441 66.7976 3.18441 66.8576 3.16441C66.9476 3.13441 67.0576 3.14441 67.1676 3.14441C67.1676 3.14441 67.2376 3.14441 67.2776 3.14441C67.3776 3.14441 67.4776 3.14441 67.5676 3.14441H67.5976C67.7276 3.14441 67.8576 3.14441 67.9776 3.14441C68.2476 3.14441 68.5476 3.14441 68.8676 3.14441C69.4876 3.13441 70.1276 3.12441 70.5576 3.22441C71.1476 3.38441 71.3176 3.85441 71.2876 4.20441C71.2476 4.61441 70.9476 5.0444 70.3476 5.09441H70.3176Z" fill="#0C0F12"/>
<path d="M85.7976 9.43435C85.5776 9.39435 85.3576 9.40436 85.1476 9.41436C85.0676 9.41436 84.9876 9.41436 84.9176 9.41436H84.5576C84.3576 9.41436 84.1476 9.41436 83.9476 9.41436C83.7676 9.41436 83.5776 9.41436 83.3976 9.41436C82.9676 9.41436 82.5176 9.41436 82.0976 9.41436H82.0376C81.6476 9.41436 81.2476 9.42436 80.8576 9.41436H80.8176C80.6276 9.41436 80.4276 9.41436 80.2276 9.40436C80.1276 9.40436 80.0176 9.39436 79.9176 9.38436C79.7976 9.37436 79.7376 9.35436 79.6876 9.30436C79.6376 9.24436 79.6076 9.14435 79.5976 9.06435C79.5676 8.92435 79.5676 8.77435 79.5676 8.61436C79.5676 8.36436 79.5876 8.11436 79.6176 7.90436C79.6976 7.53436 79.8676 7.51436 80.3976 7.50436C80.4776 7.50436 80.5576 7.50436 80.6376 7.50436C80.9276 7.49436 81.2176 7.50436 81.5376 7.50436C82.1576 7.51436 82.7976 7.53436 83.3876 7.39436C84.0076 7.21436 84.3076 6.46436 84.1776 5.89436C84.0576 5.22436 83.5476 4.85436 82.7576 4.85436C82.3576 4.84436 81.9276 4.84436 81.5076 4.84436H81.4776C81.2676 4.84436 81.0676 4.84436 80.8676 4.84436C80.7976 4.84436 80.7276 4.84436 80.6576 4.84436H80.6376C80.3876 4.84436 80.1176 4.85436 79.8976 4.78436C79.8276 4.76436 79.7676 4.72436 79.7276 4.66436C79.6176 4.52436 79.5976 4.32436 79.5876 4.18436C79.5776 3.95436 79.5876 3.74436 79.6076 3.55436C79.6276 3.44436 79.6376 3.33436 79.6976 3.26436C79.7576 3.19436 79.8476 3.17436 79.9176 3.15436C80.0976 3.12436 80.2776 3.12436 80.4676 3.13436C80.5176 3.13436 80.5676 3.13436 80.6276 3.13436C80.8176 3.13436 80.9976 3.13436 81.1876 3.13436H84.9976C85.0576 3.13436 85.1276 3.13436 85.1876 3.13436C85.3376 3.13436 85.4976 3.13436 85.6476 3.13436C85.8676 3.11436 86.0276 3.05436 86.1376 2.93436C86.2976 2.76436 86.3176 2.52436 86.3276 2.37436C86.3576 1.99436 86.3576 1.38436 86.3076 1.00436C86.2876 0.824355 86.2276 0.684355 86.1276 0.594355C85.9976 0.474355 85.8276 0.474355 85.7176 0.474355H85.6676C85.4376 0.474355 85.2176 0.474355 84.9876 0.464355C84.7076 0.464355 84.4176 0.464355 84.1376 0.464355C83.8076 0.464355 83.4876 0.464355 83.1576 0.464355C82.8076 0.464355 82.4476 0.464355 82.0976 0.464355C81.7276 0.464355 81.3676 0.464355 80.9976 0.464355H78.8876C78.5776 0.464355 78.2776 0.464355 77.9676 0.464355C77.7176 0.464355 77.4576 0.464355 77.2076 0.464355C77.0176 0.464355 76.8376 0.464355 76.6376 0.464355H76.5876C76.4576 0.464355 76.2876 0.464355 76.1576 0.584355C76.1076 0.624355 76.0676 0.684355 76.0476 0.754355C75.9976 0.884355 76.0076 1.01436 76.0176 1.12436C76.0176 1.12436 76.0176 1.19436 76.0176 1.22436C76.0176 1.38436 76.0176 1.54436 76.0176 1.70436C76.0176 1.86436 76.0176 2.01436 76.0176 2.16436C76.0176 3.03436 76.0176 4.03436 76.0176 5.05436V5.07436C76.0176 6.24436 76.0176 7.44436 76.0176 8.50436V11.3844C76.0176 11.8644 76.0476 12.0644 76.5976 12.0744C77.6376 12.0744 78.6876 12.0744 79.7376 12.0744C80.4376 12.0744 81.1376 12.0744 81.8376 12.0744H84.2076C84.3776 12.0744 84.5576 12.0744 84.7276 12.0744H84.7976C84.9276 12.0744 85.0676 12.0744 85.1976 12.0744C85.2976 12.0744 85.3976 12.0744 85.5076 12.0744C85.5676 12.0744 85.6376 12.0744 85.6976 12.0744C85.8576 12.0744 86.1076 12.0744 86.2576 11.8644C86.3676 11.7144 86.3876 11.5444 86.3976 11.3644C86.4076 11.1344 86.4476 10.3644 86.3576 9.92436C86.2976 9.64436 86.1176 9.46436 85.8276 9.41436L85.7976 9.43435Z" fill="#0C0F12"/>
<path d="M99.2575 8.9644L99.0875 8.4944C98.8075 7.7044 98.4975 6.8344 98.1875 5.9844C97.8975 5.1544 97.5575 4.2044 97.2275 3.3044V3.2744H97.2175L97.1775 3.1544C96.8675 2.2844 96.5675 1.4644 96.3475 0.824401C96.3075 0.734401 96.2575 0.584401 96.0875 0.534401C95.9775 0.494401 95.7375 0.484401 95.1075 0.484401H95.0675C94.9475 0.484401 94.8375 0.484401 94.7475 0.484401C94.3075 0.484401 93.8375 0.484401 93.3875 0.484401C92.6575 0.484401 91.9575 0.464401 91.3975 0.524401H91.3575C91.1675 0.594401 91.1175 0.744401 91.0675 0.864401V0.894401C90.9075 1.3144 90.5475 2.3244 90.0975 3.5744L89.9175 4.0744C88.8975 6.9244 87.5075 10.8444 87.2175 11.6644C87.1975 11.7444 87.1275 11.9844 87.3875 12.0744H87.4275C87.7075 12.1144 88.0275 12.1244 88.3475 12.1244C88.5275 12.1244 88.7175 12.1244 88.8975 12.1244C89.1975 12.1244 89.4975 12.1244 89.7975 12.1244H89.8175C89.9975 12.1244 90.1875 12.1244 90.3675 12.0744C90.6775 11.9944 90.8075 11.7644 90.9075 11.5244C90.9975 11.3244 91.0775 11.0744 91.1575 10.8144C91.2775 10.4244 91.4075 10.0244 91.5775 9.7744C91.6575 9.6944 91.7875 9.6844 91.9775 9.6744H92.0175C92.8075 9.6744 94.5475 9.6744 95.3375 9.6744C95.7475 9.6544 95.8375 9.8144 96.0075 10.3244C96.0575 10.4544 96.0975 10.5944 96.1475 10.7444C96.2275 11.0044 96.3175 11.2744 96.3975 11.4644C96.5075 11.7444 96.6375 11.9544 96.8875 12.0444C97.0775 12.1144 97.3275 12.1144 97.6775 12.1144H98.6275C98.9575 12.1144 99.2775 12.1144 99.5075 12.1144H99.5175C99.8775 12.1144 100.008 12.0944 100.088 12.0444C100.278 11.9344 100.218 11.7244 100.188 11.6444C100.058 11.2644 99.6975 10.2544 99.2475 8.9944L99.2575 8.9644ZM94.5175 7.0744H92.9075C92.8575 7.0744 92.8075 7.0744 92.7575 7.0744C92.7175 7.0744 92.6775 7.0744 92.6475 7.0744C92.5675 7.0744 92.4575 7.0744 92.3975 7.0744C92.5375 6.5344 92.9375 5.3944 93.2575 4.4744C93.4275 3.9744 93.5875 3.5344 93.6875 3.2244L93.7075 3.2944C93.7375 3.3944 93.7775 3.5144 93.8175 3.6244L94.7175 6.2644C94.7375 6.3444 94.7775 6.4544 94.8175 6.5744C94.8675 6.7144 94.9575 6.9444 94.9675 7.0644C94.8775 7.0744 94.6875 7.0844 94.5175 7.0844V7.0744Z" fill="#0C0F12"/>
<path d="M104.678 4.76439C104.388 4.56439 104.118 4.37439 104.148 3.96439C104.148 3.44439 104.428 2.94439 104.718 2.45439C104.818 2.28439 104.908 2.12439 104.988 1.96439C105.138 1.66439 105.448 1.05439 105.208 0.664388C105.188 0.624388 105.158 0.594388 105.128 0.564388C104.858 0.294388 104.408 0.304388 104.048 0.314388C103.998 0.314388 103.948 0.314388 103.898 0.314388H103.438C103.008 0.314388 102.558 0.314388 102.178 0.314388C101.888 0.314388 101.478 0.334388 101.248 0.634388C101.018 0.924388 101.018 1.34439 101.018 1.71439C101.018 1.77439 101.018 1.82439 101.018 1.87439C101.018 2.85439 101.018 4.13439 101.018 5.49439V5.52439C101.008 7.86439 100.998 10.2844 101.018 11.4544C101.018 11.6144 101.028 11.8044 101.128 11.9444C101.348 12.2444 101.838 12.2644 102.108 12.2744C102.428 12.2744 102.748 12.2744 103.078 12.2744H103.138C103.338 12.2744 103.538 12.2744 103.748 12.2744C103.838 12.2744 103.928 12.2744 104.008 12.2744C104.578 12.2744 104.958 12.2144 105.198 11.9744C105.478 11.6944 105.518 11.1744 105.498 10.4344C105.498 10.2144 105.498 9.96439 105.498 9.69439C105.508 8.24439 105.528 6.26439 105.268 5.39439C105.188 5.08439 104.938 4.91439 104.698 4.74439L104.678 4.76439Z" fill="#0C0F12"/>
<path d="M0.377597 5.70437C0.707597 6.32437 1.3076 6.77437 2.0476 6.97437C2.3176 7.04437 2.5876 7.08437 2.8576 7.08437C3.3876 7.08437 3.9076 6.94437 4.3476 6.68437C4.5476 6.52437 4.6476 6.32437 4.6076 6.11437C4.5776 5.89437 4.4076 5.69437 4.2176 5.48437C4.1276 5.38437 4.0376 5.27437 3.9676 5.16437C3.6876 4.77437 3.5776 4.14437 3.9376 3.73437C4.3276 3.25437 5.1176 3.16437 5.6676 3.35437C5.9276 3.43437 6.1376 3.58437 6.3776 3.74437C6.5876 3.89437 6.8076 4.04437 7.0576 4.13437C7.4676 4.28437 7.8976 4.28437 8.3176 4.28437H8.3376C8.4176 4.28437 8.5076 4.28437 8.5976 4.28437C8.8576 4.28437 9.1176 4.28437 9.3676 4.23437C9.5276 4.20437 9.6676 4.13437 9.7776 4.04437C9.9276 3.92437 9.9676 3.77437 9.9976 3.63437C10.0476 3.35437 10.0076 3.05437 9.8976 2.74437C9.7076 2.21437 9.3176 1.71437 8.7476 1.24437C8.5176 1.05437 8.2776 0.894371 8.0476 0.774371C6.3676 -0.055629 4.1376 -0.135629 2.4876 0.574371C1.3276 1.06437 0.517597 1.91437 0.167597 3.02437C-0.112403 3.92437 -0.0324034 4.91437 0.367597 5.67437V5.70437H0.377597Z" fill="#0C0F12"/>
<path d="M6.78759 5.30438C6.59759 5.34438 6.42759 5.39438 6.26759 5.46438C6.10759 5.53438 5.87759 5.65438 5.74759 5.85438C5.57759 6.13438 5.74759 6.45438 5.83759 6.58438C5.91759 6.70438 6.01759 6.81438 6.10759 6.92438C6.24759 7.08438 6.37759 7.23438 6.45759 7.41438C6.70759 7.95438 6.64759 8.46438 6.29759 8.83438C5.86759 9.29438 5.09759 9.44438 4.44759 9.20438C4.14759 9.10438 3.91759 8.89438 3.66759 8.67438C3.52759 8.54438 3.37759 8.41438 3.21759 8.30438C2.78759 8.01438 2.22759 8.02438 1.67759 8.02438H1.64759C1.55759 8.02438 1.45759 8.02438 1.36759 8.02438H1.35759C1.08759 8.02438 0.777593 8.02438 0.507593 8.13438C-0.00240666 8.29438 -0.0824067 8.87438 0.0675933 9.37438C0.347593 10.4344 1.14759 11.3644 2.20759 11.8644H2.23759C3.09759 12.2644 4.10759 12.4644 5.11759 12.4644C6.25759 12.4644 7.39759 12.2144 8.27759 11.7144C9.41759 11.0744 10.1076 10.0844 10.2576 8.84438C10.4276 7.65438 10.0176 6.46438 9.22759 5.82438C8.62759 5.31438 7.66759 5.11438 6.78759 5.31438V5.30438Z" fill="#0C0F12"/>
<path d="M40.1775 5.70436C40.5075 6.32436 41.1075 6.77436 41.8475 6.97436C42.1175 7.04436 42.3875 7.08436 42.6575 7.08436C43.1875 7.08436 43.7075 6.94436 44.1475 6.68436C44.3475 6.52436 44.4375 6.32436 44.4075 6.11436C44.3775 5.89436 44.2075 5.69436 44.0175 5.48436C43.9275 5.38436 43.8375 5.27436 43.7675 5.16436C43.4875 4.77436 43.3775 4.14436 43.7375 3.73436C44.1275 3.25436 44.9175 3.16436 45.4675 3.35436C45.7275 3.43436 45.9375 3.58436 46.1775 3.74436C46.3875 3.89436 46.6075 4.04436 46.8575 4.13436C47.2675 4.28436 47.6975 4.28436 48.1175 4.28436C48.2075 4.28436 48.2875 4.28436 48.3875 4.28436C48.6375 4.28436 48.9075 4.28436 49.1575 4.24436C49.3175 4.21436 49.4675 4.15436 49.5775 4.06436C49.7275 3.94436 49.7775 3.79436 49.7975 3.65436C49.8475 3.37436 49.8175 3.07436 49.7075 2.76436C49.5175 2.23436 49.1375 1.73436 48.5675 1.26436C48.3275 1.06436 48.0875 0.904358 47.8575 0.784358C46.1875 -0.0356424 43.9475 -0.115642 42.2975 0.594358C41.1375 1.09436 40.3375 1.93436 39.9775 3.04436C39.6975 3.94436 39.7775 4.93436 40.1775 5.69436L40.1975 5.72436L40.1775 5.70436Z" fill="#0C0F12"/>
<path d="M46.5875 5.30436C46.4375 5.33436 46.3275 5.37436 46.2175 5.40436C46.0275 5.47436 45.8775 5.54436 45.7575 5.63436C45.6875 5.68436 45.6375 5.74436 45.5875 5.79436C45.5275 5.87436 45.4975 5.95436 45.4875 6.06436C45.4775 6.19436 45.5075 6.32436 45.5775 6.46436C45.6475 6.58436 45.7275 6.69436 45.8175 6.79436C45.8475 6.83436 45.8875 6.86436 45.9175 6.90436C45.9775 6.97436 46.0275 7.03436 46.0875 7.09436C46.1275 7.15436 46.1675 7.19436 46.1975 7.24436C46.2275 7.28436 46.2475 7.33436 46.2675 7.38436C46.5175 7.93436 46.4575 8.44436 46.1075 8.81436C45.6775 9.27436 44.9075 9.42436 44.2575 9.18436C43.9575 9.08436 43.7275 8.87436 43.4775 8.65436C43.3375 8.52436 43.1875 8.39436 43.0275 8.28436C42.5975 7.99436 42.0275 8.00436 41.4875 8.00436H41.4575C41.3675 8.00436 41.2675 8.00436 41.1775 8.00436H41.1675C40.8975 8.00436 40.5875 8.00436 40.3175 8.11436C39.8075 8.27436 39.7275 8.85436 39.8775 9.35436C40.1575 10.4144 40.9575 11.3444 42.0175 11.8444H42.0475C42.9075 12.2444 43.9175 12.4444 44.9275 12.4444C46.0675 12.4444 47.2075 12.1944 48.0875 11.6944C49.2275 11.0544 49.9175 10.0644 50.0675 8.82436C50.2375 7.63436 49.8275 6.44436 49.0375 5.80436C48.4375 5.29436 47.4775 5.09437 46.5975 5.29436L46.5875 5.30436Z" fill="#0C0F12"/>
</svg>
