<svg width="1036" height="330" viewBox="0 0 1036 330" fill="none" xmlns="http://www.w3.org/2000/svg">
<path d="M182 122.199V10.0992C182 7.39922 179.8 5.19922 177.1 5.19922H130.8C128.5 5.19922 126.4 6.79922 126 9.09922L102.1 129.799C101.2 134.499 103.3 139.299 107.4 141.799C111.5 144.299 113.7 149.099 112.7 153.799L107.5 179.599C107.4 180.099 106.9 180.399 106.5 180.299C106.1 180.199 105.9 179.899 105.8 179.599L99.8 151.599C99.1 147.899 96.6 144.799 93.1 143.299L85.6 140.099C82.1 138.599 79.6 135.499 78.9 131.799L54.9 9.19922C54.4 6.89922 52.4 5.29922 50.1 5.29922H4.9C2.2 5.29922 0 7.39922 0 10.0992V139.699C0 143.999 2.4 147.999 6.3 149.899L9.9 151.699C13.8 153.599 16.2 157.599 16.2 161.899V204.899C16.2 209.199 13.8 213.199 9.9 215.099L6.3 216.899C2.4 218.799 0 222.799 0 227.099V319.799C0 322.499 2.2 324.699 4.9 324.699H32.1C34.8 324.699 37 322.499 37 319.799V228.699C37 224.399 39.4 220.399 43.3 218.499L46.9 216.699C50.8 214.799 53.2 210.799 53.2 206.499V159.599C53.2 155.299 50.8 151.299 46.9 149.399L43.3 147.599C39.4 145.699 37 141.699 37 137.399L35.1 76.9992C35.1 76.4992 35.5 75.9992 36 75.8992C36.6 75.7992 37.2 76.1992 37.3 76.7992C37.3 76.7992 37.3 76.7992 37.3 76.8992L45.2 133.799C45.8 137.599 48.3 140.799 51.9 142.399L58.8 145.399C62.3 146.899 64.8 150.199 65.5 153.999L77.7 206.799C78.5 211.499 76.3 216.199 72.1 218.499L71.6 218.799C67.5 221.199 65.3 225.899 66 230.499L80.9 320.499C81.3 322.799 83.3 324.599 85.7 324.599H95C97.4 324.599 99.4 322.899 99.8 320.499L114.6 230.899C115.2 227.099 117.7 223.899 121.3 222.299L128.2 219.299C131.7 217.699 134.2 214.499 134.8 210.699L147.8 151.399C148.6 146.699 146.4 142.099 142.3 139.699L141.7 139.399C137.6 136.999 135.4 132.299 136.2 127.699L143.6 76.7992C143.7 76.1992 144.2 75.7992 144.8 75.8992C145.3 75.9992 145.8 76.3992 145.8 76.9992L143.9 124.599C143.9 128.899 146.3 132.899 150.2 134.799L153.8 136.599C157.7 138.499 160.1 142.499 160.1 146.799V210.999C160.1 215.299 157.7 219.299 153.8 221.199L150.2 222.999C146.3 224.899 143.9 228.899 143.9 233.199V319.799C143.9 322.499 146.1 324.699 148.8 324.699H177.1C179.8 324.699 182 322.499 182 319.799V234.799C182 230.499 184.4 226.499 188.3 224.599L191.9 222.799C195.8 220.899 198.2 216.899 198.2 212.599V144.399C198.2 140.099 195.8 136.099 191.9 134.199L188.3 132.399C184.4 130.499 182 126.499 182 122.199Z" fill="#2A362F"/>
<path d="M688.697 68.2C687.897 46.8 685.397 38.8 678.297 27.4C666.997 10.5 645.297 0 621.697 0C598.097 0 576.297 10.5 564.997 27.5C557.397 39.8 554.997 48.1 554.497 73.8C554.397 77.2 554.397 88.4 554.297 95.8C554.297 99.8 556.897 103.4 560.697 104.7L572.197 108.5C575.997 109.8 578.597 113.4 578.597 117.4V230.7C578.597 234.7 575.997 238.3 572.197 239.6L560.797 243.4C556.897 244.7 554.297 248.4 554.397 252.5C554.897 280.7 557.097 289.2 564.997 302C576.197 319.2 597.797 330 621.597 330C645.397 330 667.097 319.3 678.197 302C685.697 289.9 688.097 282 688.697 257.9C688.797 253.9 691.397 250.5 695.097 249.2L706.797 245.3C711.897 243.5 712.997 240.9 713.197 236.4V108.8C713.197 104.8 710.597 101.2 706.797 99.9L695.297 96.1C691.497 94.8 688.897 91.3 688.897 87.3C688.997 81.1 688.897 72.2 688.697 68.2ZM668.497 111.7V234.5C668.497 238.5 665.897 242.1 662.097 243.4L650.597 247.3C646.797 248.6 644.197 252.1 644.197 256.1C644.197 259.3 644.097 262.7 644.097 263.6C642.897 280.7 635.897 288.4 621.797 288.4C607.997 288.4 601.097 281.4 599.597 265.4C599.497 264.1 599.397 258.9 599.297 254.4C599.297 250.3 601.797 246.7 605.697 245.4L617.097 241.6C620.897 240.3 623.497 236.7 623.497 232.7V114.5C623.497 110.5 620.897 106.9 617.097 105.6L605.597 101.8C601.797 100.5 599.197 96.9 599.197 92.9V72.1C599.197 51.1 606.197 41.7 621.697 41.7C637.497 41.7 644.197 50.8 644.197 72.1V90C644.197 94 646.797 97.6 650.597 98.9L662.097 102.7C665.997 104 668.497 107.6 668.497 111.7Z" fill="#2A362F"/>
<path d="M522.098 5.30078H486.998C484.298 5.30078 482.098 7.50078 482.098 10.2008V102.001C482.098 105.801 484.398 109.301 487.998 110.701L496.498 114.101C500.098 115.501 502.398 119.001 502.398 122.801V198.001C502.398 199.201 500.698 194.701 500.298 193.601L472.298 123.101C471.398 120.201 469.198 117.901 466.298 117.001L451.498 112.101C448.598 111.101 446.398 108.901 445.498 106.001L414.998 8.70078C414.398 6.70078 412.498 5.30078 410.398 5.30078H380.298C377.598 5.30078 375.398 7.50078 375.398 10.2008V108.701C375.398 112.501 377.698 116.001 381.298 117.401L389.798 120.801C393.398 122.201 395.698 125.701 395.698 129.501V222.901C395.698 226.701 393.398 230.201 389.798 231.601L381.298 235.001C377.698 236.401 375.398 239.901 375.398 243.701V319.901C375.398 322.601 377.598 324.801 380.298 324.801H415.398C418.098 324.801 420.298 322.601 420.298 319.901V245.601C420.298 241.801 422.598 238.301 426.198 236.901L434.698 233.501C438.298 232.101 440.598 228.601 440.598 224.801V159.601C440.598 159.001 441.098 158.501 441.698 158.501C442.198 158.501 442.598 158.801 442.698 159.201L469.298 224.801C470.698 229.201 468.698 233.901 464.598 236.001L462.398 237.101C458.298 239.201 456.298 243.901 457.698 248.301L480.698 321.401C481.298 323.401 483.198 324.801 485.298 324.801H522.198C524.898 324.801 527.098 322.601 527.098 319.901V250.001C527.098 246.201 529.398 242.701 532.998 241.301L541.498 237.901C545.098 236.501 547.398 233.001 547.398 229.201V119.801C547.398 116.001 545.098 112.501 541.498 111.101L532.998 107.701C529.398 106.301 527.098 102.801 527.098 99.0008V10.1008C526.898 7.40078 524.798 5.30078 522.098 5.30078Z" fill="#2A362F"/>
<path d="M343.997 92.1C343.997 51.4 342.497 42.3 333.297 27.5C321.997 10.5 300.297 0 276.597 0C252.897 0 231.297 10.5 219.997 27.5C210.797 42.3 209.297 51.4 209.297 92.1V120.1C209.297 123.9 211.597 127.4 215.197 128.8L223.697 132.2C227.297 133.6 229.597 137.1 229.597 140.9V215.3C229.597 219.1 227.297 222.6 223.697 224L215.197 227.4C211.597 228.8 209.297 232.2 209.297 236.1C209.297 242.3 209.397 251.4 209.397 254.6C209.897 281.2 212.197 289.6 219.997 302.1C231.097 319.3 252.797 330.1 276.597 330.1C300.397 330.1 322.097 319.4 333.197 302.1C340.897 289.7 343.197 281.7 343.697 255.9C343.797 252.8 343.797 246.6 343.797 241.8C343.797 238 346.097 234.6 349.697 233.2L358.197 229.8C361.797 228.4 364.097 224.9 364.097 221.1V132.5C364.097 128.7 361.797 125.2 358.197 123.8L349.697 120.4C346.097 119 343.797 115.5 343.797 111.7L343.997 92.1ZM319.397 135.1V219C319.397 222.8 317.097 226.3 313.497 227.7L304.997 231.1C301.397 232.5 299.097 236 299.097 239.8V257.9C299.097 278.9 292.097 288.3 276.597 288.3C260.797 288.3 254.097 279.2 254.097 257.9V237.9C254.097 234.1 256.397 230.6 259.997 229.2L268.497 225.8C272.097 224.4 274.397 220.9 274.397 217.1V138C274.397 134.2 272.097 130.7 268.497 129.3L260.097 125.9C256.497 124.5 254.197 121 254.197 117.2V72.1C254.197 51.1 261.097 41.7 276.697 41.7C292.497 41.7 299.197 50.8 299.197 72.1V114.3C299.197 118.1 301.497 121.6 305.097 123L313.597 126.4C317.097 127.8 319.397 131.3 319.397 135.1Z" fill="#2A362F"/>
<path d="M858.998 241.399L821.098 175.599L849.798 100.799C851.498 96.0992 849.198 90.8992 844.598 88.9992L841.198 87.5992C836.598 85.6992 834.298 80.4992 835.998 75.7992L859.198 11.9992C860.098 9.49922 858.798 6.69922 856.298 5.79922C855.798 5.59922 855.198 5.49922 854.598 5.49922H819.998C817.998 5.49922 816.098 6.79922 815.398 8.69922L789.898 78.7992C788.198 83.4992 790.498 88.6992 795.098 90.5992L798.498 91.9992C803.098 93.8992 805.398 99.0992 803.698 103.799L791.698 139.199C791.498 139.799 790.898 139.999 790.298 139.799C789.898 139.599 789.598 139.199 789.598 138.799V103.199C789.598 99.1992 786.998 95.5992 783.198 94.2992L771.698 90.4992C767.898 89.1992 765.298 85.5992 765.298 81.5992V10.0992C765.298 7.39922 763.098 5.19922 760.398 5.19922H725.298C722.598 5.19922 720.398 7.39922 720.398 10.0992V84.2992C720.398 88.2992 722.998 91.8992 726.798 93.1992L738.298 96.9992C742.098 98.2992 744.698 101.899 744.698 105.899V238.199C744.698 242.199 742.098 245.799 738.298 247.099L726.798 250.999C722.998 252.299 720.398 255.899 720.398 259.899V319.899C720.398 322.599 722.598 324.799 725.298 324.799H760.398C763.098 324.799 765.298 322.599 765.298 319.899V261.799C765.298 257.799 767.898 254.199 771.698 252.899L783.198 249.099C786.998 247.799 789.598 244.199 789.598 240.199V211.999C789.598 211.399 790.098 210.899 790.598 210.899C790.998 210.899 791.398 211.099 791.598 211.499L804.998 238.999C807.398 243.599 805.698 249.199 801.098 251.699C800.998 251.799 800.798 251.799 800.698 251.899C795.998 254.099 793.998 259.699 796.198 264.399C796.298 264.499 796.298 264.699 796.398 264.799L826.698 322.099C827.498 323.699 829.198 324.699 830.998 324.699H872.698C875.398 324.699 877.598 322.499 877.598 319.799C877.598 318.999 877.398 318.199 876.998 317.499L850.498 266.999C848.098 262.399 849.798 256.799 854.398 254.299C854.498 254.199 854.698 254.199 854.798 254.099C859.498 251.899 861.398 246.299 859.198 241.599C859.098 241.599 859.098 241.499 858.998 241.399Z" fill="#2A362F"/>
<path d="M1007.7 63.5992V10.0992C1007.7 7.39922 1005.5 5.19922 1002.8 5.19922H967.703C965.003 5.19922 962.803 7.39922 962.803 10.0992V66.3992C962.803 70.5992 965.603 74.2992 969.603 75.3992L984.403 79.5992C988.403 80.6992 991.203 84.3992 991.203 88.5992V249.499C991.203 253.699 988.403 257.399 984.403 258.499L968.403 262.999C965.003 263.999 962.503 266.799 961.803 270.299C959.403 282.699 952.603 288.099 940.303 288.099C927.503 288.099 918.603 278.499 918.503 267.899C918.503 264.799 920.503 261.999 923.503 261.199L937.803 257.099C943.403 255.499 946.103 251.799 946.103 247.699V91.5992C946.103 87.3992 943.303 83.6992 939.303 82.5992L924.503 78.3992C920.503 77.2992 917.703 73.5992 917.703 69.3992V10.0992C917.703 7.39922 915.503 5.19922 912.803 5.19922H912.703H877.603C874.903 5.19922 872.703 7.29922 872.703 9.99922V71.9992C872.703 76.1992 875.503 79.8992 879.503 80.9992L894.303 85.1992C898.303 86.2992 901.103 89.9992 901.103 94.1992C901.103 123.499 901.103 216.399 901.103 245.699C901.103 249.899 898.403 253.599 894.303 254.699L880.203 258.799C875.903 259.999 873.103 263.999 873.403 268.499C874.503 284.899 877.203 292.299 883.403 302.399C894.703 319.299 916.403 329.799 940.003 329.799C963.603 329.799 985.303 319.299 996.703 302.299C1002.3 293.299 1005 286.299 1006.3 272.899C1006.7 268.999 1009.4 265.799 1013.1 264.699L1028.9 260.299C1032.9 259.199 1035.7 255.599 1035.7 251.399C1035.7 248.399 1035.7 245.199 1035.7 241.799V85.8992C1035.7 81.6992 1032.9 77.9992 1028.9 76.8992L1014.1 72.6992C1010.4 71.3992 1007.7 67.7992 1007.7 63.5992Z" fill="#2A362F"/>
</svg>
